Literata-M2Italic.ufo
<glyph name="exclam" format="2">
	<unicode hex="0021"/>
	<advance width="340"/>
	<outline>
		<contour>
			<point x="161" y="479" type="curve" smooth="yes"/>
			<point x="163" y="194" type="line"/>
			<point x="184" y="194" type="line"/>
			<point x="199" y="486"/>
			<point x="224" y="588"/>
			<point x="272" y="721" type="curve"/>
			<point x="260" y="733"/>
			<point x="241" y="745"/>
			<point x="216" y="745" type="curve" smooth="yes"/>
			<point x="180" y="745"/>
			<point x="156" y="725"/>
			<point x="156" y="681" type="curve" smooth="yes"/>
			<point x="156" y="625"/>
			<point x="160" y="571"/>
		</contour>
		<contour>
			<point x="97" y="48" type="curve" smooth="yes"/>
			<point x="97" y="12"/>
			<point x="126" y="-14"/>
			<point x="165" y="-14" type="curve" smooth="yes"/>
			<point x="204" y="-14"/>
			<point x="238" y="13"/>
			<point x="238" y="56" type="curve" smooth="yes"/>
			<point x="238" y="93"/>
			<point x="211" y="119"/>
			<point x="170" y="119" type="curve" smooth="yes"/>
			<point x="128" y="119"/>
			<point x="97" y="89"/>
		</contour>
	</outline>
</glyph>
<glyph name="numbersign" format="2">
	<unicode hex="0023"/>
	<advance width="674"/>
	<outline>
		<contour>
			<point x="178" y="0" type="line"/>
			<point x="201" y="0" type="line"/>
			<point x="231" y="160" type="line"/>
			<point x="416" y="160" type="line"/>
			<point x="386" y="0" type="line"/>
			<point x="409" y="0" type="line"/>
			<point x="439" y="160" type="line"/>
			<point x="599" y="160" type="line"/>
			<point x="604" y="181" type="line"/>
			<point x="443" y="181" type="line"/>
			<point x="482" y="388" type="line"/>
			<point x="636" y="388" type="line"/>
			<point x="641" y="409" type="line"/>
			<point x="485" y="409" type="line"/>
			<point x="512" y="550" type="line"/>
			<point x="488" y="550" type="line"/>
			<point x="462" y="409" type="line"/>
			<point x="278" y="409" type="line"/>
			<point x="305" y="550" type="line"/>
			<point x="282" y="550" type="line"/>
			<point x="255" y="409" type="line"/>
			<point x="101" y="409" type="line"/>
			<point x="95" y="388" type="line"/>
			<point x="251" y="388" type="line"/>
			<point x="212" y="181" type="line"/>
			<point x="60" y="181" type="line"/>
			<point x="53" y="160" type="line"/>
			<point x="207" y="160" type="line"/>
		</contour>
		<contour>
			<point x="273" y="388" type="line"/>
			<point x="459" y="388" type="line"/>
			<point x="420" y="181" type="line"/>
			<point x="235" y="181" type="line"/>
		</contour>
	</outline>
</glyph>
<glyph name="quotesingle" format="2">
	<unicode hex="0027"/>
	<advance width="250"/>
	<outline>
		<contour>
			<point x="149" y="547" type="line"/>
			<point x="182" y="653" type="line" smooth="yes"/>
			<point x="193" y="687"/>
			<point x="206" y="715"/>
			<point x="206" y="740" type="curve" smooth="yes"/>
			<point x="206" y="763"/>
			<point x="190" y="780"/>
			<point x="163" y="780" type="curve" smooth="yes"/>
			<point x="134" y="780"/>
			<point x="112" y="759"/>
			<point x="111" y="729" type="curve" smooth="yes"/>
			<point x="110" y="714"/>
			<point x="115" y="689"/>
			<point x="121" y="657" type="curve" smooth="yes"/>
			<point x="141" y="547" type="line"/>
		</contour>
	</outline>
</glyph>
<glyph name="parenleft" format="2">
	<unicode hex="0028"/>
	<advance width="332"/>
	<outline>
		<contour>
			<point x="84" y="276" type="curve" smooth="yes"/>
			<point x="84" y="78"/>
			<point x="183" y="-75"/>
			<point x="273" y="-199" type="curve"/>
			<point x="282" y="-194" type="line"/>
			<point x="200" y="-45"/>
			<point x="174" y="84"/>
			<point x="174" y="274" type="curve" smooth="yes"/>
			<point x="174" y="477"/>
			<point x="222" y="645"/>
			<point x="321" y="795" type="curve"/>
			<point x="312" y="800" type="line"/>
			<point x="177" y="635"/>
			<point x="84" y="460"/>
		</contour>
	</outline>
</glyph>
<glyph name="parenright" format="2">
	<unicode hex="0029"/>
	<advance width="332"/>
	<outline>
		<contour>
			<point x="269" y="325" type="curve"/>
			<point x="269" y="523"/>
			<point x="170" y="676"/>
			<point x="80" y="800" type="curve"/>
			<point x="71" y="795" type="line"/>
			<point x="153" y="646"/>
			<point x="179" y="517"/>
			<point x="179" y="327" type="curve" smooth="yes"/>
			<point x="179" y="124"/>
			<point x="131" y="-44"/>
			<point x="32" y="-194" type="curve"/>
			<point x="41" y="-199" type="line"/>
			<point x="176" y="-34"/>
			<point x="269" y="141"/>
		</contour>
	</outline>
</glyph>
<glyph name="asterisk" format="2">
	<unicode hex="002A"/>
	<advance width="473"/>
	<outline>
		<contour>
			<point x="251" y="605" type="line"/>
			<point x="148" y="708" type="line"/>
			<point x="114" y="704"/>
			<point x="101" y="687"/>
			<point x="101" y="668" type="curve" smooth="yes"/>
			<point x="101" y="651"/>
			<point x="107" y="637"/>
			<point x="132" y="631" type="curve" smooth="yes"/>
			<point x="248" y="601" type="line"/>
			<point x="94" y="555" type="line"/>
			<point x="91" y="546"/>
			<point x="91" y="535"/>
			<point x="91" y="528" type="curve" smooth="yes"/>
			<point x="91" y="485"/>
			<point x="139" y="485"/>
			<point x="157" y="503" type="curve" smooth="yes"/>
			<point x="251" y="597" type="line"/>
			<point x="210" y="441" type="line"/>
			<point x="220" y="424"/>
			<point x="241" y="416"/>
			<point x="253" y="417" type="curve" smooth="yes"/>
			<point x="277" y="418"/>
			<point x="292" y="437"/>
			<point x="286" y="463" type="curve" smooth="yes"/>
			<point x="256" y="597" type="line"/>
			<point x="366" y="479" type="line"/>
			<point x="397" y="481"/>
			<point x="411" y="499"/>
			<point x="411" y="518" type="curve" smooth="yes"/>
			<point x="411" y="533"/>
			<point x="402" y="549"/>
			<point x="384" y="556" type="curve" smooth="yes"/>
			<point x="259" y="601" type="line"/>
			<point x="413" y="641" type="line"/>
			<point x="417" y="652"/>
			<point x="418" y="661"/>
			<point x="418" y="669" type="curve" smooth="yes"/>
			<point x="418" y="707"/>
			<point x="381" y="710"/>
			<point x="362" y="694" type="curve" smooth="yes"/>
			<point x="256" y="605" type="line"/>
			<point x="302" y="765" type="line"/>
			<point x="291" y="776"/>
			<point x="277" y="782"/>
			<point x="264" y="782" type="curve" smooth="yes"/>
			<point x="238" y="782"/>
			<point x="221" y="766"/>
			<point x="228" y="727" type="curve" smooth="yes"/>
		</contour>
	</outline>
</glyph>
<glyph name="period" format="2">
	<unicode hex="002E"/>
	<advance width="320"/>
	<outline>
		<contour>
			<point x="94" y="52" type="curve" smooth="yes"/>
			<point x="94" y="15"/>
			<point x="121" y="-14"/>
			<point x="164" y="-14" type="curve" smooth="yes"/>
			<point x="203" y="-14"/>
			<point x="239" y="15"/>
			<point x="239" y="61" type="curve" smooth="yes"/>
			<point x="239" y="100"/>
			<point x="211" y="129"/>
			<point x="169" y="129" type="curve" smooth="yes"/>
			<point x="125" y="129"/>
			<point x="94" y="96"/>
		</contour>
	</outline>
</glyph>
<glyph name="one" format="2">
	<unicode hex="0031"/>
	<advance width="386"/>
	<outline>
		<contour>
			<point x="184" y="692" type="line"/>
			<point x="158" y="30" type="line"/>
			<point x="42" y="19" type="line"/>
			<point x="40" y="0" type="line"/>
			<point x="347" y="0" type="line"/>
			<point x="349" y="19" type="line"/>
			<point x="243" y="31" type="line"/>
			<point x="270" y="735" type="line"/>
			<point x="253" y="745" type="line"/>
			<point x="62" y="710" type="line"/>
			<point x="58" y="692" type="line"/>
		</contour>
	</outline>
</glyph>
<glyph name="two" format="2">
	<unicode hex="0032"/>
	<advance width="521"/>
	<outline>
		<contour>
			<point x="49" y="591" type="curve" smooth="yes"/>
			<point x="49" y="554"/>
			<point x="74" y="530"/>
			<point x="113" y="530" type="curve" smooth="yes"/>
			<point x="139" y="530"/>
			<point x="164" y="546"/>
			<point x="175" y="572" type="curve"/>
			<point x="154" y="596" type="line" smooth="yes"/>
			<point x="108" y="648"/>
			<point x="153" y="722"/>
			<point x="247" y="722" type="curve" smooth="yes"/>
			<point x="334" y="722"/>
			<point x="369" y="654"/>
			<point x="369" y="554" type="curve" smooth="yes"/>
			<point x="369" y="410"/>
			<point x="325" y="328"/>
			<point x="46" y="33" type="curve"/>
			<point x="50" y="0" type="line"/>
			<point x="465" y="0" type="line"/>
			<point x="494" y="192" type="line"/>
			<point x="478" y="192" type="line"/>
			<point x="448" y="94"/>
			<point x="424" y="70"/>
			<point x="343" y="70" type="curve" smooth="yes"/>
			<point x="120" y="70" type="line"/>
			<point x="120" y="74" type="line"/>
			<point x="410" y="355"/>
			<point x="463" y="444"/>
			<point x="463" y="554" type="curve" smooth="yes"/>
			<point x="463" y="665"/>
			<point x="389" y="745"/>
			<point x="258" y="745" type="curve" smooth="yes"/>
			<point x="145" y="745"/>
			<point x="49" y="674"/>
		</contour>
	</outline>
</glyph>
<glyph name="seven" format="2">
	<unicode hex="0037"/>
	<advance width="516"/>
	<outline>
		<contour>
			<point x="142" y="0" type="line"/>
			<point x="249" y="0" type="line"/>
			<point x="507" y="679" type="line"/>
			<point x="499" y="730" type="line"/>
			<point x="67" y="730" type="line"/>
			<point x="43" y="554" type="line"/>
			<point x="59" y="554" type="line"/>
			<point x="68" y="581" type="line" smooth="yes"/>
			<point x="91" y="649"/>
			<point x="113" y="659"/>
			<point x="193" y="659" type="curve" smooth="yes"/>
			<point x="474" y="659" type="line"/>
			<point x="136" y="10" type="line"/>
		</contour>
	</outline>
</glyph>
<glyph name="eight" format="2">
	<unicode hex="0038"/>
	<advance width="539"/>
	<outline>
		<contour>
			<point x="53" y="170" type="curve" smooth="yes"/>
			<point x="53" y="56"/>
			<point x="147" y="-14"/>
			<point x="266" y="-14" type="curve" smooth="yes"/>
			<point x="405" y="-14"/>
			<point x="507" y="71"/>
			<point x="507" y="192" type="curve" smooth="yes"/>
			<point x="507" y="293"/>
			<point x="461" y="344"/>
			<point x="347" y="408" type="curve"/>
			<point x="451" y="460"/>
			<point x="497" y="507"/>
			<point x="497" y="585" type="curve" smooth="yes"/>
			<point x="497" y="675"/>
			<point x="422" y="745"/>
			<point x="310" y="745" type="curve" smooth="yes"/>
			<point x="187" y="745"/>
			<point x="94" y="670"/>
			<point x="94" y="557" type="curve" smooth="yes"/>
			<point x="94" y="480"/>
			<point x="130" y="436"/>
			<point x="215" y="381" type="curve"/>
			<point x="115" y="327"/>
			<point x="53" y="259"/>
		</contour>
		<contour>
			<point x="233" y="370" type="curve"/>
			<point x="407" y="283"/>
			<point x="437" y="240"/>
			<point x="437" y="157" type="curve" smooth="yes"/>
			<point x="437" y="64"/>
			<point x="369" y="4"/>
			<point x="273" y="4" type="curve" smooth="yes"/>
			<point x="171" y="4"/>
			<point x="123" y="63"/>
			<point x="123" y="178" type="curve" smooth="yes"/>
			<point x="123" y="254"/>
			<point x="157" y="321"/>
		</contour>
		<contour>
			<point x="164" y="589" type="curve" smooth="yes"/>
			<point x="164" y="662"/>
			<point x="214" y="727"/>
			<point x="305" y="727" type="curve" smooth="yes"/>
			<point x="378" y="727"/>
			<point x="423" y="665"/>
			<point x="423" y="575" type="curve" smooth="yes"/>
			<point x="423" y="499"/>
			<point x="409" y="462"/>
			<point x="331" y="417" type="curve"/>
			<point x="199" y="482"/>
			<point x="164" y="522"/>
		</contour>
	</outline>
</glyph>
<glyph name="nine" format="2">
	<unicode hex="0039"/>
	<advance width="541"/>
	<outline>
		<contour>
			<point x="209" y="-14" type="curve" smooth="yes"/>
			<point x="375" y="-14"/>
			<point x="507" y="166"/>
			<point x="507" y="443" type="curve" smooth="yes"/>
			<point x="507" y="637"/>
			<point x="428" y="745"/>
			<point x="291" y="745" type="curve" smooth="yes"/>
			<point x="153" y="745"/>
			<point x="55" y="622"/>
			<point x="55" y="464" type="curve" smooth="yes"/>
			<point x="55" y="346"/>
			<point x="117" y="275"/>
			<point x="224" y="275" type="curve" smooth="yes"/>
			<point x="300" y="275"/>
			<point x="362" y="318"/>
			<point x="425" y="399" type="curve"/>
			<point x="427" y="398" type="line"/>
			<point x="414" y="178"/>
			<point x="327" y="20"/>
			<point x="204" y="20" type="curve" smooth="yes"/>
			<point x="143" y="20"/>
			<point x="100" y="43"/>
			<point x="57" y="90" type="curve"/>
			<point x="46" y="81" type="line"/>
			<point x="86" y="21"/>
			<point x="144" y="-14"/>
		</contour>
		<contour>
			<point x="246" y="310" type="curve" smooth="yes"/>
			<point x="176" y="310"/>
			<point x="147" y="364"/>
			<point x="147" y="475" type="curve" smooth="yes"/>
			<point x="147" y="631"/>
			<point x="194" y="727"/>
			<point x="289" y="727" type="curve" smooth="yes"/>
			<point x="379" y="727"/>
			<point x="428" y="612"/>
			<point x="423" y="431" type="curve"/>
			<point x="370" y="352"/>
			<point x="308" y="310"/>
		</contour>
	</outline>
</glyph>
<glyph name="question" format="2">
	<unicode hex="003F"/>
	<advance width="511"/>
	<outline>
		<contour>
			<point x="189" y="392" type="curve"/>
			<point x="228" y="194" type="line"/>
			<point x="252" y="194" type="line"/>
			<point x="223" y="342" type="line"/>
			<point x="379" y="387"/>
			<point x="449" y="467"/>
			<point x="449" y="575" type="curve" smooth="yes"/>
			<point x="449" y="695"/>
			<point x="358" y="745"/>
			<point x="258" y="745" type="curve" smooth="yes"/>
			<point x="165" y="745"/>
			<point x="58" y="692"/>
			<point x="58" y="601" type="curve" smooth="yes"/>
			<point x="58" y="563"/>
			<point x="81" y="540"/>
			<point x="119" y="540" type="curve" smooth="yes"/>
			<point x="147" y="540"/>
			<point x="171" y="558"/>
			<point x="181" y="582" type="curve"/>
			<point x="160" y="606" type="line" smooth="yes"/>
			<point x="118" y="654"/>
			<point x="144" y="722"/>
			<point x="243" y="722" type="curve" smooth="yes"/>
			<point x="325" y="722"/>
			<point x="369" y="665"/>
			<point x="369" y="580" type="curve" smooth="yes"/>
			<point x="369" y="489"/>
			<point x="321" y="418"/>
		</contour>
		<contour>
			<point x="170" y="50" type="curve" smooth="yes"/>
			<point x="170" y="9"/>
			<point x="197" y="-14"/>
			<point x="238" y="-14" type="curve" smooth="yes"/>
			<point x="279" y="-14"/>
			<point x="311" y="10"/>
			<point x="311" y="51" type="curve" smooth="yes"/>
			<point x="311" y="92"/>
			<point x="284" y="119"/>
			<point x="243" y="119" type="curve" smooth="yes"/>
			<point x="202" y="119"/>
			<point x="170" y="92"/>
		</contour>
	</outline>
</glyph>
<glyph name="A" format="2">
	<unicode hex="0041"/>
	<advance width="691"/>
	<outline>
		<contour>
			<point x="426" y="736" type="line"/>
			<point x="344" y="725" type="line"/>
			<point x="98" y="30" type="line"/>
			<point x="19" y="19" type="line"/>
			<point x="16" y="0" type="line"/>
			<point x="215" y="0" type="line"/>
			<point x="218" y="19" type="line"/>
			<point x="126" y="30" type="line"/>
			<point x="205" y="263" type="line"/>
			<point x="450" y="263" type="line"/>
			<point x="506" y="31" type="line"/>
			<point x="423" y="19" type="line"/>
			<point x="420" y="0" type="line"/>
			<point x="686" y="0" type="line"/>
			<point x="689" y="19" type="line"/>
			<point x="606" y="30" type="line"/>
		</contour>
		<contour>
			<point x="213" y="285" type="line"/>
			<point x="349" y="679" type="line"/>
			<point x="352" y="679" type="line"/>
			<point x="445" y="285" type="line"/>
		</contour>
	</outline>
	<anchor name="bottom" x="324" y="-30"/>
	<anchor name="top" x="381" y="730"/>
</glyph>
<glyph name="B" format="2">
	<unicode hex="0042"/>
	<advance width="609"/>
	<outline>
		<contour>
			<point x="549" y="566" type="curve" smooth="yes"/>
			<point x="549" y="681"/>
			<point x="473" y="730"/>
			<point x="314" y="730" type="curve" smooth="yes"/>
			<point x="87" y="730" type="line"/>
			<point x="85" y="713" type="line"/>
			<point x="167" y="698" type="line"/>
			<point x="141" y="30" type="line"/>
			<point x="57" y="18" type="line"/>
			<point x="55" y="0" type="line"/>
			<point x="282" y="0" type="line" smooth="yes"/>
			<point x="466" y="0"/>
			<point x="577" y="76"/>
			<point x="577" y="215" type="curve" smooth="yes"/>
			<point x="577" y="314"/>
			<point x="519" y="373"/>
			<point x="398" y="387" type="curve"/>
			<point x="398" y="389" type="line"/>
			<point x="495" y="420"/>
			<point x="549" y="492"/>
		</contour>
		<contour>
			<point x="288" y="382" type="curve"/>
			<point x="286" y="359" type="line"/>
			<point x="310" y="364"/>
			<point x="323" y="365"/>
			<point x="346" y="365" type="curve" smooth="yes"/>
			<point x="433" y="365"/>
			<point x="480" y="322"/>
			<point x="480" y="218" type="curve" smooth="yes"/>
			<point x="480" y="86"/>
			<point x="413" y="23"/>
			<point x="291" y="23" type="curve" smooth="yes"/>
			<point x="227" y="23" type="line"/>
			<point x="254" y="707" type="line"/>
			<point x="306" y="707" type="line" smooth="yes"/>
			<point x="409" y="707"/>
			<point x="452" y="663"/>
			<point x="452" y="554" type="curve" smooth="yes"/>
			<point x="452" y="453"/>
			<point x="402" y="399"/>
		</contour>
	</outline>
</glyph>
<glyph name="C" format="2">
	<unicode hex="0043"/>
	<advance width="614"/>
	<outline>
		<contour>
			<point x="493" y="604" type="curve" smooth="yes"/>
			<point x="475" y="566" type="line"/>
			<point x="494" y="550"/>
			<point x="523" y="540"/>
			<point x="545" y="540" type="curve" smooth="yes"/>
			<point x="574" y="540"/>
			<point x="598" y="565"/>
			<point x="598" y="600" type="curve" smooth="yes"/>
			<point x="598" y="688"/>
			<point x="492" y="745"/>
			<point x="379" y="745" type="curve" smooth="yes"/>
			<point x="185" y="745"/>
			<point x="64" y="596"/>
			<point x="63" y="341" type="curve" smooth="yes"/>
			<point x="62" y="119"/>
			<point x="166" y="-14"/>
			<point x="343" y="-14" type="curve" smooth="yes"/>
			<point x="437" y="-14"/>
			<point x="518" y="30"/>
			<point x="585" y="128" type="curve"/>
			<point x="572" y="139" type="line"/>
			<point x="505" y="57"/>
			<point x="447" y="25"/>
			<point x="362" y="25" type="curve" smooth="yes"/>
			<point x="241" y="25"/>
			<point x="156" y="125"/>
			<point x="157" y="350" type="curve" smooth="yes"/>
			<point x="158" y="608"/>
			<point x="241" y="722"/>
			<point x="377" y="722" type="curve" smooth="yes"/>
			<point x="460" y="722"/>
			<point x="529" y="680"/>
		</contour>
	</outline>
	<anchor name="bottom" x="340" y="-30"/>
	<anchor name="top" x="372" y="730"/>
</glyph>
<glyph name="D" format="2">
	<unicode hex="0044"/>
	<advance width="718"/>
	<outline>
		<contour>
			<point x="55" y="0" type="line"/>
			<point x="266" y="0" type="line" smooth="yes"/>
			<point x="530" y="0"/>
			<point x="683" y="144"/>
			<point x="683" y="407" type="curve" smooth="yes"/>
			<point x="683" y="618"/>
			<point x="564" y="730"/>
			<point x="354" y="730" type="curve" smooth="yes"/>
			<point x="88" y="730" type="line"/>
			<point x="86" y="713" type="line"/>
			<point x="168" y="698" type="line"/>
			<point x="141" y="30" type="line"/>
			<point x="57" y="18" type="line"/>
		</contour>
		<contour>
			<point x="227" y="23" type="line"/>
			<point x="255" y="707" type="line"/>
			<point x="344" y="707" type="line" smooth="yes"/>
			<point x="499" y="707"/>
			<point x="586" y="600"/>
			<point x="586" y="398" type="curve" smooth="yes"/>
			<point x="586" y="151"/>
			<point x="467" y="23"/>
			<point x="255" y="23" type="curve" smooth="yes"/>
		</contour>
	</outline>
	<anchor name="bottom" x="346" y="-30"/>
	<anchor name="top" x="361" y="730"/>
</glyph>
<glyph name="E" format="2">
	<unicode hex="0045"/>
	<advance width="583"/>
	<outline>
		<contour>
			<point x="168" y="698" type="line"/>
			<point x="141" y="30" type="line"/>
			<point x="57" y="18" type="line"/>
			<point x="55" y="0" type="line"/>
			<point x="514" y="0" type="line"/>
			<point x="540" y="171" type="line"/>
			<point x="521" y="171" type="line"/>
			<point x="501" y="106" type="line" smooth="yes"/>
			<point x="481" y="41"/>
			<point x="448" y="23"/>
			<point x="384" y="23" type="curve" smooth="yes"/>
			<point x="227" y="23" type="line"/>
			<point x="243" y="368" type="line"/>
			<point x="472" y="368" type="line"/>
			<point x="473" y="391" type="line"/>
			<point x="243" y="391" type="line"/>
			<point x="255" y="707" type="line"/>
			<point x="393" y="707" type="line" smooth="yes"/>
			<point x="451" y="707"/>
			<point x="477" y="694"/>
			<point x="498" y="624" type="curve" smooth="yes"/>
			<point x="518" y="556" type="line"/>
			<point x="536" y="558" type="line"/>
			<point x="520" y="730" type="line"/>
			<point x="88" y="730" type="line"/>
			<point x="86" y="713" type="line"/>
		</contour>
	</outline>
	<anchor name="bottom" x="312" y="-30"/>
	<anchor name="top" x="322" y="730"/>
</glyph>
<glyph name="G" format="2">
	<unicode hex="0047"/>
	<advance width="645"/>
	<outline>
		<contour>
			<point x="602" y="326" type="line"/>
			<point x="428" y="326" type="line"/>
			<point x="426" y="308" type="line"/>
			<point x="515" y="293" type="line"/>
			<point x="507" y="47" type="line"/>
			<point x="472" y="28"/>
			<point x="419" y="14"/>
			<point x="366" y="14" type="curve" smooth="yes"/>
			<point x="244" y="14"/>
			<point x="156" y="120"/>
			<point x="157" y="348" type="curve" smooth="yes"/>
			<point x="158" y="605"/>
			<point x="234" y="722"/>
			<point x="390" y="722" type="curve" smooth="yes"/>
			<point x="491" y="722"/>
			<point x="531" y="647"/>
			<point x="508" y="601" type="curve" smooth="yes"/>
			<point x="491" y="567" type="line"/>
			<point x="510" y="550"/>
			<point x="531" y="541"/>
			<point x="558" y="541" type="curve" smooth="yes"/>
			<point x="587" y="541"/>
			<point x="610" y="561"/>
			<point x="610" y="596" type="curve" smooth="yes"/>
			<point x="610" y="680"/>
			<point x="525" y="745"/>
			<point x="394" y="745" type="curve" smooth="yes"/>
			<point x="184" y="745"/>
			<point x="64" y="592"/>
			<point x="63" y="340" type="curve" smooth="yes"/>
			<point x="62" y="113"/>
			<point x="180" y="-14"/>
			<point x="362" y="-14" type="curve" smooth="yes"/>
			<point x="445" y="-14"/>
			<point x="534" y="21"/>
			<point x="592" y="55" type="curve"/>
		</contour>
	</outline>
	<anchor name="bottom" x="361" y="-30"/>
	<anchor name="top" x="383" y="730"/>
</glyph>
<glyph name="K" format="2">
	<unicode hex="004B"/>
	<advance width="682"/>
	<outline>
		<contour>
			<point x="577" y="-14" type="curve" smooth="yes"/>
			<point x="617" y="-14"/>
			<point x="657" y="5"/>
			<point x="684" y="31" type="curve"/>
			<point x="675" y="44" type="line"/>
			<point x="655" y="32"/>
			<point x="637" y="26"/>
			<point x="621" y="26" type="curve" smooth="yes"/>
			<point x="576" y="26"/>
			<point x="555" y="48"/>
			<point x="500" y="208" type="curve" smooth="yes"/>
			<point x="458" y="330"/>
			<point x="411" y="393"/>
			<point x="312" y="398" type="curve"/>
			<point x="312" y="401" type="line"/>
			<point x="608" y="698" type="line"/>
			<point x="681" y="712" type="line"/>
			<point x="683" y="730" type="line"/>
			<point x="485" y="730" type="line"/>
			<point x="483" y="712" type="line"/>
			<point x="567" y="699" type="line"/>
			<point x="271" y="398" type="line"/>
			<point x="270" y="374" type="line"/>
			<point x="344" y="361"/>
			<point x="369" y="330"/>
			<point x="411" y="190" type="curve" smooth="yes"/>
			<point x="463" y="19"/>
			<point x="504" y="-14"/>
		</contour>
		<contour>
			<point x="55" y="0" type="line"/>
			<point x="321" y="0" type="line"/>
			<point x="323" y="18" type="line"/>
			<point x="230" y="30" type="line"/>
			<point x="256" y="698" type="line"/>
			<point x="345" y="713" type="line"/>
			<point x="347" y="730" type="line"/>
			<point x="89" y="730" type="line"/>
			<point x="87" y="713" type="line"/>
			<point x="169" y="698" type="line"/>
			<point x="142" y="30" type="line"/>
			<point x="58" y="18" type="line"/>
		</contour>
	</outline>
	<anchor name="bottom" x="356" y="-30"/>
	<anchor name="top" x="394" y="730"/>
</glyph>
<glyph name="L" format="2">
	<unicode hex="004C"/>
	<advance width="576"/>
	<outline>
		<contour>
			<point x="57" y="18" type="line"/>
			<point x="55" y="0" type="line"/>
			<point x="511" y="0" type="line"/>
			<point x="538" y="173" type="line"/>
			<point x="520" y="173" type="line"/>
			<point x="504" y="121" type="line" smooth="yes"/>
			<point x="478" y="36"/>
			<point x="445" y="23"/>
			<point x="377" y="23" type="curve" smooth="yes"/>
			<point x="227" y="23" type="line"/>
			<point x="255" y="698" type="line"/>
			<point x="362" y="712" type="line"/>
			<point x="364" y="730" type="line"/>
			<point x="88" y="730" type="line"/>
			<point x="86" y="712" type="line"/>
			<point x="168" y="698" type="line"/>
			<point x="141" y="30" type="line"/>
		</contour>
	</outline>
	<anchor name="bottom" x="301" y="-30"/>
	<anchor name="top" x="210" y="730"/>
</glyph>
<glyph name="M" format="2">
	<unicode hex="004D"/>
	<advance width="932"/>
	<outline>
		<contour>
			<point x="711" y="665" type="line"/>
			<point x="729" y="31" type="line"/>
			<point x="643" y="18" type="line"/>
			<point x="640" y="0" type="line"/>
			<point x="905" y="0" type="line"/>
			<point x="908" y="18" type="line"/>
			<point x="817" y="31" type="line"/>
			<point x="796" y="698" type="line"/>
			<point x="878" y="713" type="line"/>
			<point x="881" y="731" type="line"/>
			<point x="705" y="730" type="line"/>
			<point x="470" y="41" type="line"/>
			<point x="279" y="730" type="line"/>
			<point x="111" y="730" type="line"/>
			<point x="109" y="713" type="line"/>
			<point x="188" y="698" type="line"/>
			<point x="145" y="30" type="line"/>
			<point x="61" y="18" type="line"/>
			<point x="58" y="0" type="line"/>
			<point x="256" y="0" type="line"/>
			<point x="258" y="18" type="line"/>
			<point x="172" y="30" type="line"/>
			<point x="213" y="665" type="line"/>
			<point x="402" y="-11" type="line"/>
			<point x="477" y="0" type="line"/>
		</contour>
	</outline>
	<anchor name="bottom" x="438" y="-30"/>
</glyph>
<glyph name="N" format="2">
	<unicode hex="004E"/>
	<advance width="713"/>
	<outline>
		<contour>
			<point x="565" y="109" type="line"/>
			<point x="253" y="730" type="line"/>
			<point x="92" y="730" type="line"/>
			<point x="90" y="713" type="line"/>
			<point x="169" y="698" type="line"/>
			<point x="142" y="30" type="line"/>
			<point x="58" y="18" type="line"/>
			<point x="55" y="0" type="line"/>
			<point x="262" y="0" type="line"/>
			<point x="264" y="18" type="line"/>
			<point x="171" y="30" type="line"/>
			<point x="193" y="659" type="line"/>
			<point x="533" y="-11" type="line"/>
			<point x="587" y="0" type="line"/>
			<point x="614" y="698" type="line"/>
			<point x="701" y="713" type="line"/>
			<point x="703" y="730" type="line"/>
			<point x="505" y="730" type="line"/>
			<point x="503" y="713" type="line"/>
			<point x="585" y="698" type="line"/>
		</contour>
	</outline>
	<anchor name="bottom" x="354" y="-30"/>
	<anchor name="top" x="387" y="730"/>
</glyph>
<glyph name="P" format="2">
	<unicode hex="0050"/>
	<advance width="591"/>
	<outline>
		<contour>
			<point x="283" y="330" type="curve"/>
			<point x="281" y="311" type="line"/>
			<point x="294" y="309"/>
			<point x="307" y="308"/>
			<point x="319" y="308" type="curve" smooth="yes"/>
			<point x="467" y="308"/>
			<point x="567" y="386"/>
			<point x="567" y="524" type="curve" smooth="yes"/>
			<point x="567" y="662"/>
			<point x="481" y="730"/>
			<point x="314" y="730" type="curve" smooth="yes"/>
			<point x="88" y="730" type="line"/>
			<point x="86" y="713" type="line"/>
			<point x="168" y="698" type="line"/>
			<point x="141" y="30" type="line"/>
			<point x="57" y="18" type="line"/>
			<point x="55" y="0" type="line"/>
			<point x="340" y="0" type="line"/>
			<point x="342" y="18" type="line"/>
			<point x="227" y="30" type="line"/>
			<point x="255" y="707" type="line"/>
			<point x="306" y="707" type="line" smooth="yes"/>
			<point x="416" y="707"/>
			<point x="470" y="658"/>
			<point x="470" y="520" type="curve" smooth="yes"/>
			<point x="470" y="384"/>
			<point x="416" y="328"/>
			<point x="315" y="328" type="curve" smooth="yes"/>
			<point x="303" y="328"/>
			<point x="292" y="329"/>
		</contour>
	</outline>
</glyph>
<glyph name="Q" format="2">
	<unicode hex="0051"/>
	<advance width="714"/>
	<outline>
		<contour>
			<point x="63" y="343" type="curve" smooth="yes"/>
			<point x="63" y="150"/>
			<point x="144" y="47"/>
			<point x="279" y="12" type="curve"/>
			<point x="279" y="9" type="line"/>
			<point x="250" y="3"/>
			<point x="220" y="-9"/>
			<point x="198" y="-23" type="curve"/>
			<point x="206" y="-39" type="line"/>
			<point x="238" y="-20"/>
			<point x="283" y="-5"/>
			<point x="333" y="-5" type="curve" smooth="yes"/>
			<point x="391" y="-5"/>
			<point x="424" y="-21"/>
			<point x="506" y="-85" type="curve" smooth="yes"/>
			<point x="582" y="-145"/>
			<point x="611" y="-172"/>
			<point x="663" y="-172" type="curve" smooth="yes"/>
			<point x="701" y="-172"/>
			<point x="735" y="-148"/>
			<point x="735" y="-105" type="curve" smooth="yes"/>
			<point x="735" y="-63"/>
			<point x="702" y="-38"/>
			<point x="648" y="-38" type="curve"/>
			<point x="640" y="-68" type="line" smooth="yes"/>
			<point x="630" y="-104"/>
			<point x="587" y="-116"/>
			<point x="526" y="-69" type="curve" smooth="yes"/>
			<point x="470" y="-26"/>
			<point x="432" y="0"/>
			<point x="387" y="6" type="curve"/>
			<point x="387" y="8" type="line"/>
			<point x="575" y="25"/>
			<point x="678" y="161"/>
			<point x="678" y="398" type="curve" smooth="yes"/>
			<point x="678" y="622"/>
			<point x="567" y="745"/>
			<point x="390" y="745" type="curve" smooth="yes"/>
			<point x="190" y="745"/>
			<point x="63" y="601"/>
		</contour>
		<contour>
			<point x="158" y="363" type="curve" smooth="yes"/>
			<point x="158" y="622"/>
			<point x="239" y="728"/>
			<point x="376" y="728" type="curve" smooth="yes"/>
			<point x="506" y="728"/>
			<point x="580" y="628"/>
			<point x="580" y="384" type="curve" smooth="yes"/>
			<point x="580" y="124"/>
			<point x="491" y="22"/>
			<point x="365" y="22" type="curve" smooth="yes"/>
			<point x="232" y="22"/>
			<point x="158" y="143"/>
		</contour>
	</outline>
</glyph>
<glyph name="R" format="2">
	<unicode hex="0052"/>
	<advance width="661"/>
	<outline>
		<contour>
			<point x="289" y="380" type="curve"/>
			<point x="286" y="350" type="line"/>
			<point x="321" y="337"/>
			<point x="333" y="313"/>
			<point x="359" y="251" type="curve" smooth="yes"/>
			<point x="424" y="98" type="line" smooth="yes"/>
			<point x="457" y="20"/>
			<point x="506" y="-14"/>
			<point x="569" y="-14" type="curve" smooth="yes"/>
			<point x="606" y="-14"/>
			<point x="645" y="4"/>
			<point x="673" y="31" type="curve"/>
			<point x="664" y="44" type="line"/>
			<point x="640" y="30"/>
			<point x="625" y="26"/>
			<point x="607" y="26" type="curve" smooth="yes"/>
			<point x="571" y="26"/>
			<point x="553" y="47"/>
			<point x="516" y="123" type="curve" smooth="yes"/>
			<point x="452" y="254" type="line" smooth="yes"/>
			<point x="421" y="317"/>
			<point x="391" y="343"/>
			<point x="335" y="361" type="curve"/>
			<point x="335" y="363" type="line"/>
			<point x="455" y="377"/>
			<point x="561" y="452"/>
			<point x="561" y="564" type="curve" smooth="yes"/>
			<point x="561" y="678"/>
			<point x="485" y="730"/>
			<point x="315" y="730" type="curve" smooth="yes"/>
			<point x="90" y="730" type="line"/>
			<point x="88" y="713" type="line"/>
			<point x="170" y="698" type="line"/>
			<point x="142" y="30" type="line"/>
			<point x="58" y="18" type="line"/>
			<point x="55" y="0" type="line"/>
			<point x="321" y="0" type="line"/>
			<point x="323" y="18" type="line"/>
			<point x="230" y="30" type="line"/>
			<point x="256" y="707" type="line"/>
			<point x="307" y="707" type="line" smooth="yes"/>
			<point x="420" y="707"/>
			<point x="464" y="672"/>
			<point x="464" y="560" type="curve" smooth="yes"/>
			<point x="464" y="448"/>
			<point x="397" y="383"/>
		</contour>
	</outline>
	<anchor name="bottom" x="348" y="-30"/>
	<anchor name="top" x="323" y="730"/>
</glyph>
<glyph name="S" format="2">
	<unicode hex="0053"/>
	<advance width="524"/>
	<outline>
		<contour>
			<point x="481" y="187" type="curve" smooth="yes"/>
			<point x="481" y="288"/>
			<point x="437" y="341"/>
			<point x="312" y="407" type="curve" smooth="yes"/>
			<point x="185" y="474"/>
			<point x="149" y="522"/>
			<point x="149" y="590" type="curve" smooth="yes"/>
			<point x="149" y="670"/>
			<point x="206" y="722"/>
			<point x="300" y="722" type="curve" smooth="yes"/>
			<point x="393" y="722"/>
			<point x="412" y="681"/>
			<point x="380" y="619" type="curve" smooth="yes"/>
			<point x="361" y="582" type="line"/>
			<point x="375" y="568"/>
			<point x="402" y="558"/>
			<point x="426" y="558" type="curve" smooth="yes"/>
			<point x="462" y="558"/>
			<point x="486" y="584"/>
			<point x="486" y="622" type="curve" smooth="yes"/>
			<point x="486" y="697"/>
			<point x="407" y="745"/>
			<point x="305" y="745" type="curve" smooth="yes"/>
			<point x="173" y="745"/>
			<point x="79" y="676"/>
			<point x="79" y="551" type="curve" smooth="yes"/>
			<point x="79" y="466"/>
			<point x="125" y="409"/>
			<point x="261" y="337" type="curve" smooth="yes"/>
			<point x="377" y="276"/>
			<point x="410" y="232"/>
			<point x="410" y="159" type="curve" smooth="yes"/>
			<point x="410" y="66"/>
			<point x="343" y="9"/>
			<point x="248" y="9" type="curve" smooth="yes"/>
			<point x="160" y="9"/>
			<point x="124" y="51"/>
			<point x="159" y="123" type="curve" smooth="yes"/>
			<point x="175" y="156" type="line"/>
			<point x="159" y="172"/>
			<point x="133" y="182"/>
			<point x="108" y="182" type="curve" smooth="yes"/>
			<point x="71" y="182"/>
			<point x="45" y="152"/>
			<point x="45" y="110" type="curve" smooth="yes"/>
			<point x="45" y="35"/>
			<point x="130" y="-14"/>
			<point x="241" y="-14" type="curve" smooth="yes"/>
			<point x="382" y="-14"/>
			<point x="481" y="73"/>
		</contour>
	</outline>
	<anchor name="bottom" x="248" y="-32"/>
	<anchor name="top" x="298" y="730"/>
</glyph>
<glyph name="T" format="2">
	<unicode hex="0054"/>
	<advance width="622"/>
	<outline>
		<contour>
			<point x="161" y="18" type="line"/>
			<point x="159" y="0" type="line"/>
			<point x="457" y="0" type="line"/>
			<point x="459" y="18" type="line"/>
			<point x="357" y="30" type="line"/>
			<point x="382" y="707" type="line"/>
			<point x="462" y="707" type="line" smooth="yes"/>
			<point x="523" y="707"/>
			<point x="547" y="692"/>
			<point x="569" y="615" type="curve" smooth="yes"/>
			<point x="588" y="548" type="line"/>
			<point x="610" y="553" type="line"/>
			<point x="596" y="730" type="line"/>
			<point x="82" y="730" type="line"/>
			<point x="58" y="554" type="line"/>
			<point x="80" y="549" type="line"/>
			<point x="103" y="618" type="line" smooth="yes"/>
			<point x="131" y="702"/>
			<point x="158" y="707"/>
			<point x="209" y="707" type="curve" smooth="yes"/>
			<point x="297" y="707" type="line"/>
			<point x="269" y="30" type="line"/>
		</contour>
	</outline>
	<anchor name="bottom" x="308" y="-30"/>
	<anchor name="top" x="339" y="730"/>
</glyph>
<glyph name="U" format="2">
	<unicode hex="0055"/>
	<advance width="757"/>
	<outline>
		<contour>
			<point x="615" y="31" type="line"/>
			<point x="656" y="695" type="line"/>
			<point x="729" y="712" type="line"/>
			<point x="731" y="730" type="line"/>
			<point x="499" y="730" type="line"/>
			<point x="497" y="712" type="line"/>
			<point x="580" y="695" type="line"/>
			<point x="562" y="510" type="line" smooth="yes"/>
			<point x="539" y="274"/>
			<point x="462" y="28"/>
			<point x="316" y="28" type="curve" smooth="yes"/>
			<point x="237" y="28"/>
			<point x="208" y="73"/>
			<point x="217" y="230" type="curve" smooth="yes"/>
			<point x="243" y="695" type="line"/>
			<point x="328" y="712" type="line"/>
			<point x="330" y="730" type="line"/>
			<point x="82" y="730" type="line"/>
			<point x="80" y="712" type="line"/>
			<point x="156" y="697" type="line"/>
			<point x="129" y="222" type="line" smooth="yes"/>
			<point x="120" y="67"/>
			<point x="181" y="-14"/>
			<point x="299" y="-14" type="curve" smooth="yes"/>
			<point x="428" y="-14"/>
			<point x="505" y="99"/>
			<point x="564" y="365" type="curve"/>
			<point x="566" y="365" type="line"/>
			<point x="534" y="12" type="line"/>
			<point x="541" y="0" type="line"/>
			<point x="699" y="0" type="line"/>
			<point x="701" y="18" type="line"/>
		</contour>
	</outline>
	<anchor name="bottom" x="372" y="-30"/>
	<anchor name="top" x="412" y="730"/>
</glyph>
<glyph name="V" format="2">
	<unicode hex="0056"/>
	<advance width="673"/>
	<outline>
		<contour>
			<point x="364" y="48" type="line"/>
			<point x="200" y="699" type="line"/>
			<point x="287" y="711" type="line"/>
			<point x="290" y="730" type="line"/>
			<point x="34" y="730" type="line"/>
			<point x="31" y="711" type="line"/>
			<point x="108" y="700" type="line"/>
			<point x="298" y="-11" type="line"/>
			<point x="372" y="0" type="line"/>
			<point x="628" y="700" type="line"/>
			<point x="707" y="711" type="line"/>
			<point x="710" y="730" type="line"/>
			<point x="507" y="730" type="line"/>
			<point x="504" y="711" type="line"/>
			<point x="600" y="700" type="line"/>
			<point x="367" y="48" type="line"/>
		</contour>
	</outline>
	<anchor name="top" x="395" y="730"/>
</glyph>
<glyph name="W" format="2">
	<unicode hex="0057"/>
	<advance width="992"/>
	<outline>
		<contour>
			<point x="735" y="46" type="line"/>
			<point x="546" y="739" type="line"/>
			<point x="464" y="715" type="line"/>
			<point x="529" y="481" type="line"/>
			<point x="359" y="46" type="line"/>
			<point x="356" y="46" type="line"/>
			<point x="202" y="699" type="line"/>
			<point x="289" y="711" type="line"/>
			<point x="292" y="730" type="line"/>
			<point x="34" y="730" type="line"/>
			<point x="31" y="711" type="line"/>
			<point x="108" y="700" type="line"/>
			<point x="288" y="-11" type="line"/>
			<point x="364" y="0" type="line"/>
			<point x="540" y="443" type="line"/>
			<point x="667" y="-11" type="line"/>
			<point x="743" y="0" type="line"/>
			<point x="947" y="700" type="line"/>
			<point x="1026" y="711" type="line"/>
			<point x="1029" y="730" type="line"/>
			<point x="826" y="730" type="line"/>
			<point x="823" y="711" type="line"/>
			<point x="919" y="700" type="line"/>
			<point x="738" y="46" type="line"/>
		</contour>
	</outline>
	<anchor name="top" x="531" y="730"/>
</glyph>
<glyph name="X" format="2">
	<unicode hex="0058"/>
	<advance width="683"/>
	<outline>
		<contour>
			<point x="6" y="0" type="line"/>
			<point x="209" y="0" type="line"/>
			<point x="212" y="19" type="line"/>
			<point x="116" y="30" type="line"/>
			<point x="339" y="335" type="line"/>
			<point x="516" y="31" type="line"/>
			<point x="429" y="19" type="line"/>
			<point x="426" y="0" type="line"/>
			<point x="682" y="0" type="line"/>
			<point x="685" y="19" type="line"/>
			<point x="608" y="30" type="line"/>
			<point x="391" y="390" type="line"/>
			<point x="617" y="700" type="line"/>
			<point x="696" y="711" type="line"/>
			<point x="699" y="730" type="line"/>
			<point x="496" y="730" type="line"/>
			<point x="493" y="711" type="line"/>
			<point x="589" y="700" type="line"/>
			<point x="377" y="410" type="line"/>
			<point x="213" y="699" type="line"/>
			<point x="300" y="711" type="line"/>
			<point x="303" y="730" type="line"/>
			<point x="47" y="730" type="line"/>
			<point x="44" y="711" type="line"/>
			<point x="121" y="700" type="line"/>
			<point x="323" y="355" type="line"/>
			<point x="88" y="30" type="line"/>
			<point x="9" y="19" type="line"/>
		</contour>
	</outline>
</glyph>
<glyph name="bracketleft" format="2">
	<unicode hex="005B"/>
	<advance width="333"/>
	<outline>
		<contour>
			<point x="181" y="-191" type="line"/>
			<point x="216" y="791" type="line"/>
			<point x="315" y="800" type="line"/>
			<point x="316" y="812" type="line"/>
			<point x="135" y="812" type="line"/>
			<point x="97" y="-212" type="line"/>
			<point x="281" y="-212" type="line"/>
			<point x="282" y="-200" type="line"/>
		</contour>
	</outline>
</glyph>
<glyph name="asciicircum" format="2">
	<unicode hex="005E"/>
	<advance width="582"/>
	<outline>
		<contour>
			<point x="540" y="374" type="line"/>
			<point x="327" y="712" type="line"/>
			<point x="303" y="712" type="line"/>
			<point x="70" y="374" type="line"/>
			<point x="89" y="362" type="line"/>
			<point x="315" y="685" type="line"/>
			<point x="521" y="362" type="line"/>
		</contour>
	</outline>
</glyph>
<glyph name="underscore" format="2">
	<unicode hex="005F"/>
	<advance width="500"/>
	<outline>
		<contour>
			<point x="11" y="-103" type="line"/>
			<point x="481" y="-103" type="line"/>
			<point x="483" y="-40" type="line"/>
			<point x="13" y="-40" type="line"/>
		</contour>
	</outline>
</glyph>
<glyph name="grave" format="2">
	<unicode hex="0060"/>
	<advance width="500"/>
	<outline>
		<contour>
			<point x="341" y="596" type="line"/>
			<point x="221" y="774" type="line"/>
			<point x="182" y="776"/>
			<point x="158" y="754"/>
			<point x="158" y="733" type="curve" smooth="yes"/>
			<point x="158" y="717"/>
			<point x="167" y="702"/>
			<point x="187" y="688" type="curve" smooth="yes"/>
			<point x="331" y="585" type="line"/>
		</contour>
	</outline>
	<anchor name="_top" x="268" y="550"/>
	<guideline x="307" y="580" angle="0"/>
</glyph>
<glyph name="a" format="2">
	<unicode hex="0061"/>
	<advance width="572"/>
	<outline>
		<contour>
			<point x="465" y="58" type="curve" smooth="yes"/>
			<point x="480" y="513" type="line"/>
			<point x="471" y="522" type="line"/>
			<point x="406" y="498" type="line"/>
			<point x="382" y="510"/>
			<point x="332" y="527"/>
			<point x="282" y="527" type="curve" smooth="yes"/>
			<point x="141" y="527"/>
			<point x="47" y="393"/>
			<point x="47" y="206" type="curve" smooth="yes"/>
			<point x="47" y="87"/>
			<point x="91" y="-14"/>
			<point x="198" y="-14" type="curve" smooth="yes"/>
			<point x="298" y="-14"/>
			<point x="335" y="71"/>
			<point x="361" y="178" type="curve" smooth="yes"/>
			<point x="397" y="325" type="line"/>
			<point x="404" y="324" type="line"/>
			<point x="378" y="86" type="line" smooth="yes"/>
			<point x="372" y="29"/>
			<point x="397" y="-14"/>
			<point x="456" y="-14" type="curve" smooth="yes"/>
			<point x="497" y="-14"/>
			<point x="549" y="16"/>
			<point x="571" y="37" type="curve"/>
			<point x="562" y="49" type="line"/>
			<point x="542" y="34"/>
			<point x="515" y="18"/>
			<point x="491" y="18" type="curve" smooth="yes"/>
			<point x="469" y="18"/>
			<point x="464" y="28"/>
		</contour>
		<contour>
			<point x="224" y="44" type="curve" smooth="yes"/>
			<point x="163" y="44"/>
			<point x="137" y="97"/>
			<point x="137" y="211" type="curve" smooth="yes"/>
			<point x="137" y="397"/>
			<point x="196" y="509"/>
			<point x="290" y="509" type="curve" smooth="yes"/>
			<point x="332" y="509"/>
			<point x="369" y="497"/>
			<point x="411" y="474" type="curve"/>
			<point x="363" y="274" type="line" smooth="yes"/>
			<point x="324" y="113"/>
			<point x="299" y="44"/>
		</contour>
	</outline>
	<anchor name="bottom" x="274" y="-30"/>
	<anchor name="top" x="295" y="550"/>
</glyph>
<glyph name="c" format="2">
	<unicode hex="0063"/>
	<advance width="470"/>
	<outline>
		<contour>
			<point x="287" y="527" type="curve" smooth="yes"/>
			<point x="136" y="527"/>
			<point x="47" y="397"/>
			<point x="47" y="225" type="curve" smooth="yes"/>
			<point x="47" y="88"/>
			<point x="116" y="-14"/>
			<point x="243" y="-14" type="curve" smooth="yes"/>
			<point x="343" y="-14"/>
			<point x="404" y="48"/>
			<point x="429" y="80" type="curve"/>
			<point x="419" y="91" type="line"/>
			<point x="371" y="40"/>
			<point x="326" y="12"/>
			<point x="263" y="12" type="curve" smooth="yes"/>
			<point x="177" y="12"/>
			<point x="137" y="88"/>
			<point x="137" y="228" type="curve" smooth="yes"/>
			<point x="137" y="417"/>
			<point x="190" y="509"/>
			<point x="281" y="509" type="curve" smooth="yes"/>
			<point x="336" y="509"/>
			<point x="380" y="458"/>
			<point x="344" y="406" type="curve" smooth="yes"/>
			<point x="325" y="379" type="line"/>
			<point x="335" y="359"/>
			<point x="358" y="344"/>
			<point x="382" y="344" type="curve" smooth="yes"/>
			<point x="415" y="344"/>
			<point x="438" y="370"/>
			<point x="438" y="411" type="curve" smooth="yes"/>
			<point x="438" y="481"/>
			<point x="374" y="527"/>
		</contour>
	</outline>
	<anchor name="bottom" x="245" y="-30"/>
	<anchor name="top" x="273" y="550"/>
</glyph>
<glyph name="g" format="2">
	<unicode hex="0067"/>
	<advance width="549"/>
	<outline>
		<contour>
			<point x="415" y="360" type="line"/>
			<point x="378" y="76" type="line" smooth="yes"/>
			<point x="355" y="-103"/>
			<point x="322" y="-209"/>
			<point x="208" y="-209" type="curve" smooth="yes"/>
			<point x="155" y="-209"/>
			<point x="130" y="-185"/>
			<point x="150" y="-122" type="curve" smooth="yes"/>
			<point x="158" y="-97" type="line"/>
			<point x="146" y="-81"/>
			<point x="131" y="-71"/>
			<point x="110" y="-71" type="curve" smooth="yes"/>
			<point x="75" y="-71"/>
			<point x="50" y="-99"/>
			<point x="50" y="-140" type="curve" smooth="yes"/>
			<point x="50" y="-206"/>
			<point x="128" y="-230"/>
			<point x="198" y="-230" type="curve" smooth="yes"/>
			<point x="396" y="-230"/>
			<point x="454" y="-77"/>
			<point x="460" y="81" type="curve" smooth="yes"/>
			<point x="476" y="512" type="line"/>
			<point x="446" y="522" type="line"/>
			<point x="408" y="497" type="line"/>
			<point x="369" y="515"/>
			<point x="324" y="527"/>
			<point x="282" y="527" type="curve" smooth="yes"/>
			<point x="141" y="527"/>
			<point x="47" y="393"/>
			<point x="47" y="216" type="curve" smooth="yes"/>
			<point x="47" y="87"/>
			<point x="90" y="-14"/>
			<point x="197" y="-14" type="curve" smooth="yes"/>
			<point x="290" y="-14"/>
			<point x="331" y="58"/>
			<point x="364" y="189" type="curve" smooth="yes"/>
			<point x="408" y="361" type="line"/>
		</contour>
		<contour>
			<point x="226" y="47" type="curve" smooth="yes"/>
			<point x="160" y="47"/>
			<point x="135" y="103"/>
			<point x="138" y="221" type="curve" smooth="yes"/>
			<point x="143" y="409"/>
			<point x="199" y="509"/>
			<point x="291" y="509" type="curve" smooth="yes"/>
			<point x="324" y="509"/>
			<point x="370" y="497"/>
			<point x="411" y="474" type="curve"/>
			<point x="372" y="306" type="line" smooth="yes"/>
			<point x="326" y="108"/>
			<point x="293" y="47"/>
		</contour>
	</outline>
	<anchor name="top" x="284" y="550"/>
</glyph>
<glyph name="h" format="2">
	<unicode hex="0068"/>
	<advance width="589"/>
	<outline>
		<contour>
			<point x="572" y="38" type="curve"/>
			<point x="564" y="49" type="line"/>
			<point x="545" y="32"/>
			<point x="514" y="17"/>
			<point x="494" y="17" type="curve" smooth="yes"/>
			<point x="473" y="17"/>
			<point x="464" y="29"/>
			<point x="467" y="60" type="curve" smooth="yes"/>
			<point x="493" y="354" type="line" smooth="yes"/>
			<point x="503" y="470"/>
			<point x="479" y="527"/>
			<point x="390" y="527" type="curve" smooth="yes"/>
			<point x="314" y="527"/>
			<point x="282" y="491"/>
			<point x="247" y="387" type="curve" smooth="yes"/>
			<point x="168" y="150" type="line"/>
			<point x="163" y="151" type="line"/>
			<point x="180" y="409" type="line"/>
			<point x="194" y="758" type="line"/>
			<point x="185" y="767" type="line"/>
			<point x="22" y="767" type="line"/>
			<point x="20" y="749" type="line"/>
			<point x="111" y="728" type="line"/>
			<point x="83" y="0" type="line"/>
			<point x="143" y="0" type="line"/>
			<point x="271" y="387" type="line" smooth="yes"/>
			<point x="295" y="461"/>
			<point x="315" y="487"/>
			<point x="360" y="487" type="curve" smooth="yes"/>
			<point x="404" y="487"/>
			<point x="416" y="465"/>
			<point x="410" y="394" type="curve" smooth="yes"/>
			<point x="382" y="72" type="line" smooth="yes"/>
			<point x="378" y="24"/>
			<point x="395" y="-13"/>
			<point x="455" y="-13" type="curve" smooth="yes"/>
			<point x="496" y="-13"/>
			<point x="549" y="17"/>
		</contour>
	</outline>
	<anchor name="bottom" x="277" y="-30"/>
	<anchor name="top" x="110" y="761"/>
</glyph>
<glyph name="l" format="2">
	<unicode hex="006C"/>
	<advance width="281"/>
	<outline>
		<contour>
			<point x="111" y="728" type="line"/>
			<point x="80" y="77" type="line" smooth="yes"/>
			<point x="77" y="23"/>
			<point x="94" y="-14"/>
			<point x="157" y="-14" type="curve" smooth="yes"/>
			<point x="215" y="-14"/>
			<point x="256" y="22"/>
			<point x="277" y="43" type="curve"/>
			<point x="267" y="55" type="line"/>
			<point x="234" y="26"/>
			<point x="213" y="16"/>
			<point x="191" y="16" type="curve" smooth="yes"/>
			<point x="172" y="16"/>
			<point x="165" y="28"/>
			<point x="166" y="58" type="curve" smooth="yes"/>
			<point x="194" y="758" type="line"/>
			<point x="185" y="767" type="line"/>
			<point x="22" y="767" type="line"/>
			<point x="20" y="749" type="line"/>
		</contour>
	</outline>
	<anchor name="bottom" x="155" y="-30"/>
	<anchor name="top" x="110" y="761"/>
</glyph>
<glyph name="m" format="2">
	<unicode hex="006D"/>
	<advance width="868"/>
	<outline>
		<contour>
			<point x="403" y="386" type="curve" smooth="yes"/>
			<point x="383" y="0" type="line"/>
			<point x="435" y="0" type="line"/>
			<point x="553" y="360" type="line" smooth="yes"/>
			<point x="586" y="461"/>
			<point x="615" y="481"/>
			<point x="648" y="481" type="curve" smooth="yes"/>
			<point x="681" y="481"/>
			<point x="698" y="459"/>
			<point x="692" y="388" type="curve" smooth="yes"/>
			<point x="665" y="69" type="line" smooth="yes"/>
			<point x="661" y="21"/>
			<point x="679" y="-14"/>
			<point x="739" y="-14" type="curve" smooth="yes"/>
			<point x="780" y="-14"/>
			<point x="828" y="14"/>
			<point x="851" y="35" type="curve"/>
			<point x="843" y="46" type="line"/>
			<point x="817" y="25"/>
			<point x="795" y="17"/>
			<point x="776" y="17" type="curve" smooth="yes"/>
			<point x="754" y="17"/>
			<point x="748" y="27"/>
			<point x="752" y="76" type="curve" smooth="yes"/>
			<point x="776" y="354" type="line" smooth="yes"/>
			<point x="785" y="463"/>
			<point x="763" y="527"/>
			<point x="675" y="527" type="curve" smooth="yes"/>
			<point x="600" y="527"/>
			<point x="568" y="480"/>
			<point x="533" y="373" type="curve" smooth="yes"/>
			<point x="460" y="151" type="line"/>
			<point x="456" y="152" type="line"/>
			<point x="478" y="363" type="line" smooth="yes"/>
			<point x="489" y="467"/>
			<point x="473" y="527"/>
			<point x="390" y="527" type="curve" smooth="yes"/>
			<point x="312" y="527"/>
			<point x="284" y="480"/>
			<point x="248" y="373" type="curve" smooth="yes"/>
			<point x="174" y="151" type="line"/>
			<point x="170" y="152" type="line"/>
			<point x="197" y="426" type="line" smooth="yes"/>
			<point x="204" y="493"/>
			<point x="183" y="527"/>
			<point x="124" y="527" type="curve" smooth="yes"/>
			<point x="87" y="527"/>
			<point x="39" y="506"/>
			<point x="18" y="494" type="curve"/>
			<point x="24" y="481" type="line"/>
			<point x="57" y="495"/>
			<point x="75" y="499"/>
			<point x="86" y="499" type="curve" smooth="yes"/>
			<point x="106" y="499"/>
			<point x="114" y="487"/>
			<point x="113" y="459" type="curve" smooth="yes"/>
			<point x="97" y="0" type="line"/>
			<point x="149" y="0" type="line"/>
			<point x="267" y="362" type="line" smooth="yes"/>
			<point x="296" y="450"/>
			<point x="312" y="481"/>
			<point x="359" y="481" type="curve" smooth="yes"/>
			<point x="402" y="481"/>
			<point x="406" y="451"/>
		</contour>
	</outline>
	<anchor name="bottom" x="410" y="-30"/>
</glyph>
<glyph name="n" format="2">
	<unicode hex="006E"/>
	<advance width="589"/>
	<outline>
		<contour>
			<point x="572" y="35" type="curve"/>
			<point x="564" y="46" type="line"/>
			<point x="545" y="31"/>
			<point x="521" y="17"/>
			<point x="497" y="17" type="curve" smooth="yes"/>
			<point x="474" y="17"/>
			<point x="470" y="30"/>
			<point x="472" y="60" type="curve" smooth="yes"/>
			<point x="496" y="354" type="line" smooth="yes"/>
			<point x="505" y="461"/>
			<point x="487" y="527"/>
			<point x="393" y="527" type="curve" smooth="yes"/>
			<point x="317" y="527"/>
			<point x="283" y="482"/>
			<point x="248" y="375" type="curve" smooth="yes"/>
			<point x="174" y="151" type="line"/>
			<point x="170" y="152" type="line"/>
			<point x="195" y="425" type="line" smooth="yes"/>
			<point x="201" y="492"/>
			<point x="182" y="527"/>
			<point x="125" y="527" type="curve" smooth="yes"/>
			<point x="85" y="527"/>
			<point x="39" y="506"/>
			<point x="18" y="494" type="curve"/>
			<point x="24" y="481" type="line"/>
			<point x="52" y="493"/>
			<point x="73" y="499"/>
			<point x="86" y="499" type="curve" smooth="yes"/>
			<point x="107" y="499"/>
			<point x="114" y="488"/>
			<point x="113" y="459" type="curve" smooth="yes"/>
			<point x="97" y="0" type="line"/>
			<point x="149" y="0" type="line"/>
			<point x="268" y="364" type="line" smooth="yes"/>
			<point x="297" y="454"/>
			<point x="314" y="481"/>
			<point x="365" y="481" type="curve" smooth="yes"/>
			<point x="407" y="481"/>
			<point x="419" y="459"/>
			<point x="413" y="388" type="curve" smooth="yes"/>
			<point x="386" y="69" type="line" smooth="yes"/>
			<point x="381" y="14"/>
			<point x="407" y="-14"/>
			<point x="459" y="-14" type="curve" smooth="yes"/>
			<point x="500" y="-14"/>
			<point x="549" y="14"/>
		</contour>
	</outline>
	<anchor name="bottom" x="278" y="-30"/>
	<anchor name="top" x="302" y="550"/>
</glyph>
<glyph name="o" format="2">
	<unicode hex="006F"/>
	<advance width="539"/>
	<outline>
		<contour>
			<point x="254" y="-14" type="curve" smooth="yes"/>
			<point x="424" y="-14"/>
			<point x="491" y="127"/>
			<point x="491" y="279" type="curve" smooth="yes"/>
			<point x="491" y="428"/>
			<point x="415" y="527"/>
			<point x="283" y="527" type="curve" smooth="yes"/>
			<point x="112" y="527"/>
			<point x="48" y="390"/>
			<point x="48" y="236" type="curve" smooth="yes"/>
			<point x="48" y="89"/>
			<point x="122" y="-14"/>
		</contour>
		<contour>
			<point x="260" y="5" type="curve" smooth="yes"/>
			<point x="179" y="5"/>
			<point x="143" y="85"/>
			<point x="143" y="236" type="curve" smooth="yes"/>
			<point x="143" y="397"/>
			<point x="172" y="509"/>
			<point x="279" y="509" type="curve" smooth="yes"/>
			<point x="370" y="509"/>
			<point x="397" y="429"/>
			<point x="397" y="280" type="curve" smooth="yes"/>
			<point x="397" y="119"/>
			<point x="367" y="5"/>
		</contour>
	</outline>
	<anchor name="bottom" x="261" y="-30"/>
	<anchor name="top" x="277" y="550"/>
</glyph>
<glyph name="q" format="2">
	<unicode hex="0071"/>
	<advance width="541"/>
	<outline>
		<contour>
			<point x="447" y="-155" type="curve" smooth="yes"/>
			<point x="476" y="512" type="line"/>
			<point x="446" y="522" type="line"/>
			<point x="408" y="497" type="line"/>
			<point x="369" y="515"/>
			<point x="322" y="527"/>
			<point x="282" y="527" type="curve" smooth="yes"/>
			<point x="141" y="527"/>
			<point x="47" y="393"/>
			<point x="47" y="216" type="curve" smooth="yes"/>
			<point x="47" y="87"/>
			<point x="91" y="-14"/>
			<point x="198" y="-14" type="curve" smooth="yes"/>
			<point x="296" y="-14"/>
			<point x="333" y="66"/>
			<point x="364" y="189" type="curve" smooth="yes"/>
			<point x="402" y="339" type="line"/>
			<point x="408" y="338" type="line"/>
			<point x="380" y="87" type="line"/>
			<point x="364" y="-127" type="line" smooth="yes"/>
			<point x="359" y="-196"/>
			<point x="378" y="-227"/>
			<point x="438" y="-227" type="curve" smooth="yes"/>
			<point x="477" y="-227"/>
			<point x="526" y="-201"/>
			<point x="548" y="-180" type="curve"/>
			<point x="539" y="-168" type="line"/>
			<point x="512" y="-187"/>
			<point x="490" y="-195"/>
			<point x="473" y="-195" type="curve" smooth="yes"/>
			<point x="451" y="-195"/>
			<point x="446" y="-185"/>
		</contour>
		<contour>
			<point x="224" y="47" type="curve" smooth="yes"/>
			<point x="166" y="47"/>
			<point x="137" y="93"/>
			<point x="137" y="221" type="curve" smooth="yes"/>
			<point x="137" y="397"/>
			<point x="197" y="509"/>
			<point x="289" y="509" type="curve" smooth="yes"/>
			<point x="328" y="509"/>
			<point x="370" y="497"/>
			<point x="411" y="474" type="curve"/>
			<point x="373" y="316" type="line" smooth="yes"/>
			<point x="320" y="97"/>
			<point x="295" y="47"/>
		</contour>
	</outline>
</glyph>
<glyph name="t" format="2">
	<unicode hex="0074"/>
	<advance width="386"/>
	<outline>
		<contour>
			<point x="41" y="507" type="line"/>
			<point x="38" y="488" type="line"/>
			<point x="115" y="488" type="line"/>
			<point x="97" y="133" type="line" smooth="yes"/>
			<point x="92" y="34"/>
			<point x="129" y="-14"/>
			<point x="225" y="-14" type="curve" smooth="yes"/>
			<point x="292" y="-14"/>
			<point x="341" y="18"/>
			<point x="374" y="62" type="curve"/>
			<point x="362" y="73" type="line"/>
			<point x="327" y="35"/>
			<point x="295" y="13"/>
			<point x="246" y="13" type="curve" smooth="yes"/>
			<point x="200" y="13"/>
			<point x="180" y="41"/>
			<point x="183" y="107" type="curve" smooth="yes"/>
			<point x="202" y="488" type="line"/>
			<point x="353" y="488" type="line"/>
			<point x="354" y="513" type="line"/>
			<point x="202" y="513" type="line"/>
			<point x="210" y="653" type="line"/>
			<point x="165" y="653" type="line"/>
			<point x="126" y="515" type="line"/>
		</contour>
	</outline>
	<anchor name="bottom" x="220" y="-30"/>
</glyph>
<glyph name="u" format="2">
	<unicode hex="0075"/>
	<advance width="592"/>
	<outline>
		<contour>
			<point x="20" y="478" type="curve"/>
			<point x="28" y="467" type="line"/>
			<point x="45" y="482"/>
			<point x="73" y="496"/>
			<point x="96" y="496" type="curve" smooth="yes"/>
			<point x="117" y="496"/>
			<point x="123" y="483"/>
			<point x="120" y="450" type="curve" smooth="yes"/>
			<point x="96" y="162" type="line" smooth="yes"/>
			<point x="85" y="35"/>
			<point x="117" y="-14"/>
			<point x="194" y="-14" type="curve" smooth="yes"/>
			<point x="268" y="-14"/>
			<point x="309" y="30"/>
			<point x="345" y="140" type="curve" smooth="yes"/>
			<point x="418" y="362" type="line"/>
			<point x="423" y="361" type="line"/>
			<point x="397" y="88" type="line" smooth="yes"/>
			<point x="390" y="18"/>
			<point x="412" y="-14"/>
			<point x="468" y="-14" type="curve" smooth="yes"/>
			<point x="499" y="-14"/>
			<point x="544" y="1"/>
			<point x="574" y="19" type="curve"/>
			<point x="568" y="32" type="line"/>
			<point x="543" y="21"/>
			<point x="521" y="14"/>
			<point x="505" y="14" type="curve" smooth="yes"/>
			<point x="482" y="14"/>
			<point x="478" y="28"/>
			<point x="479" y="63" type="curve" smooth="yes"/>
			<point x="495" y="513" type="line"/>
			<point x="443" y="513" type="line"/>
			<point x="322" y="147" type="line" smooth="yes"/>
			<point x="297" y="70"/>
			<point x="267" y="32"/>
			<point x="223" y="32" type="curve" smooth="yes"/>
			<point x="173" y="32"/>
			<point x="174" y="74"/>
			<point x="181" y="156" type="curve" smooth="yes"/>
			<point x="206" y="444" type="line" smooth="yes"/>
			<point x="211" y="499"/>
			<point x="186" y="527"/>
			<point x="137" y="527" type="curve" smooth="yes"/>
			<point x="98" y="527"/>
			<point x="49" y="504"/>
		</contour>
	</outline>
	<anchor name="bottom" x="295" y="-30"/>
	<anchor name="top" x="297" y="550"/>
</glyph>
<glyph name="v" format="2">
	<unicode hex="0076"/>
	<advance width="532"/>
	<outline>
		<contour>
			<point x="406" y="527" type="curve" smooth="yes"/>
			<point x="362" y="527"/>
			<point x="344" y="493"/>
			<point x="347" y="452" type="curve"/>
			<point x="400" y="438" type="line" smooth="yes"/>
			<point x="433" y="429"/>
			<point x="443" y="424"/>
			<point x="443" y="360" type="curve" smooth="yes"/>
			<point x="443" y="183"/>
			<point x="367" y="9"/>
			<point x="246" y="9" type="curve" smooth="yes"/>
			<point x="184" y="9"/>
			<point x="176" y="50"/>
			<point x="180" y="114" type="curve" smooth="yes"/>
			<point x="199" y="443" type="line" smooth="yes"/>
			<point x="202" y="492"/>
			<point x="181" y="527"/>
			<point x="124" y="527" type="curve" smooth="yes"/>
			<point x="85" y="527"/>
			<point x="34" y="507"/>
			<point x="8" y="494" type="curve"/>
			<point x="14" y="480" type="line"/>
			<point x="44" y="491" type="line" smooth="yes"/>
			<point x="77" y="503"/>
			<point x="115" y="507"/>
			<point x="113" y="464" type="curve" smooth="yes"/>
			<point x="98" y="149" type="line" smooth="yes"/>
			<point x="91" y="4"/>
			<point x="171" y="-14"/>
			<point x="235" y="-14" type="curve" smooth="yes"/>
			<point x="428" y="-14"/>
			<point x="472" y="271"/>
			<point x="472" y="430" type="curve" smooth="yes"/>
			<point x="472" y="488"/>
			<point x="454" y="527"/>
		</contour>
	</outline>
	<anchor name="top" x="286" y="550"/>
</glyph>
<glyph name="asciitilde" format="2">
	<unicode hex="007E"/>
	<advance width="582"/>
	<outline>
		<contour>
			<point x="454" y="261" type="curve" smooth="yes"/>
			<point x="493" y="261"/>
			<point x="510" y="279"/>
			<point x="540" y="340" type="curve"/>
			<point x="514" y="350" type="line"/>
			<point x="491" y="308"/>
			<point x="482" y="292"/>
			<point x="457" y="292" type="curve" smooth="yes"/>
			<point x="394" y="292"/>
			<point x="246" y="338"/>
			<point x="190" y="338" type="curve" smooth="yes"/>
			<point x="151" y="338"/>
			<point x="134" y="320"/>
			<point x="104" y="259" type="curve"/>
			<point x="130" y="249" type="line"/>
			<point x="153" y="291"/>
			<point x="162" y="307"/>
			<point x="192" y="307" type="curve" smooth="yes"/>
			<point x="250" y="307"/>
			<point x="398" y="261"/>
		</contour>
	</outline>
</glyph>
<glyph name="sterling" format="2">
	<unicode hex="00A3"/>
	<advance width="610"/>
	<outline>
		<contour>
			<point x="81" y="-4" type="curve"/>
			<point x="94" y="-14" type="line"/>
			<point x="126" y="28"/>
			<point x="172" y="64"/>
			<point x="223" y="64" type="curve" smooth="yes"/>
			<point x="262" y="64"/>
			<point x="303" y="47"/>
			<point x="335" y="28" type="curve" smooth="yes"/>
			<point x="384" y="-1"/>
			<point x="417" y="-14"/>
			<point x="460" y="-14" type="curve" smooth="yes"/>
			<point x="538" y="-14"/>
			<point x="576" y="40"/>
			<point x="576" y="93" type="curve" smooth="yes"/>
			<point x="576" y="145"/>
			<point x="536" y="195"/>
			<point x="455" y="214" type="curve"/>
			<point x="450" y="200" type="line"/>
			<point x="493" y="189"/>
			<point x="535" y="159"/>
			<point x="535" y="118" type="curve" smooth="yes"/>
			<point x="535" y="62"/>
			<point x="491" y="40"/>
			<point x="445" y="40" type="curve" smooth="yes"/>
			<point x="418" y="40"/>
			<point x="375" y="52"/>
			<point x="346" y="64" type="curve" smooth="yes"/>
			<point x="327" y="72"/>
			<point x="293" y="84"/>
			<point x="272" y="88" type="curve"/>
			<point x="222" y="202"/>
			<point x="204" y="293"/>
			<point x="198" y="353" type="curve"/>
			<point x="429" y="353" type="line"/>
			<point x="430" y="375" type="line"/>
			<point x="195" y="375" type="line"/>
			<point x="189" y="410"/>
			<point x="189" y="440"/>
			<point x="189" y="496" type="curve" smooth="yes"/>
			<point x="189" y="645"/>
			<point x="244" y="721"/>
			<point x="344" y="721" type="curve" smooth="yes"/>
			<point x="422" y="721"/>
			<point x="455" y="678"/>
			<point x="422" y="613" type="curve" smooth="yes"/>
			<point x="403" y="576" type="line"/>
			<point x="414" y="565"/>
			<point x="439" y="552"/>
			<point x="468" y="552" type="curve" smooth="yes"/>
			<point x="503" y="552"/>
			<point x="528" y="577"/>
			<point x="528" y="616" type="curve" smooth="yes"/>
			<point x="528" y="689"/>
			<point x="462" y="744"/>
			<point x="350" y="744" type="curve" smooth="yes"/>
			<point x="199" y="744"/>
			<point x="99" y="647"/>
			<point x="99" y="487" type="curve" smooth="yes"/>
			<point x="99" y="437"/>
			<point x="101" y="418"/>
			<point x="110" y="375" type="curve"/>
			<point x="40" y="375" type="line"/>
			<point x="38" y="353" type="line"/>
			<point x="118" y="353" type="line"/>
			<point x="139" y="283"/>
			<point x="210" y="158"/>
			<point x="249" y="89" type="curve"/>
			<point x="163" y="86"/>
			<point x="121" y="47"/>
		</contour>
	</outline>
</glyph>
<glyph name="currency" format="2">
	<unicode hex="00A4"/>
	<advance width="539"/>
	<outline>
		<contour>
			<point x="104" y="312" type="curve" smooth="yes"/>
			<point x="104" y="266"/>
			<point x="115" y="228"/>
			<point x="135" y="201" type="curve"/>
			<point x="75" y="117" type="line"/>
			<point x="87" y="105" type="line"/>
			<point x="169" y="166" type="line"/>
			<point x="198" y="146"/>
			<point x="234" y="136"/>
			<point x="278" y="136" type="curve" smooth="yes"/>
			<point x="317" y="136"/>
			<point x="355" y="146"/>
			<point x="386" y="168" type="curve"/>
			<point x="472" y="104" type="line"/>
			<point x="484" y="116" type="line"/>
			<point x="422" y="202" type="line"/>
			<point x="443" y="231"/>
			<point x="456" y="270"/>
			<point x="456" y="321" type="curve" smooth="yes"/>
			<point x="456" y="368"/>
			<point x="445" y="404"/>
			<point x="426" y="430" type="curve"/>
			<point x="485" y="512" type="line"/>
			<point x="473" y="524" type="line"/>
			<point x="392" y="464" type="line"/>
			<point x="361" y="485"/>
			<point x="323" y="495"/>
			<point x="284" y="495" type="curve" smooth="yes"/>
			<point x="243" y="495"/>
			<point x="202" y="483"/>
			<point x="169" y="460" type="curve"/>
			<point x="86" y="521" type="line"/>
			<point x="74" y="509" type="line"/>
			<point x="135" y="424" type="line"/>
			<point x="115" y="396"/>
			<point x="104" y="359"/>
		</contour>
		<contour>
			<point x="178" y="315" type="curve" smooth="yes"/>
			<point x="178" y="420"/>
			<point x="218" y="477"/>
			<point x="282" y="477" type="curve" smooth="yes"/>
			<point x="344" y="477"/>
			<point x="382" y="423"/>
			<point x="382" y="317" type="curve" smooth="yes"/>
			<point x="382" y="216"/>
			<point x="349" y="154"/>
			<point x="278" y="154" type="curve" smooth="yes"/>
			<point x="215" y="154"/>
			<point x="178" y="215"/>
		</contour>
	</outline>
</glyph>
<glyph name="brokenbar" format="2">
	<unicode hex="00A6"/>
	<advance width="319"/>
	<outline>
		<contour>
			<point x="151" y="-110" type="line"/>
			<point x="173" y="-110" type="line"/>
			<point x="187" y="289" type="line"/>
			<point x="165" y="289" type="line"/>
		</contour>
		<contour>
			<point x="169" y="432" type="line"/>
			<point x="191" y="432" type="line"/>
			<point x="204" y="803" type="line"/>
			<point x="182" y="803" type="line"/>
		</contour>
	</outline>
</glyph>
<glyph name="section" format="2">
	<unicode hex="00A7"/>
	<advance width="618"/>
	<outline>
		<contour>
			<point x="544" y="225" type="curve" smooth="yes"/>
			<point x="544" y="383"/>
			<point x="228" y="424"/>
			<point x="228" y="572" type="curve" smooth="yes"/>
			<point x="228" y="639"/>
			<point x="271" y="692"/>
			<point x="345" y="692" type="curve" smooth="yes"/>
			<point x="428" y="692"/>
			<point x="440" y="650"/>
			<point x="411" y="593" type="curve" smooth="yes"/>
			<point x="392" y="556" type="line"/>
			<point x="406" y="542"/>
			<point x="433" y="532"/>
			<point x="457" y="532" type="curve" smooth="yes"/>
			<point x="493" y="532"/>
			<point x="517" y="558"/>
			<point x="517" y="596" type="curve" smooth="yes"/>
			<point x="517" y="668"/>
			<point x="441" y="715"/>
			<point x="350" y="715" type="curve" smooth="yes"/>
			<point x="228" y="715"/>
			<point x="162" y="629"/>
			<point x="162" y="545" type="curve" smooth="yes"/>
			<point x="162" y="341"/>
			<point x="514" y="324"/>
			<point x="508" y="158" type="curve"/>
			<point x="524" y="154" type="line"/>
			<point x="533" y="169"/>
			<point x="544" y="197"/>
		</contour>
		<contour>
			<point x="107" y="334" type="curve"/>
			<point x="107" y="176"/>
			<point x="423" y="135"/>
			<point x="423" y="-13" type="curve" smooth="yes"/>
			<point x="423" y="-80"/>
			<point x="380" y="-133"/>
			<point x="305" y="-133" type="curve" smooth="yes"/>
			<point x="220" y="-133"/>
			<point x="208" y="-92"/>
			<point x="237" y="-34" type="curve" smooth="yes"/>
			<point x="256" y="3" type="line"/>
			<point x="242" y="17"/>
			<point x="215" y="27"/>
			<point x="191" y="27" type="curve" smooth="yes"/>
			<point x="155" y="27"/>
			<point x="131" y="1"/>
			<point x="131" y="-37" type="curve" smooth="yes"/>
			<point x="131" y="-109"/>
			<point x="207" y="-156"/>
			<point x="301" y="-156" type="curve" smooth="yes"/>
			<point x="423" y="-156"/>
			<point x="489" y="-70"/>
			<point x="489" y="14" type="curve" smooth="yes"/>
			<point x="489" y="218"/>
			<point x="137" y="235"/>
			<point x="143" y="401" type="curve"/>
			<point x="127" y="405" type="line"/>
			<point x="118" y="390"/>
			<point x="107" y="362"/>
		</contour>
	</outline>
</glyph>
<glyph name="dieresis" format="2">
	<unicode hex="00A8"/>
	<advance width="500"/>
	<outline>
		<contour>
			<point x="120" y="681" type="curve" smooth="yes"/>
			<point x="120" y="648"/>
			<point x="142" y="627"/>
			<point x="175" y="627" type="curve" smooth="yes"/>
			<point x="209" y="627"/>
			<point x="234" y="655"/>
			<point x="234" y="688" type="curve" smooth="yes"/>
			<point x="234" y="721"/>
			<point x="212" y="742"/>
			<point x="181" y="742" type="curve" smooth="yes"/>
			<point x="145" y="742"/>
			<point x="120" y="714"/>
		</contour>
		<contour>
			<point x="312" y="681" type="curve" smooth="yes"/>
			<point x="312" y="648"/>
			<point x="334" y="627"/>
			<point x="367" y="627" type="curve" smooth="yes"/>
			<point x="401" y="627"/>
			<point x="426" y="655"/>
			<point x="426" y="688" type="curve" smooth="yes"/>
			<point x="426" y="721"/>
			<point x="404" y="742"/>
			<point x="373" y="742" type="curve" smooth="yes"/>
			<point x="337" y="742"/>
			<point x="312" y="714"/>
		</contour>
	</outline>
	<anchor name="_top" x="268" y="550"/>
</glyph>
<glyph name="ordfeminine" format="2">
	<unicode hex="00AA"/>
	<advance width="444"/>
	<outline>
		<contour>
			<point x="370" y="427" type="curve" smooth="yes"/>
			<point x="379" y="735" type="line"/>
			<point x="366" y="741" type="line"/>
			<point x="321" y="722" type="line"/>
			<point x="291" y="734"/>
			<point x="267" y="742"/>
			<point x="232" y="742" type="curve" smooth="yes"/>
			<point x="133" y="742"/>
			<point x="60" y="649"/>
			<point x="60" y="515" type="curve" smooth="yes"/>
			<point x="60" y="427"/>
			<point x="97" y="362"/>
			<point x="174" y="362" type="curve" smooth="yes"/>
			<point x="244" y="362"/>
			<point x="273" y="434"/>
			<point x="299" y="529" type="curve" smooth="yes"/>
			<point x="315" y="587" type="line"/>
			<point x="319" y="587" type="line"/>
			<point x="307" y="433" type="line" smooth="yes"/>
			<point x="304" y="395"/>
			<point x="314" y="362"/>
			<point x="357" y="362" type="curve" smooth="yes"/>
			<point x="390" y="362"/>
			<point x="424" y="383"/>
			<point x="441" y="398" type="curve"/>
			<point x="433" y="411" type="line"/>
			<point x="418" y="400"/>
			<point x="402" y="393"/>
			<point x="388" y="393" type="curve" smooth="yes"/>
			<point x="372" y="393"/>
			<point x="369" y="406"/>
		</contour>
		<contour>
			<point x="183" y="399" type="curve" smooth="yes"/>
			<point x="149" y="399"/>
			<point x="131" y="426"/>
			<point x="131" y="518" type="curve" smooth="yes"/>
			<point x="131" y="654"/>
			<point x="173" y="724"/>
			<point x="236" y="724" type="curve" smooth="yes"/>
			<point x="274" y="724"/>
			<point x="303" y="712"/>
			<point x="325" y="697" type="curve"/>
			<point x="297" y="596" type="line" smooth="yes"/>
			<point x="262" y="469"/>
			<point x="244" y="399"/>
		</contour>
	</outline>
</glyph>
<glyph name="logicalnot" format="2">
	<unicode hex="00AC"/>
	<advance width="582"/>
	<outline>
		<contour>
			<point x="472" y="154" type="line"/>
			<point x="492" y="154" type="line"/>
			<point x="498" y="350" type="line"/>
			<point x="90" y="350" type="line"/>
			<point x="90" y="331" type="line"/>
			<point x="478" y="331" type="line"/>
		</contour>
	</outline>
</glyph>
<glyph name="softhyphen" format="2">
	<unicode hex="00AD"/>
	<advance width="354"/>
	<outline>
		<contour>
			<point x="45" y="329" type="line"/>
			<point x="42" y="247" type="line"/>
			<point x="309" y="247" type="line"/>
			<point x="312" y="329" type="line"/>
		</contour>
	</outline>
</glyph>
<glyph name="acute" format="2">
	<unicode hex="00B4"/>
	<advance width="500"/>
	<outline>
		<contour>
			<point x="301" y="734" type="curve" smooth="yes"/>
			<point x="209" y="591" type="line"/>
			<point x="219" y="580" type="line"/>
			<point x="391" y="712" type="line"/>
			<point x="394" y="749"/>
			<point x="379" y="771"/>
			<point x="352" y="771" type="curve" smooth="yes"/>
			<point x="331" y="771"/>
			<point x="317" y="759"/>
		</contour>
	</outline>
	<anchor name="_top" x="268" y="550"/>
</glyph>
<glyph name="paragraph" format="2">
	<unicode hex="00B6"/>
	<advance width="578"/>
	<outline>
		<contour>
			<point x="337" y="-134" type="curve" smooth="yes"/>
			<point x="332" y="-194"/>
			<point x="314" y="-205"/>
			<point x="260" y="-161" type="curve" smooth="yes"/>
			<point x="227" y="-134" type="line"/>
			<point x="208" y="-150"/>
			<point x="201" y="-164"/>
			<point x="201" y="-183" type="curve" smooth="yes"/>
			<point x="201" y="-210"/>
			<point x="223" y="-229"/>
			<point x="256" y="-229" type="curve" smooth="yes"/>
			<point x="294" y="-229"/>
			<point x="325" y="-213"/>
			<point x="349" y="-184" type="curve" smooth="yes"/>
			<point x="399" y="-124"/>
			<point x="432" y="18"/>
			<point x="436" y="122" type="curve" smooth="yes"/>
			<point x="457" y="668" type="line"/>
			<point x="546" y="683" type="line"/>
			<point x="548" y="700" type="line"/>
			<point x="373" y="700" type="line"/>
			<point x="345" y="3" type="line" smooth="yes"/>
			<point x="343" y="-40"/>
			<point x="340" y="-96"/>
		</contour>
		<contour>
			<point x="288" y="238" type="line"/>
			<point x="313" y="700" type="line"/>
			<point x="301" y="700" type="line" smooth="yes"/>
			<point x="152" y="700"/>
			<point x="69" y="611"/>
			<point x="69" y="451" type="curve" smooth="yes"/>
			<point x="69" y="314"/>
			<point x="141" y="238"/>
			<point x="272" y="238" type="curve" smooth="yes"/>
		</contour>
	</outline>
</glyph>
<glyph name="periodcentered" format="2">
	<unicode hex="00B7"/>
	<advance width="319"/>
	<outline>
		<contour>
			<point x="100" y="305" type="curve" smooth="yes"/>
			<point x="100" y="268"/>
			<point x="127" y="239"/>
			<point x="170" y="239" type="curve" smooth="yes"/>
			<point x="209" y="239"/>
			<point x="245" y="268"/>
			<point x="245" y="314" type="curve" smooth="yes"/>
			<point x="245" y="353"/>
			<point x="217" y="382"/>
			<point x="175" y="382" type="curve" smooth="yes"/>
			<point x="131" y="382"/>
			<point x="100" y="349"/>
		</contour>
	</outline>
</glyph>
<glyph name="onesuperior" format="2">
	<unicode hex="00B9"/>
	<advance width="295"/>
	<outline>
		<contour>
			<point x="198" y="402" type="line"/>
			<point x="218" y="830" type="line"/>
			<point x="203" y="836" type="line"/>
			<point x="59" y="805" type="line"/>
			<point x="57" y="789" type="line"/>
			<point x="146" y="789" type="line"/>
			<point x="127" y="402" type="line"/>
			<point x="43" y="390" type="line"/>
			<point x="41" y="374" type="line"/>
			<point x="276" y="374" type="line"/>
			<point x="277" y="390" type="line"/>
		</contour>
	</outline>
</glyph>
<glyph name="Oslash" format="2">
	<unicode hex="00D8"/>
	<advance width="714"/>
	<outline>
		<contour>
			<point x="68" y="-14" type="line"/>
			<point x="99" y="-14" type="line"/>
			<point x="157" y="63" type="line"/>
			<point x="208" y="12"/>
			<point x="276" y="-14"/>
			<point x="357" y="-14" type="curve" smooth="yes"/>
			<point x="550" y="-14"/>
			<point x="678" y="138"/>
			<point x="678" y="397" type="curve" smooth="yes"/>
			<point x="678" y="506"/>
			<point x="652" y="591"/>
			<point x="605" y="650" type="curve"/>
			<point x="676" y="744" type="line"/>
			<point x="645" y="744" type="line"/>
			<point x="588" y="669" type="line"/>
			<point x="539" y="719"/>
			<point x="471" y="745"/>
			<point x="390" y="745" type="curve" smooth="yes"/>
			<point x="190" y="745"/>
			<point x="63" y="601"/>
			<point x="63" y="343" type="curve" smooth="yes"/>
			<point x="63" y="230"/>
			<point x="91" y="142"/>
			<point x="141" y="81" type="curve"/>
		</contour>
		<contour>
			<point x="370" y="4" type="curve" smooth="yes"/>
			<point x="295" y="4"/>
			<point x="236" y="40"/>
			<point x="199" y="118" type="curve"/>
			<point x="555" y="585" type="line"/>
			<point x="571" y="534"/>
			<point x="580" y="468"/>
			<point x="580" y="385" type="curve" smooth="yes"/>
			<point x="580" y="112"/>
			<point x="504" y="4"/>
		</contour>
		<contour>
			<point x="189" y="144" type="line"/>
			<point x="169" y="200"/>
			<point x="158" y="272"/>
			<point x="158" y="364" type="curve" smooth="yes"/>
			<point x="158" y="622"/>
			<point x="239" y="728"/>
			<point x="376" y="728" type="curve" smooth="yes"/>
			<point x="453" y="728"/>
			<point x="511" y="693"/>
			<point x="545" y="612" type="curve"/>
		</contour>
	</outline>
</glyph>
<glyph name="ae" format="2">
	<unicode hex="00E6"/>
	<advance width="775"/>
	<outline>
		<contour>
			<point x="598" y="527" type="curve" smooth="yes"/>
			<point x="542" y="527"/>
			<point x="494" y="497"/>
			<point x="473" y="469" type="curve"/>
			<point x="478" y="516" type="line"/>
			<point x="469" y="523" type="line"/>
			<point x="406" y="498" type="line"/>
			<point x="376" y="515"/>
			<point x="323" y="527"/>
			<point x="282" y="527" type="curve" smooth="yes"/>
			<point x="143" y="527"/>
			<point x="47" y="394"/>
			<point x="47" y="205" type="curve" smooth="yes"/>
			<point x="47" y="81"/>
			<point x="94" y="-14"/>
			<point x="201" y="-14" type="curve" smooth="yes"/>
			<point x="288" y="-14"/>
			<point x="328" y="54"/>
			<point x="363" y="178" type="curve"/>
			<point x="370" y="76"/>
			<point x="432" y="-14"/>
			<point x="547" y="-14" type="curve" smooth="yes"/>
			<point x="605" y="-14"/>
			<point x="677" y="12"/>
			<point x="731" y="80" type="curve"/>
			<point x="721" y="91" type="line"/>
			<point x="657" y="21"/>
			<point x="608" y="12"/>
			<point x="567" y="12" type="curve" smooth="yes"/>
			<point x="476" y="12"/>
			<point x="437" y="94"/>
			<point x="432" y="239" type="curve"/>
			<point x="543" y="266" type="line" smooth="yes"/>
			<point x="628" y="287"/>
			<point x="734" y="304"/>
			<point x="734" y="415" type="curve" smooth="yes"/>
			<point x="734" y="486"/>
			<point x="681" y="527"/>
		</contour>
		<contour>
			<point x="220" y="44" type="curve" smooth="yes"/>
			<point x="167" y="44"/>
			<point x="137" y="91"/>
			<point x="137" y="205" type="curve" smooth="yes"/>
			<point x="137" y="397"/>
			<point x="198" y="509"/>
			<point x="286" y="509" type="curve" smooth="yes"/>
			<point x="338" y="509"/>
			<point x="383" y="490"/>
			<point x="415" y="473" type="curve"/>
			<point x="368" y="280" type="line" smooth="yes"/>
			<point x="328" y="118"/>
			<point x="300" y="44"/>
		</contour>
		<contour>
			<point x="645" y="422" type="curve" smooth="yes"/>
			<point x="645" y="332"/>
			<point x="619" y="302"/>
			<point x="533" y="280" type="curve" smooth="yes"/>
			<point x="432" y="254" type="line"/>
			<point x="438" y="417"/>
			<point x="501" y="510"/>
			<point x="579" y="510" type="curve" smooth="yes"/>
			<point x="630" y="510"/>
			<point x="645" y="469"/>
		</contour>
	</outline>
	<anchor name="top" x="461" y="550"/>
</glyph>
<glyph name="ccedilla" format="2">
	<unicode hex="00E7"/>
	<advance width="470"/>
	<outline>
		<contour>
			<point x="236" y="-220" type="curve" smooth="yes"/>
			<point x="295" y="-220"/>
			<point x="343" y="-188"/>
			<point x="343" y="-134" type="curve" smooth="yes"/>
			<point x="343" y="-79"/>
			<point x="288" y="-53"/>
			<point x="230" y="-64" type="curve"/>
			<point x="251" y="-14" type="line"/>
			<point x="346" y="-11"/>
			<point x="405" y="49"/>
			<point x="429" y="80" type="curve"/>
			<point x="419" y="91" type="line"/>
			<point x="371" y="40"/>
			<point x="326" y="12"/>
			<point x="263" y="12" type="curve" smooth="yes"/>
			<point x="177" y="12"/>
			<point x="137" y="88"/>
			<point x="137" y="228" type="curve" smooth="yes"/>
			<point x="137" y="417"/>
			<point x="190" y="509"/>
			<point x="281" y="509" type="curve" smooth="yes"/>
			<point x="336" y="509"/>
			<point x="380" y="458"/>
			<point x="344" y="406" type="curve" smooth="yes"/>
			<point x="325" y="379" type="line"/>
			<point x="335" y="359"/>
			<point x="358" y="344"/>
			<point x="382" y="344" type="curve" smooth="yes"/>
			<point x="415" y="344"/>
			<point x="438" y="370"/>
			<point x="438" y="411" type="curve" smooth="yes"/>
			<point x="438" y="481"/>
			<point x="374" y="527"/>
			<point x="287" y="527" type="curve" smooth="yes"/>
			<point x="136" y="527"/>
			<point x="47" y="397"/>
			<point x="47" y="225" type="curve" smooth="yes"/>
			<point x="47" y="92"/>
			<point x="112" y="-8"/>
			<point x="231" y="-14" type="curve"/>
			<point x="205" y="-75" type="line"/>
			<point x="212" y="-86" type="line"/>
			<point x="245" y="-78"/>
			<point x="280" y="-91"/>
			<point x="280" y="-135" type="curve" smooth="yes"/>
			<point x="280" y="-178"/>
			<point x="245" y="-196"/>
			<point x="215" y="-196" type="curve" smooth="yes"/>
			<point x="195" y="-196"/>
			<point x="186" y="-195"/>
			<point x="159" y="-186" type="curve"/>
			<point x="155" y="-195" type="line"/>
			<point x="183" y="-214"/>
			<point x="208" y="-220"/>
		</contour>
	</outline>
</glyph>
<glyph name="eth" format="2">
	<unicode hex="00F0"/>
	<advance width="550"/>
	<outline>
		<contour>
			<point x="262" y="-14" type="curve" smooth="yes"/>
			<point x="417" y="-14"/>
			<point x="495" y="121"/>
			<point x="495" y="348" type="curve" smooth="yes"/>
			<point x="495" y="528"/>
			<point x="431" y="621"/>
			<point x="355" y="691" type="curve"/>
			<point x="451" y="754" type="line"/>
			<point x="443" y="768" type="line"/>
			<point x="341" y="701" type="line"/>
			<point x="286" y="741"/>
			<point x="210" y="758"/>
			<point x="137" y="766" type="curve"/>
			<point x="134" y="749" type="line"/>
			<point x="209" y="738"/>
			<point x="269" y="711"/>
			<point x="306" y="675" type="curve"/>
			<point x="206" y="611" type="line"/>
			<point x="215" y="595" type="line"/>
			<point x="318" y="664" type="line"/>
			<point x="370" y="612"/>
			<point x="397" y="515"/>
			<point x="407" y="441" type="curve"/>
			<point x="403" y="440" type="line"/>
			<point x="374" y="492"/>
			<point x="332" y="527"/>
			<point x="268" y="527" type="curve" smooth="yes"/>
			<point x="145" y="527"/>
			<point x="48" y="421"/>
			<point x="48" y="241" type="curve" smooth="yes"/>
			<point x="48" y="81"/>
			<point x="128" y="-14"/>
		</contour>
		<contour>
			<point x="264" y="3" type="curve" smooth="yes"/>
			<point x="172" y="3"/>
			<point x="142" y="94"/>
			<point x="142" y="244" type="curve" smooth="yes"/>
			<point x="142" y="437"/>
			<point x="192" y="509"/>
			<point x="275" y="509" type="curve" smooth="yes"/>
			<point x="384" y="509"/>
			<point x="397" y="384"/>
			<point x="397" y="279" type="curve" smooth="yes"/>
			<point x="397" y="104"/>
			<point x="351" y="3"/>
		</contour>
	</outline>
</glyph>
<glyph name="divide" format="2">
	<unicode hex="00F7"/>
	<advance width="582"/>
	<outline>
		<contour>
			<point x="77" y="295" type="line"/>
			<point x="505" y="295" type="line"/>
			<point x="507" y="318" type="line"/>
			<point x="79" y="318" type="line"/>
		</contour>
		<contour>
			<point x="276" y="99" type="curve" smooth="yes"/>
			<point x="310" y="99"/>
			<point x="339" y="126"/>
			<point x="339" y="160" type="curve" smooth="yes"/>
			<point x="339" y="189"/>
			<point x="316" y="211"/>
			<point x="282" y="211" type="curve" smooth="yes"/>
			<point x="249" y="211"/>
			<point x="220" y="185"/>
			<point x="220" y="151" type="curve" smooth="yes"/>
			<point x="220" y="121"/>
			<point x="243" y="99"/>
		</contour>
		<contour>
			<point x="302" y="398" type="curve" smooth="yes"/>
			<point x="336" y="398"/>
			<point x="365" y="424"/>
			<point x="365" y="458" type="curve" smooth="yes"/>
			<point x="365" y="488"/>
			<point x="342" y="510"/>
			<point x="308" y="510" type="curve" smooth="yes"/>
			<point x="275" y="510"/>
			<point x="246" y="483"/>
			<point x="246" y="449" type="curve" smooth="yes"/>
			<point x="246" y="420"/>
			<point x="269" y="398"/>
		</contour>
	</outline>
</glyph>
<glyph name="oslash" format="2">
	<unicode hex="00F8"/>
	<advance width="539"/>
	<outline>
		<contour>
			<point x="36" y="-14" type="line"/>
			<point x="68" y="-14" type="line"/>
			<point x="114" y="42" type="line"/>
			<point x="148" y="6"/>
			<point x="195" y="-14"/>
			<point x="254" y="-14" type="curve" smooth="yes"/>
			<point x="424" y="-14"/>
			<point x="491" y="127"/>
			<point x="491" y="279" type="curve" smooth="yes"/>
			<point x="491" y="348"/>
			<point x="475" y="406"/>
			<point x="445" y="448" type="curve"/>
			<point x="509" y="527" type="line"/>
			<point x="478" y="527" type="line"/>
			<point x="429" y="467" type="line"/>
			<point x="394" y="505"/>
			<point x="345" y="527"/>
			<point x="283" y="527" type="curve" smooth="yes"/>
			<point x="112" y="527"/>
			<point x="48" y="390"/>
			<point x="48" y="236" type="curve" smooth="yes"/>
			<point x="48" y="165"/>
			<point x="65" y="105"/>
			<point x="97" y="61" type="curve"/>
		</contour>
		<contour>
			<point x="260" y="5" type="curve" smooth="yes"/>
			<point x="209" y="5"/>
			<point x="176" y="36"/>
			<point x="159" y="97" type="curve"/>
			<point x="391" y="382" type="line"/>
			<point x="395" y="353"/>
			<point x="397" y="319"/>
			<point x="397" y="280" type="curve" smooth="yes"/>
			<point x="397" y="119"/>
			<point x="367" y="5"/>
		</contour>
		<contour>
			<point x="151" y="127" type="line"/>
			<point x="146" y="158"/>
			<point x="143" y="194"/>
			<point x="143" y="236" type="curve" smooth="yes"/>
			<point x="143" y="397"/>
			<point x="172" y="509"/>
			<point x="279" y="509" type="curve" smooth="yes"/>
			<point x="337" y="509"/>
			<point x="369" y="476"/>
			<point x="385" y="413" type="curve"/>
		</contour>
	</outline>
</glyph>
<glyph name="eogonek" format="2">
	<unicode hex="0119"/>
	<advance width="473"/>
	<outline>
		<contour>
			<point x="47" y="225" type="curve" smooth="yes"/>
			<point x="47" y="88"/>
			<point x="116" y="-14"/>
			<point x="245" y="-14" type="curve" smooth="yes"/>
			<point x="270" y="-14"/>
			<point x="299" y="-9"/>
			<point x="320" y="-2" type="curve"/>
			<point x="248" y="-61"/>
			<point x="195" y="-105"/>
			<point x="195" y="-157" type="curve" smooth="yes"/>
			<point x="195" y="-204"/>
			<point x="226" y="-229"/>
			<point x="269" y="-229" type="curve" smooth="yes"/>
			<point x="312" y="-229"/>
			<point x="351" y="-208"/>
			<point x="387" y="-147" type="curve"/>
			<point x="379" y="-142" type="line"/>
			<point x="356" y="-172"/>
			<point x="333" y="-181"/>
			<point x="314" y="-181" type="curve" smooth="yes"/>
			<point x="290" y="-181"/>
			<point x="274" y="-170"/>
			<point x="274" y="-138" type="curve" smooth="yes"/>
			<point x="274" y="-77"/>
			<point x="314" y="-18"/>
			<point x="364" y="21" type="curve" smooth="yes"/>
			<point x="393" y="44"/>
			<point x="417" y="65"/>
			<point x="429" y="80" type="curve"/>
			<point x="419" y="91" type="line"/>
			<point x="366" y="36"/>
			<point x="323" y="12"/>
			<point x="265" y="12" type="curve" smooth="yes"/>
			<point x="182" y="12"/>
			<point x="137" y="74"/>
			<point x="137" y="240" type="curve"/>
			<point x="248" y="267" type="line" smooth="yes"/>
			<point x="333" y="288"/>
			<point x="432" y="304"/>
			<point x="432" y="415" type="curve" smooth="yes"/>
			<point x="432" y="477"/>
			<point x="387" y="527"/>
			<point x="287" y="527" type="curve" smooth="yes"/>
			<point x="143" y="527"/>
			<point x="47" y="403"/>
		</contour>
		<contour>
			<point x="137" y="256" type="line"/>
			<point x="144" y="432"/>
			<point x="197" y="510"/>
			<point x="277" y="510" type="curve" smooth="yes"/>
			<point x="326" y="510"/>
			<point x="343" y="475"/>
			<point x="343" y="412" type="curve" smooth="yes"/>
			<point x="343" y="332"/>
			<point x="309" y="300"/>
			<point x="239" y="282" type="curve" smooth="yes"/>
		</contour>
	</outline>
</glyph>
<glyph name="Hbar" format="2">
	<unicode hex="0126"/>
	<advance width="763"/>
	<outline>
		<contour>
			<point x="55" y="0" type="line"/>
			<point x="320" y="0" type="line"/>
			<point x="322" y="18" type="line"/>
			<point x="229" y="30" type="line"/>
			<point x="243" y="363" type="line"/>
			<point x="557" y="363" type="line"/>
			<point x="542" y="30" type="line"/>
			<point x="458" y="18" type="line"/>
			<point x="456" y="0" type="line"/>
			<point x="721" y="0" type="line"/>
			<point x="723" y="18" type="line"/>
			<point x="630" y="30" type="line"/>
			<point x="650" y="540" type="line"/>
			<point x="750" y="540" type="line"/>
			<point x="751" y="562" type="line"/>
			<point x="651" y="562" type="line"/>
			<point x="656" y="698" type="line"/>
			<point x="745" y="713" type="line"/>
			<point x="747" y="730" type="line"/>
			<point x="490" y="730" type="line"/>
			<point x="488" y="713" type="line"/>
			<point x="570" y="698" type="line"/>
			<point x="564" y="562" type="line"/>
			<point x="250" y="562" type="line"/>
			<point x="255" y="698" type="line"/>
			<point x="344" y="713" type="line"/>
			<point x="346" y="730" type="line"/>
			<point x="88" y="730" type="line"/>
			<point x="86" y="713" type="line"/>
			<point x="168" y="698" type="line"/>
			<point x="163" y="562" type="line"/>
			<point x="61" y="562" type="line"/>
			<point x="59" y="540" type="line"/>
			<point x="162" y="540" type="line"/>
			<point x="141" y="30" type="line"/>
			<point x="57" y="18" type="line"/>
		</contour>
		<contour>
			<point x="243" y="386" type="line"/>
			<point x="249" y="540" type="line"/>
			<point x="563" y="540" type="line"/>
			<point x="557" y="386" type="line"/>
		</contour>
	</outline>
</glyph>
<glyph name="Iogonek" format="2">
	<unicode hex="012E"/>
	<advance width="363"/>
	<outline>
		<contour>
			<point x="55" y="0" type="line"/>
			<point x="196" y="0" type="line"/>
			<point x="121" y="-45"/>
			<point x="64" y="-102"/>
			<point x="64" y="-157" type="curve" smooth="yes"/>
			<point x="64" y="-204"/>
			<point x="95" y="-229"/>
			<point x="138" y="-229" type="curve" smooth="yes"/>
			<point x="181" y="-229"/>
			<point x="220" y="-208"/>
			<point x="256" y="-147" type="curve"/>
			<point x="248" y="-142" type="line"/>
			<point x="225" y="-172"/>
			<point x="202" y="-181"/>
			<point x="183" y="-181" type="curve" smooth="yes"/>
			<point x="159" y="-181"/>
			<point x="143" y="-170"/>
			<point x="143" y="-138" type="curve" smooth="yes"/>
			<point x="143" y="-81"/>
			<point x="185" y="-33"/>
			<point x="224" y="0" type="curve"/>
			<point x="321" y="0" type="line"/>
			<point x="323" y="18" type="line"/>
			<point x="230" y="30" type="line"/>
			<point x="256" y="698" type="line"/>
			<point x="345" y="713" type="line"/>
			<point x="347" y="730" type="line"/>
			<point x="89" y="730" type="line"/>
			<point x="87" y="713" type="line"/>
			<point x="169" y="698" type="line"/>
			<point x="142" y="30" type="line"/>
			<point x="58" y="18" type="line"/>
		</contour>
	</outline>
</glyph>
<glyph name="iogonek" format="2">
	<unicode hex="012F"/>
	<advance width="298"/>
	<outline>
		<contour>
			<point x="93" y="77" type="line" smooth="yes"/>
			<point x="87" y="4"/>
			<point x="133" y="-25"/>
			<point x="203" y="-8" type="curve"/>
			<point x="135" y="-51"/>
			<point x="80" y="-106"/>
			<point x="80" y="-157" type="curve" smooth="yes"/>
			<point x="80" y="-204"/>
			<point x="111" y="-229"/>
			<point x="154" y="-229" type="curve" smooth="yes"/>
			<point x="197" y="-229"/>
			<point x="236" y="-208"/>
			<point x="272" y="-147" type="curve"/>
			<point x="264" y="-142" type="line"/>
			<point x="241" y="-172"/>
			<point x="218" y="-181"/>
			<point x="199" y="-181" type="curve" smooth="yes"/>
			<point x="175" y="-181"/>
			<point x="159" y="-170"/>
			<point x="159" y="-138" type="curve" smooth="yes"/>
			<point x="159" y="-77"/>
			<point x="206" y="-24"/>
			<point x="247" y="8" type="curve" smooth="yes"/>
			<point x="264" y="22"/>
			<point x="281" y="33"/>
			<point x="291" y="43" type="curve"/>
			<point x="281" y="55" type="line"/>
			<point x="256" y="32"/>
			<point x="229" y="16"/>
			<point x="207" y="16" type="curve" smooth="yes"/>
			<point x="185" y="16"/>
			<point x="178" y="29"/>
			<point x="180" y="59" type="curve" smooth="yes"/>
			<point x="205" y="433" type="line" smooth="yes"/>
			<point x="209" y="496"/>
			<point x="185" y="527"/>
			<point x="131" y="527" type="curve" smooth="yes"/>
			<point x="87" y="527"/>
			<point x="40" y="507"/>
			<point x="15" y="492" type="curve"/>
			<point x="20" y="479" type="line"/>
			<point x="48" y="491"/>
			<point x="77" y="499"/>
			<point x="94" y="499" type="curve" smooth="yes"/>
			<point x="115" y="499"/>
			<point x="123" y="489"/>
			<point x="121" y="458" type="curve" smooth="yes"/>
		</contour>
		<contour>
			<point x="92" y="686" type="curve" smooth="yes"/>
			<point x="92" y="647"/>
			<point x="118" y="620"/>
			<point x="157" y="620" type="curve" smooth="yes"/>
			<point x="195" y="620"/>
			<point x="221" y="648"/>
			<point x="221" y="687" type="curve" smooth="yes"/>
			<point x="221" y="726"/>
			<point x="195" y="753"/>
			<point x="157" y="753" type="curve" smooth="yes"/>
			<point x="118" y="753"/>
			<point x="92" y="725"/>
		</contour>
	</outline>
</glyph>
<glyph name="kgreenlandic" format="2">
	<unicode hex="0138"/>
	<advance width="541"/>
	<outline>
		<contour>
			<point x="92" y="0" type="line"/>
			<point x="173" y="0" type="line"/>
			<point x="184" y="252" type="line"/>
			<point x="201" y="256"/>
			<point x="217" y="260"/>
			<point x="234" y="266" type="curve"/>
			<point x="337" y="65" type="line" smooth="yes"/>
			<point x="367" y="6"/>
			<point x="399" y="-14"/>
			<point x="446" y="-14" type="curve" smooth="yes"/>
			<point x="490" y="-14"/>
			<point x="528" y="7"/>
			<point x="548" y="26" type="curve"/>
			<point x="539" y="41" type="line"/>
			<point x="520" y="30"/>
			<point x="503" y="25"/>
			<point x="484" y="25" type="curve" smooth="yes"/>
			<point x="458" y="25"/>
			<point x="447" y="40"/>
			<point x="411" y="105" type="curve" smooth="yes"/>
			<point x="307" y="296" type="line"/>
			<point x="330" y="307"/>
			<point x="353" y="319"/>
			<point x="377" y="334" type="curve" smooth="yes"/>
			<point x="447" y="378"/>
			<point x="472" y="419"/>
			<point x="472" y="463" type="curve" smooth="yes"/>
			<point x="472" y="494"/>
			<point x="453" y="527"/>
			<point x="411" y="527" type="curve" smooth="yes"/>
			<point x="376" y="527"/>
			<point x="351" y="503"/>
			<point x="343" y="461" type="curve"/>
			<point x="371" y="444" type="line" smooth="yes"/>
			<point x="409" y="421"/>
			<point x="395" y="376"/>
			<point x="344" y="344" type="curve" smooth="yes"/>
			<point x="289" y="310"/>
			<point x="241" y="291"/>
			<point x="186" y="279" type="curve"/>
			<point x="194" y="443" type="line" smooth="yes"/>
			<point x="196" y="497"/>
			<point x="182" y="527"/>
			<point x="125" y="527" type="curve" smooth="yes"/>
			<point x="85" y="527"/>
			<point x="39" y="506"/>
			<point x="18" y="494" type="curve"/>
			<point x="24" y="481" type="line"/>
			<point x="52" y="493"/>
			<point x="73" y="499"/>
			<point x="86" y="499" type="curve" smooth="yes"/>
			<point x="106" y="499"/>
			<point x="114" y="488"/>
			<point x="113" y="459" type="curve" smooth="yes"/>
		</contour>
	</outline>
</glyph>
<glyph name="Lslash" format="2">
	<unicode hex="0141"/>
	<advance width="576"/>
	<outline>
		<contour>
			<point x="55" y="0" type="line"/>
			<point x="511" y="0" type="line"/>
			<point x="538" y="173" type="line"/>
			<point x="520" y="173" type="line"/>
			<point x="504" y="121" type="line" smooth="yes"/>
			<point x="478" y="36"/>
			<point x="445" y="23"/>
			<point x="377" y="23" type="curve" smooth="yes"/>
			<point x="227" y="23" type="line"/>
			<point x="241" y="351" type="line"/>
			<point x="447" y="476" type="line"/>
			<point x="450" y="509" type="line"/>
			<point x="242" y="384" type="line"/>
			<point x="255" y="698" type="line"/>
			<point x="362" y="712" type="line"/>
			<point x="364" y="730" type="line"/>
			<point x="88" y="730" type="line"/>
			<point x="86" y="712" type="line"/>
			<point x="168" y="698" type="line"/>
			<point x="154" y="343" type="line"/>
			<point x="51" y="280" type="line"/>
			<point x="48" y="247" type="line"/>
			<point x="152" y="311" type="line"/>
			<point x="141" y="30" type="line"/>
			<point x="57" y="18" type="line"/>
		</contour>
	</outline>
</glyph>
<glyph name="Eng" format="2">
	<unicode hex="014A"/>
	<advance width="713"/>
	<outline>
		<contour>
			<point x="55" y="0" type="line"/>
			<point x="262" y="0" type="line"/>
			<point x="264" y="18" type="line"/>
			<point x="171" y="30" type="line"/>
			<point x="193" y="659" type="line"/>
			<point x="501" y="53" type="line"/>
			<point x="495" y="-65"/>
			<point x="481" y="-130"/>
			<point x="410" y="-214" type="curve"/>
			<point x="422" y="-229" type="line"/>
			<point x="545" y="-131"/>
			<point x="583" y="-64"/>
			<point x="588" y="56" type="curve" smooth="yes"/>
			<point x="614" y="698" type="line"/>
			<point x="701" y="713" type="line"/>
			<point x="703" y="730" type="line"/>
			<point x="505" y="730" type="line"/>
			<point x="503" y="713" type="line"/>
			<point x="585" y="698" type="line"/>
			<point x="565" y="109" type="line"/>
			<point x="253" y="730" type="line"/>
			<point x="92" y="730" type="line"/>
			<point x="90" y="713" type="line"/>
			<point x="169" y="698" type="line"/>
			<point x="142" y="30" type="line"/>
			<point x="58" y="18" type="line"/>
		</contour>
	</outline>
</glyph>
<glyph name="eng" format="2">
	<unicode hex="014B"/>
	<advance width="589"/>
	<outline>
		<contour>
			<point x="291" y="-229" type="curve" smooth="yes"/>
			<point x="322" y="-229"/>
			<point x="358" y="-213"/>
			<point x="382" y="-184" type="curve" smooth="yes"/>
			<point x="432" y="-124"/>
			<point x="467" y="14"/>
			<point x="476" y="122" type="curve" smooth="yes"/>
			<point x="496" y="354" type="line" smooth="yes"/>
			<point x="506" y="470"/>
			<point x="482" y="527"/>
			<point x="393" y="527" type="curve" smooth="yes"/>
			<point x="317" y="527"/>
			<point x="283" y="482"/>
			<point x="248" y="375" type="curve" smooth="yes"/>
			<point x="174" y="151" type="line"/>
			<point x="170" y="152" type="line"/>
			<point x="195" y="425" type="line" smooth="yes"/>
			<point x="201" y="492"/>
			<point x="182" y="527"/>
			<point x="125" y="527" type="curve" smooth="yes"/>
			<point x="85" y="527"/>
			<point x="39" y="506"/>
			<point x="18" y="494" type="curve"/>
			<point x="24" y="481" type="line"/>
			<point x="52" y="493"/>
			<point x="73" y="499"/>
			<point x="86" y="499" type="curve" smooth="yes"/>
			<point x="107" y="499"/>
			<point x="114" y="488"/>
			<point x="113" y="459" type="curve" smooth="yes"/>
			<point x="97" y="0" type="line"/>
			<point x="149" y="0" type="line"/>
			<point x="268" y="364" type="line" smooth="yes"/>
			<point x="297" y="454"/>
			<point x="314" y="481"/>
			<point x="365" y="481" type="curve" smooth="yes"/>
			<point x="407" y="481"/>
			<point x="419" y="459"/>
			<point x="413" y="388" type="curve"/>
			<point x="368" y="-134" type="line" smooth="yes"/>
			<point x="362" y="-198"/>
			<point x="338" y="-202"/>
			<point x="294" y="-166" type="curve" smooth="yes"/>
			<point x="258" y="-137" type="line"/>
			<point x="243" y="-152"/>
			<point x="235" y="-168"/>
			<point x="235" y="-185" type="curve" smooth="yes"/>
			<point x="235" y="-209"/>
			<point x="256" y="-229"/>
		</contour>
	</outline>
</glyph>
<glyph name="Uogonek" format="2">
	<unicode hex="0172"/>
	<advance width="757"/>
	<outline>
		<contour>
			<point x="541" y="-229" type="curve" smooth="yes"/>
			<point x="584" y="-229"/>
			<point x="623" y="-208"/>
			<point x="659" y="-147" type="curve"/>
			<point x="651" y="-142" type="line"/>
			<point x="628" y="-172"/>
			<point x="605" y="-181"/>
			<point x="586" y="-181" type="curve" smooth="yes"/>
			<point x="562" y="-181"/>
			<point x="546" y="-170"/>
			<point x="546" y="-138" type="curve" smooth="yes"/>
			<point x="546" y="-81"/>
			<point x="588" y="-33"/>
			<point x="627" y="0" type="curve"/>
			<point x="699" y="0" type="line"/>
			<point x="701" y="18" type="line"/>
			<point x="615" y="31" type="line"/>
			<point x="656" y="695" type="line"/>
			<point x="729" y="712" type="line"/>
			<point x="731" y="730" type="line"/>
			<point x="499" y="730" type="line"/>
			<point x="497" y="712" type="line"/>
			<point x="580" y="695" type="line"/>
			<point x="562" y="510" type="line" smooth="yes"/>
			<point x="539" y="274"/>
			<point x="462" y="28"/>
			<point x="316" y="28" type="curve" smooth="yes"/>
			<point x="237" y="28"/>
			<point x="208" y="73"/>
			<point x="217" y="230" type="curve" smooth="yes"/>
			<point x="243" y="695" type="line"/>
			<point x="328" y="712" type="line"/>
			<point x="330" y="730" type="line"/>
			<point x="82" y="730" type="line"/>
			<point x="80" y="712" type="line"/>
			<point x="156" y="697" type="line"/>
			<point x="129" y="222" type="line" smooth="yes"/>
			<point x="120" y="67"/>
			<point x="181" y="-14"/>
			<point x="299" y="-14" type="curve" smooth="yes"/>
			<point x="428" y="-14"/>
			<point x="505" y="99"/>
			<point x="564" y="365" type="curve"/>
			<point x="566" y="365" type="line"/>
			<point x="534" y="12" type="line"/>
			<point x="541" y="0" type="line"/>
			<point x="599" y="0" type="line"/>
			<point x="524" y="-45"/>
			<point x="467" y="-102"/>
			<point x="467" y="-157" type="curve" smooth="yes"/>
			<point x="467" y="-204"/>
			<point x="498" y="-229"/>
		</contour>
	</outline>
</glyph>
<glyph name="uogonek" format="2">
	<unicode hex="0173"/>
	<advance width="592"/>
	<outline>
		<contour>
			<point x="20" y="478" type="curve"/>
			<point x="28" y="467" type="line"/>
			<point x="45" y="482"/>
			<point x="73" y="496"/>
			<point x="96" y="496" type="curve" smooth="yes"/>
			<point x="117" y="496"/>
			<point x="123" y="483"/>
			<point x="120" y="450" type="curve" smooth="yes"/>
			<point x="96" y="162" type="line" smooth="yes"/>
			<point x="85" y="35"/>
			<point x="117" y="-14"/>
			<point x="194" y="-14" type="curve" smooth="yes"/>
			<point x="268" y="-14"/>
			<point x="309" y="30"/>
			<point x="345" y="140" type="curve" smooth="yes"/>
			<point x="418" y="362" type="line"/>
			<point x="422" y="361" type="line"/>
			<point x="397" y="88" type="line" smooth="yes"/>
			<point x="390" y="10"/>
			<point x="424" y="-25"/>
			<point x="498" y="-12" type="curve"/>
			<point x="432" y="-55"/>
			<point x="376" y="-107"/>
			<point x="376" y="-157" type="curve" smooth="yes"/>
			<point x="376" y="-204"/>
			<point x="407" y="-229"/>
			<point x="450" y="-229" type="curve" smooth="yes"/>
			<point x="493" y="-229"/>
			<point x="532" y="-208"/>
			<point x="568" y="-147" type="curve"/>
			<point x="560" y="-142" type="line"/>
			<point x="537" y="-172"/>
			<point x="514" y="-181"/>
			<point x="495" y="-181" type="curve" smooth="yes"/>
			<point x="471" y="-181"/>
			<point x="455" y="-170"/>
			<point x="455" y="-138" type="curve" smooth="yes"/>
			<point x="455" y="-67"/>
			<point x="507" y="-25"/>
			<point x="574" y="19" type="curve"/>
			<point x="568" y="32" type="line"/>
			<point x="543" y="21"/>
			<point x="521" y="14"/>
			<point x="505" y="14" type="curve" smooth="yes"/>
			<point x="483" y="14"/>
			<point x="478" y="28"/>
			<point x="479" y="63" type="curve" smooth="yes"/>
			<point x="495" y="513" type="line"/>
			<point x="443" y="513" type="line"/>
			<point x="322" y="147" type="line" smooth="yes"/>
			<point x="297" y="70"/>
			<point x="267" y="32"/>
			<point x="223" y="32" type="curve" smooth="yes"/>
			<point x="176" y="32"/>
			<point x="173" y="66"/>
			<point x="181" y="156" type="curve" smooth="yes"/>
			<point x="206" y="444" type="line" smooth="yes"/>
			<point x="211" y="499"/>
			<point x="187" y="527"/>
			<point x="137" y="527" type="curve" smooth="yes"/>
			<point x="98" y="527"/>
			<point x="49" y="504"/>
		</contour>
	</outline>
</glyph>
<glyph name="Schwa" format="2">
	<unicode hex="018F"/>
	<advance width="649"/>
	<outline>
		<contour>
			<point x="290" y="-14" type="curve" smooth="yes"/>
			<point x="484" y="-14"/>
			<point x="613" y="131"/>
			<point x="613" y="381" type="curve" smooth="yes"/>
			<point x="613" y="614"/>
			<point x="513" y="744"/>
			<point x="341" y="744" type="curve" smooth="yes"/>
			<point x="248" y="744"/>
			<point x="167" y="704"/>
			<point x="91" y="603" type="curve"/>
			<point x="104" y="592" type="line"/>
			<point x="175" y="672"/>
			<point x="244" y="707"/>
			<point x="326" y="707" type="curve" smooth="yes"/>
			<point x="454" y="707"/>
			<point x="519" y="592"/>
			<point x="521" y="350" type="curve"/>
			<point x="80" y="350" type="line"/>
			<point x="65" y="305"/>
			<point x="59" y="268"/>
			<point x="59" y="222" type="curve" smooth="yes"/>
			<point x="59" y="75"/>
			<point x="142" y="-14"/>
		</contour>
		<contour>
			<point x="298" y="10" type="curve" smooth="yes"/>
			<point x="187" y="10"/>
			<point x="143" y="101"/>
			<point x="143" y="209" type="curve" smooth="yes"/>
			<point x="143" y="240"/>
			<point x="149" y="297"/>
			<point x="155" y="325" type="curve"/>
			<point x="519" y="325" type="line"/>
			<point x="501" y="67"/>
			<point x="404" y="10"/>
		</contour>
	</outline>
</glyph>
<glyph name="Ohorn" format="2">
	<unicode hex="01A0"/>
	<advance width="817"/>
	<outline>
		<contour>
			<point x="352" y="-14" type="curve" smooth="yes"/>
			<point x="545" y="-14"/>
			<point x="673" y="138"/>
			<point x="673" y="397" type="curve" smooth="yes"/>
			<point x="673" y="428"/>
			<point x="671" y="457"/>
			<point x="667" y="484" type="curve"/>
			<point x="786" y="517"/>
			<point x="832" y="602"/>
			<point x="832" y="686" type="curve" smooth="yes"/>
			<point x="832" y="729"/>
			<point x="804" y="761"/>
			<point x="765" y="761" type="curve" smooth="yes"/>
			<point x="722" y="761"/>
			<point x="701" y="736"/>
			<point x="701" y="701" type="curve" smooth="yes"/>
			<point x="701" y="688"/>
			<point x="706" y="672"/>
			<point x="713" y="662" type="curve"/>
			<point x="763" y="654" type="line" smooth="yes"/>
			<point x="779" y="651"/>
			<point x="783" y="647"/>
			<point x="783" y="632" type="curve" smooth="yes"/>
			<point x="783" y="590"/>
			<point x="758" y="530"/>
			<point x="664" y="502" type="curve"/>
			<point x="634" y="660"/>
			<point x="532" y="745"/>
			<point x="385" y="745" type="curve" smooth="yes"/>
			<point x="185" y="745"/>
			<point x="58" y="601"/>
			<point x="58" y="343" type="curve" smooth="yes"/>
			<point x="58" y="114"/>
			<point x="173" y="-14"/>
		</contour>
		<contour>
			<point x="365" y="4" type="curve" smooth="yes"/>
			<point x="234" y="4"/>
			<point x="153" y="112"/>
			<point x="153" y="364" type="curve" smooth="yes"/>
			<point x="153" y="622"/>
			<point x="234" y="728"/>
			<point x="371" y="728" type="curve" smooth="yes"/>
			<point x="501" y="728"/>
			<point x="575" y="628"/>
			<point x="575" y="385" type="curve" smooth="yes"/>
			<point x="575" y="112"/>
			<point x="499" y="4"/>
		</contour>
	</outline>
</glyph>
<glyph name="ohorn" format="2">
	<unicode hex="01A1"/>
	<advance width="600"/>
	<outline>
		<contour>
			<point x="254" y="-14" type="curve" smooth="yes"/>
			<point x="424" y="-14"/>
			<point x="491" y="127"/>
			<point x="491" y="279" type="curve" smooth="yes"/>
			<point x="491" y="320"/>
			<point x="485" y="358"/>
			<point x="474" y="391" type="curve"/>
			<point x="572" y="429"/>
			<point x="611" y="507"/>
			<point x="611" y="584" type="curve" smooth="yes"/>
			<point x="611" y="627"/>
			<point x="583" y="659"/>
			<point x="544" y="659" type="curve" smooth="yes"/>
			<point x="501" y="659"/>
			<point x="480" y="634"/>
			<point x="480" y="599" type="curve" smooth="yes"/>
			<point x="480" y="586"/>
			<point x="485" y="570"/>
			<point x="492" y="560" type="curve"/>
			<point x="542" y="552" type="line" smooth="yes"/>
			<point x="558" y="549"/>
			<point x="562" y="545"/>
			<point x="562" y="530" type="curve" smooth="yes"/>
			<point x="562" y="492"/>
			<point x="541" y="439"/>
			<point x="467" y="409" type="curve"/>
			<point x="435" y="483"/>
			<point x="371" y="527"/>
			<point x="283" y="527" type="curve" smooth="yes"/>
			<point x="112" y="527"/>
			<point x="48" y="390"/>
			<point x="48" y="236" type="curve" smooth="yes"/>
			<point x="48" y="89"/>
			<point x="122" y="-14"/>
		</contour>
		<contour>
			<point x="260" y="5" type="curve" smooth="yes"/>
			<point x="179" y="5"/>
			<point x="143" y="85"/>
			<point x="143" y="236" type="curve" smooth="yes"/>
			<point x="143" y="397"/>
			<point x="172" y="509"/>
			<point x="279" y="509" type="curve" smooth="yes"/>
			<point x="370" y="509"/>
			<point x="397" y="429"/>
			<point x="397" y="280" type="curve" smooth="yes"/>
			<point x="397" y="119"/>
			<point x="367" y="5"/>
		</contour>
	</outline>
</glyph>
<glyph name="uhorn" format="2">
	<unicode hex="01B0"/>
	<advance width="650"/>
	<outline>
		<contour>
			<point x="194" y="-14" type="curve" smooth="yes"/>
			<point x="268" y="-14"/>
			<point x="309" y="30"/>
			<point x="345" y="140" type="curve" smooth="yes"/>
			<point x="418" y="362" type="line"/>
			<point x="423" y="361" type="line"/>
			<point x="397" y="88" type="line" smooth="yes"/>
			<point x="390" y="18"/>
			<point x="412" y="-14"/>
			<point x="468" y="-14" type="curve" smooth="yes"/>
			<point x="499" y="-14"/>
			<point x="544" y="1"/>
			<point x="574" y="19" type="curve"/>
			<point x="568" y="32" type="line"/>
			<point x="543" y="21"/>
			<point x="521" y="14"/>
			<point x="505" y="14" type="curve" smooth="yes"/>
			<point x="482" y="14"/>
			<point x="478" y="28"/>
			<point x="479" y="63" type="curve" smooth="yes"/>
			<point x="490" y="380" type="line"/>
			<point x="613" y="412"/>
			<point x="661" y="499"/>
			<point x="661" y="584" type="curve" smooth="yes"/>
			<point x="661" y="627"/>
			<point x="633" y="659"/>
			<point x="594" y="659" type="curve" smooth="yes"/>
			<point x="551" y="659"/>
			<point x="530" y="634"/>
			<point x="530" y="599" type="curve" smooth="yes"/>
			<point x="530" y="586"/>
			<point x="535" y="570"/>
			<point x="542" y="560" type="curve"/>
			<point x="592" y="552" type="line" smooth="yes"/>
			<point x="608" y="549"/>
			<point x="612" y="545"/>
			<point x="612" y="530" type="curve" smooth="yes"/>
			<point x="612" y="487"/>
			<point x="587" y="427"/>
			<point x="491" y="400" type="curve"/>
			<point x="495" y="513" type="line"/>
			<point x="443" y="513" type="line"/>
			<point x="322" y="147" type="line" smooth="yes"/>
			<point x="297" y="70"/>
			<point x="267" y="32"/>
			<point x="223" y="32" type="curve" smooth="yes"/>
			<point x="173" y="32"/>
			<point x="174" y="74"/>
			<point x="181" y="156" type="curve" smooth="yes"/>
			<point x="206" y="444" type="line" smooth="yes"/>
			<point x="211" y="499"/>
			<point x="186" y="527"/>
			<point x="137" y="527" type="curve" smooth="yes"/>
			<point x="98" y="527"/>
			<point x="49" y="504"/>
			<point x="20" y="478" type="curve"/>
			<point x="28" y="467" type="line"/>
			<point x="45" y="482"/>
			<point x="73" y="496"/>
			<point x="96" y="496" type="curve" smooth="yes"/>
			<point x="117" y="496"/>
			<point x="123" y="483"/>
			<point x="120" y="450" type="curve" smooth="yes"/>
			<point x="96" y="162" type="line" smooth="yes"/>
			<point x="85" y="35"/>
			<point x="117" y="-14"/>
		</contour>
	</outline>
</glyph>
<glyph name="Oogonek" format="2">
	<unicode hex="01EA"/>
	<advance width="714"/>
	<outline>
		<contour>
			<point x="370" y="-229" type="curve" smooth="yes"/>
			<point x="413" y="-229"/>
			<point x="452" y="-208"/>
			<point x="488" y="-147" type="curve"/>
			<point x="480" y="-142" type="line"/>
			<point x="457" y="-172"/>
			<point x="434" y="-181"/>
			<point x="415" y="-181" type="curve" smooth="yes"/>
			<point x="391" y="-181"/>
			<point x="375" y="-170"/>
			<point x="375" y="-138" type="curve" smooth="yes"/>
			<point x="375" y="-80"/>
			<point x="418" y="-31"/>
			<point x="458" y="2" type="curve"/>
			<point x="593" y="47"/>
			<point x="678" y="186"/>
			<point x="678" y="397" type="curve" smooth="yes"/>
			<point x="678" y="622"/>
			<point x="567" y="745"/>
			<point x="390" y="745" type="curve" smooth="yes"/>
			<point x="190" y="745"/>
			<point x="63" y="601"/>
			<point x="63" y="343" type="curve" smooth="yes"/>
			<point x="63" y="114"/>
			<point x="178" y="-14"/>
			<point x="357" y="-14" type="curve" smooth="yes"/>
			<point x="376" y="-14"/>
			<point x="395" y="-12"/>
			<point x="413" y="-9" type="curve"/>
			<point x="345" y="-53"/>
			<point x="296" y="-106"/>
			<point x="296" y="-157" type="curve" smooth="yes"/>
			<point x="296" y="-204"/>
			<point x="327" y="-229"/>
		</contour>
		<contour>
			<point x="370" y="4" type="curve" smooth="yes"/>
			<point x="239" y="4"/>
			<point x="158" y="112"/>
			<point x="158" y="364" type="curve" smooth="yes"/>
			<point x="158" y="622"/>
			<point x="239" y="728"/>
			<point x="376" y="728" type="curve" smooth="yes"/>
			<point x="506" y="728"/>
			<point x="580" y="628"/>
			<point x="580" y="385" type="curve" smooth="yes"/>
			<point x="580" y="112"/>
			<point x="504" y="4"/>
		</contour>
	</outline>
</glyph>
<glyph name="oogonek" format="2">
	<unicode hex="01EB"/>
	<advance width="539"/>
	<outline>
		<contour>
			<point x="259" y="-229" type="curve" smooth="yes"/>
			<point x="302" y="-229"/>
			<point x="341" y="-208"/>
			<point x="377" y="-147" type="curve"/>
			<point x="369" y="-142" type="line"/>
			<point x="346" y="-172"/>
			<point x="323" y="-181"/>
			<point x="304" y="-181" type="curve" smooth="yes"/>
			<point x="280" y="-181"/>
			<point x="264" y="-170"/>
			<point x="264" y="-138" type="curve" smooth="yes"/>
			<point x="264" y="-78"/>
			<point x="310" y="-28"/>
			<point x="351" y="5" type="curve"/>
			<point x="450" y="48"/>
			<point x="491" y="160"/>
			<point x="491" y="279" type="curve" smooth="yes"/>
			<point x="491" y="428"/>
			<point x="415" y="527"/>
			<point x="283" y="527" type="curve" smooth="yes"/>
			<point x="112" y="527"/>
			<point x="48" y="390"/>
			<point x="48" y="236" type="curve" smooth="yes"/>
			<point x="48" y="89"/>
			<point x="122" y="-14"/>
			<point x="254" y="-14" type="curve" smooth="yes"/>
			<point x="271" y="-14"/>
			<point x="286" y="-13"/>
			<point x="301" y="-10" type="curve"/>
			<point x="234" y="-53"/>
			<point x="185" y="-106"/>
			<point x="185" y="-157" type="curve" smooth="yes"/>
			<point x="185" y="-204"/>
			<point x="216" y="-229"/>
		</contour>
		<contour>
			<point x="260" y="5" type="curve" smooth="yes"/>
			<point x="179" y="5"/>
			<point x="143" y="85"/>
			<point x="143" y="236" type="curve" smooth="yes"/>
			<point x="143" y="397"/>
			<point x="172" y="509"/>
			<point x="279" y="509" type="curve" smooth="yes"/>
			<point x="370" y="509"/>
			<point x="397" y="429"/>
			<point x="397" y="280" type="curve" smooth="yes"/>
			<point x="397" y="119"/>
			<point x="367" y="5"/>
		</contour>
	</outline>
</glyph>
<glyph name="jdotless" format="2">
	<unicode hex="0237"/>
	<advance width="295"/>
	<outline>
		<contour>
			<point x="197" y="122" type="curve" smooth="yes"/>
			<point x="208" y="424" type="line" smooth="yes"/>
			<point x="211" y="493"/>
			<point x="189" y="527"/>
			<point x="135" y="527" type="curve" smooth="yes"/>
			<point x="91" y="527"/>
			<point x="44" y="507"/>
			<point x="19" y="492" type="curve"/>
			<point x="24" y="479" type="line"/>
			<point x="48" y="490"/>
			<point x="74" y="498"/>
			<point x="95" y="498" type="curve" smooth="yes"/>
			<point x="118" y="498"/>
			<point x="125" y="486"/>
			<point x="124" y="458" type="curve" smooth="yes"/>
			<point x="105" y="-29" type="line" smooth="yes"/>
			<point x="103" y="-78"/>
			<point x="101" y="-101"/>
			<point x="98" y="-134" type="curve" smooth="yes"/>
			<point x="92" y="-191"/>
			<point x="73" y="-206"/>
			<point x="24" y="-166" type="curve" smooth="yes"/>
			<point x="-12" y="-137" type="line"/>
			<point x="-27" y="-152"/>
			<point x="-35" y="-168"/>
			<point x="-35" y="-185" type="curve" smooth="yes"/>
			<point x="-35" y="-209"/>
			<point x="-14" y="-229"/>
			<point x="21" y="-229" type="curve" smooth="yes"/>
			<point x="52" y="-229"/>
			<point x="88" y="-213"/>
			<point x="112" y="-184" type="curve" smooth="yes"/>
			<point x="162" y="-124"/>
			<point x="193" y="14"/>
		</contour>
	</outline>
	<anchor name="top" x="133" y="550"/>
</glyph>
<glyph name="schwa" format="2">
	<unicode hex="0259"/>
	<advance width="473"/>
	<outline>
		<contour>
			<point x="186" y="-14" type="curve" smooth="yes"/>
			<point x="330" y="-14"/>
			<point x="426" y="110"/>
			<point x="426" y="288" type="curve" smooth="yes"/>
			<point x="426" y="425"/>
			<point x="357" y="527"/>
			<point x="228" y="527" type="curve" smooth="yes"/>
			<point x="129" y="527"/>
			<point x="67" y="462"/>
			<point x="44" y="433" type="curve"/>
			<point x="54" y="422" type="line"/>
			<point x="107" y="477"/>
			<point x="153" y="501"/>
			<point x="211" y="501" type="curve" smooth="yes"/>
			<point x="292" y="501"/>
			<point x="336" y="448"/>
			<point x="336" y="282" type="curve"/>
			<point x="225" y="255" type="line" smooth="yes"/>
			<point x="140" y="234"/>
			<point x="41" y="218"/>
			<point x="41" y="98" type="curve" smooth="yes"/>
			<point x="41" y="36"/>
			<point x="86" y="-14"/>
		</contour>
		<contour>
			<point x="196" y="3" type="curve" smooth="yes"/>
			<point x="147" y="3"/>
			<point x="130" y="38"/>
			<point x="130" y="101" type="curve" smooth="yes"/>
			<point x="130" y="190"/>
			<point x="164" y="222"/>
			<point x="234" y="240" type="curve" smooth="yes"/>
			<point x="336" y="266" type="line"/>
			<point x="329" y="90"/>
			<point x="276" y="3"/>
		</contour>
	</outline>
</glyph>
<glyph name="circumflex" format="2">
	<unicode hex="02C6"/>
	<advance width="500"/>
	<outline>
		<contour>
			<point x="414" y="591" type="line"/>
			<point x="305" y="762" type="line"/>
			<point x="296" y="767"/>
			<point x="285" y="770"/>
			<point x="276" y="770" type="curve" smooth="yes"/>
			<point x="254" y="770"/>
			<point x="241" y="753"/>
			<point x="232" y="740" type="curve" smooth="yes"/>
			<point x="129" y="593" type="line"/>
			<point x="136" y="585" type="line"/>
			<point x="273" y="684" type="line"/>
			<point x="407" y="584" type="line"/>
		</contour>
	</outline>
	<anchor name="_top" x="268" y="550"/>
</glyph>
<glyph name="breve" format="2">
	<unicode hex="02D8"/>
	<advance width="500"/>
	<outline>
		<contour>
			<point x="270" y="587" type="curve" smooth="yes"/>
			<point x="364" y="587"/>
			<point x="403" y="669"/>
			<point x="417" y="762" type="curve"/>
			<point x="405" y="764" type="line"/>
			<point x="385" y="707"/>
			<point x="344" y="666"/>
			<point x="274" y="666" type="curve" smooth="yes"/>
			<point x="205" y="666"/>
			<point x="172" y="694"/>
			<point x="152" y="765" type="curve"/>
			<point x="140" y="763" type="line"/>
			<point x="145" y="664"/>
			<point x="175" y="587"/>
		</contour>
	</outline>
	<anchor name="_top" x="268" y="550"/>
</glyph>
<glyph name="ogonek" format="2">
	<unicode hex="02DB"/>
	<advance width="500"/>
	<outline>
		<contour>
			<point x="315" y="8" type="curve"/>
			<point x="293" y="9" type="line"/>
			<point x="210" y="-37"/>
			<point x="145" y="-98"/>
			<point x="145" y="-157" type="curve" smooth="yes"/>
			<point x="145" y="-204"/>
			<point x="176" y="-229"/>
			<point x="219" y="-229" type="curve" smooth="yes"/>
			<point x="262" y="-229"/>
			<point x="301" y="-208"/>
			<point x="337" y="-147" type="curve"/>
			<point x="329" y="-142" type="line"/>
			<point x="306" y="-172"/>
			<point x="283" y="-181"/>
			<point x="264" y="-181" type="curve" smooth="yes"/>
			<point x="240" y="-181"/>
			<point x="224" y="-170"/>
			<point x="224" y="-138" type="curve" smooth="yes"/>
			<point x="224" y="-76"/>
			<point x="273" y="-25"/>
		</contour>
	</outline>
	<anchor name="_bottom" x="248" y="-30"/>
</glyph>
<glyph name="hungarumlaut" format="2">
	<unicode hex="02DD"/>
	<advance width="500"/>
	<outline>
		<contour>
			<point x="419" y="744" type="curve" smooth="yes"/>
			<point x="334" y="593" type="line"/>
			<point x="342" y="585" type="line"/>
			<point x="493" y="703" type="line"/>
			<point x="500" y="749"/>
			<point x="484" y="773"/>
			<point x="459" y="773" type="curve" smooth="yes"/>
			<point x="443" y="773"/>
			<point x="432" y="767"/>
		</contour>
		<contour>
			<point x="266" y="747" type="curve" smooth="yes"/>
			<point x="187" y="593" type="line"/>
			<point x="195" y="585" type="line"/>
			<point x="340" y="706" type="line"/>
			<point x="347" y="752"/>
			<point x="333" y="776"/>
			<point x="306" y="776" type="curve" smooth="yes"/>
			<point x="291" y="776"/>
			<point x="278" y="771"/>
		</contour>
	</outline>
	<anchor name="_top" x="268" y="550"/>
</glyph>
<glyph name="hookabovecomb" format="2">
	<unicode hex="0309"/>
	<outline>
		<contour>
			<point x="11" y="792" type="curve" smooth="yes"/>
			<point x="45" y="792"/>
			<point x="67" y="777"/>
			<point x="67" y="745" type="curve" smooth="yes"/>
			<point x="67" y="681"/>
			<point x="-17" y="667"/>
			<point x="-18" y="614" type="curve" smooth="yes"/>
			<point x="-19" y="575" type="line"/>
			<point x="40" y="575" type="line"/>
			<point x="41" y="600" type="line" smooth="yes"/>
			<point x="42" y="634"/>
			<point x="134" y="658"/>
			<point x="134" y="728" type="curve" smooth="yes"/>
			<point x="134" y="787"/>
			<point x="86" y="807"/>
			<point x="23" y="807" type="curve" smooth="yes"/>
			<point x="-42" y="807"/>
			<point x="-95" y="775"/>
			<point x="-95" y="725" type="curve" smooth="yes"/>
			<point x="-95" y="703"/>
			<point x="-81" y="688"/>
			<point x="-58" y="688" type="curve" smooth="yes"/>
			<point x="-35" y="688"/>
			<point x="-17" y="701"/>
			<point x="-23" y="736" type="curve"/>
			<point x="-44" y="749" type="line" smooth="yes"/>
			<point x="-47" y="751"/>
			<point x="-49" y="753"/>
			<point x="-49" y="759" type="curve" smooth="yes"/>
			<point x="-49" y="779"/>
			<point x="-26" y="792"/>
		</contour>
	</outline>
	<anchor name="_top" x="10" y="550"/>
</glyph>
<glyph name="horncomb" format="2">
	<unicode hex="031B"/>
	<outline>
		<contour>
			<point x="-89" y="399" type="curve"/>
			<point x="-91" y="379" type="line"/>
			<point x="35" y="410"/>
			<point x="84" y="498"/>
			<point x="84" y="584" type="curve" smooth="yes"/>
			<point x="84" y="627"/>
			<point x="56" y="659"/>
			<point x="17" y="659" type="curve" smooth="yes"/>
			<point x="-26" y="659"/>
			<point x="-47" y="634"/>
			<point x="-47" y="599" type="curve" smooth="yes"/>
			<point x="-47" y="586"/>
			<point x="-42" y="570"/>
			<point x="-35" y="560" type="curve"/>
			<point x="15" y="552" type="line" smooth="yes"/>
			<point x="31" y="549"/>
			<point x="35" y="545"/>
			<point x="35" y="530" type="curve" smooth="yes"/>
			<point x="35" y="487"/>
			<point x="9" y="426"/>
		</contour>
	</outline>
</glyph>
<glyph name="commaaccentcomb" format="2">
	<unicode hex="0326"/>
	<outline>
		<contour>
			<point x="-53" y="-267" type="line"/>
			<point x="19" y="-225"/>
			<point x="47" y="-179"/>
			<point x="47" y="-122" type="curve" smooth="yes"/>
			<point x="47" y="-88"/>
			<point x="30" y="-58"/>
			<point x="-12" y="-58" type="curve" smooth="yes"/>
			<point x="-61" y="-58"/>
			<point x="-79" y="-104"/>
			<point x="-62" y="-137" type="curve"/>
			<point x="-17" y="-154" type="line" smooth="yes"/>
			<point x="-5" y="-158"/>
			<point x="-2" y="-163"/>
			<point x="-2" y="-172" type="curve" smooth="yes"/>
			<point x="-2" y="-198"/>
			<point x="-20" y="-224"/>
			<point x="-61" y="-254" type="curve"/>
		</contour>
	</outline>
	<anchor name="_bottom" x="-10" y="-30"/>
</glyph>
<glyph name="numeral-greek" format="2">
	<unicode hex="0374"/>
	<advance width="332"/>
	<outline>
		<contour>
			<point x="96" y="531" type="line"/>
			<point x="243" y="717" type="line"/>
			<point x="243" y="724" type="line"/>
			<point x="231" y="746"/>
			<point x="220" y="761"/>
			<point x="198" y="761" type="curve" smooth="yes"/>
			<point x="174" y="761"/>
			<point x="164" y="746"/>
			<point x="154" y="718" type="curve" smooth="yes"/>
			<point x="87" y="535" type="line"/>
		</contour>
	</outline>
</glyph>
<glyph name="tonos" format="2">
	<unicode hex="0384"/>
	<advance width="471"/>
	<outline>
		<contour>
			<point x="217" y="573" type="line"/>
			<point x="363" y="739" type="line"/>
			<point x="363" y="746" type="line"/>
			<point x="351" y="768"/>
			<point x="339" y="783"/>
			<point x="317" y="783" type="curve" smooth="yes"/>
			<point x="293" y="783"/>
			<point x="285" y="768"/>
			<point x="273" y="740" type="curve" smooth="yes"/>
			<point x="208" y="577" type="line"/>
		</contour>
	</outline>
	<anchor name="_top" x="226" y="550"/>
</glyph>
<glyph name="Theta" format="2">
	<unicode hex="0398"/>
	<advance width="714"/>
	<outline>
		<contour>
			<point x="357" y="-14" type="curve" smooth="yes"/>
			<point x="550" y="-14"/>
			<point x="678" y="138"/>
			<point x="678" y="397" type="curve" smooth="yes"/>
			<point x="678" y="622"/>
			<point x="567" y="745"/>
			<point x="390" y="745" type="curve" smooth="yes"/>
			<point x="190" y="745"/>
			<point x="63" y="601"/>
			<point x="63" y="343" type="curve" smooth="yes"/>
			<point x="63" y="114"/>
			<point x="178" y="-14"/>
		</contour>
		<contour>
			<point x="370" y="4" type="curve" smooth="yes"/>
			<point x="239" y="4"/>
			<point x="158" y="112"/>
			<point x="158" y="364" type="curve" smooth="yes"/>
			<point x="158" y="622"/>
			<point x="239" y="728"/>
			<point x="376" y="728" type="curve" smooth="yes"/>
			<point x="506" y="728"/>
			<point x="580" y="628"/>
			<point x="580" y="385" type="curve" smooth="yes"/>
			<point x="580" y="112"/>
			<point x="504" y="4"/>
		</contour>
		<contour>
			<point x="245" y="351" type="line"/>
			<point x="492" y="351" type="line"/>
			<point x="493" y="388" type="line"/>
			<point x="246" y="388" type="line"/>
		</contour>
	</outline>
</glyph>
<glyph name="Sigma" format="2">
	<unicode hex="03A3"/>
	<advance width="613"/>
	<outline>
		<contour>
			<point x="80" y="0" type="line"/>
			<point x="551" y="0" type="line"/>
			<point x="581" y="193" type="line"/>
			<point x="563" y="193" type="line"/>
			<point x="557" y="173" type="line" smooth="yes"/>
			<point x="525" y="69"/>
			<point x="509" y="43"/>
			<point x="420" y="43" type="curve" smooth="yes"/>
			<point x="128" y="43" type="line"/>
			<point x="147" y="15" type="line"/>
			<point x="375" y="384" type="line"/>
			<point x="376" y="393" type="line"/>
			<point x="184" y="707" type="line"/>
			<point x="436" y="707" type="line" smooth="yes"/>
			<point x="504" y="707"/>
			<point x="525" y="691"/>
			<point x="554" y="582" type="curve" smooth="yes"/>
			<point x="561" y="556" type="line"/>
			<point x="579" y="558" type="line"/>
			<point x="563" y="730" type="line"/>
			<point x="77" y="730" type="line"/>
			<point x="74" y="706" type="line"/>
			<point x="288" y="358" type="line"/>
			<point x="80" y="15" type="line"/>
		</contour>
	</outline>
</glyph>
<glyph name="Phi" format="2">
	<unicode hex="03A6"/>
	<advance width="784"/>
	<outline>
		<contour>
			<point x="261" y="-20" type="line"/>
			<point x="527" y="-20" type="line"/>
			<point x="529" y="-2" type="line"/>
			<point x="436" y="10" type="line"/>
			<point x="438" y="70" type="line"/>
			<point x="692" y="94"/>
			<point x="748" y="256"/>
			<point x="748" y="380" type="curve" smooth="yes"/>
			<point x="748" y="582"/>
			<point x="596" y="651"/>
			<point x="461" y="667" type="curve"/>
			<point x="463" y="708" type="line"/>
			<point x="552" y="723" type="line"/>
			<point x="554" y="740" type="line"/>
			<point x="296" y="740" type="line"/>
			<point x="294" y="723" type="line"/>
			<point x="376" y="708" type="line"/>
			<point x="375" y="668" type="line"/>
			<point x="131" y="649"/>
			<point x="64" y="496"/>
			<point x="64" y="358" type="curve" smooth="yes"/>
			<point x="64" y="223"/>
			<point x="129" y="103"/>
			<point x="351" y="72" type="curve"/>
			<point x="348" y="10" type="line"/>
			<point x="264" y="-2" type="line"/>
		</contour>
		<contour>
			<point x="351" y="90" type="line"/>
			<point x="212" y="111"/>
			<point x="159" y="224"/>
			<point x="159" y="362" type="curve" smooth="yes"/>
			<point x="159" y="533"/>
			<point x="226" y="633"/>
			<point x="374" y="651" type="curve"/>
		</contour>
		<contour>
			<point x="439" y="88" type="curve"/>
			<point x="461" y="650" type="line"/>
			<point x="586" y="631"/>
			<point x="653" y="529"/>
			<point x="653" y="376" type="curve" smooth="yes"/>
			<point x="653" y="214"/>
			<point x="594" y="110"/>
		</contour>
	</outline>
</glyph>
<glyph name="Omega" format="2">
	<unicode hex="03A9"/>
	<advance width="730"/>
	<outline>
		<contour>
			<point x="49" y="0" type="line"/>
			<point x="322" y="0" type="line"/>
			<point x="327" y="119" type="line"/>
			<point x="204" y="161"/>
			<point x="166" y="264"/>
			<point x="166" y="419" type="curve" smooth="yes"/>
			<point x="166" y="570"/>
			<point x="219" y="728"/>
			<point x="383" y="728" type="curve" smooth="yes"/>
			<point x="532" y="728"/>
			<point x="587" y="593"/>
			<point x="587" y="445" type="curve" smooth="yes"/>
			<point x="587" y="264"/>
			<point x="521" y="133"/>
			<point x="409" y="112" type="curve"/>
			<point x="405" y="0" type="line"/>
			<point x="668" y="0" type="line"/>
			<point x="692" y="184" type="line"/>
			<point x="678" y="184" type="line"/>
			<point x="671" y="163" type="line" smooth="yes"/>
			<point x="641" y="73"/>
			<point x="626" y="50"/>
			<point x="562" y="50" type="curve" smooth="yes"/>
			<point x="436" y="50" type="line"/>
			<point x="438" y="101" type="line"/>
			<point x="582" y="146"/>
			<point x="685" y="278"/>
			<point x="685" y="451" type="curve" smooth="yes"/>
			<point x="685" y="611"/>
			<point x="592" y="745"/>
			<point x="397" y="745" type="curve" smooth="yes"/>
			<point x="144" y="745"/>
			<point x="70" y="550"/>
			<point x="70" y="420" type="curve" smooth="yes"/>
			<point x="70" y="259"/>
			<point x="155" y="140"/>
			<point x="297" y="102" type="curve"/>
			<point x="295" y="50" type="line"/>
			<point x="157" y="50" type="line" smooth="yes"/>
			<point x="92" y="50"/>
			<point x="76" y="77"/>
			<point x="51" y="166" type="curve" smooth="yes"/>
			<point x="46" y="184" type="line"/>
			<point x="32" y="184" type="line"/>
		</contour>
	</outline>
	<anchor name="bottom" x="361" y="-45"/>
	<anchor name="side" x="749" y="217"/>
	<anchor name="topleft" x="50" y="730"/>
</glyph>
<glyph name="alpha" format="2">
	<unicode hex="03B1"/>
	<advance width="623"/>
	<outline>
		<contour>
			<point x="224" y="-14" type="curve" smooth="yes"/>
			<point x="300" y="-14"/>
			<point x="360" y="73"/>
			<point x="388" y="156" type="curve"/>
			<point x="389" y="156" type="line"/>
			<point x="393" y="22"/>
			<point x="418" y="-14"/>
			<point x="481" y="-14" type="curve" smooth="yes"/>
			<point x="524" y="-14"/>
			<point x="575" y="18"/>
			<point x="595" y="37" type="curve"/>
			<point x="586" y="49" type="line"/>
			<point x="565" y="33"/>
			<point x="539" y="18"/>
			<point x="513" y="18" type="curve" smooth="yes"/>
			<point x="474" y="18"/>
			<point x="460" y="82"/>
			<point x="450" y="184" type="curve" smooth="yes"/>
			<point x="445" y="236" type="line"/>
			<point x="486" y="328"/>
			<point x="523" y="410"/>
			<point x="565" y="517" type="curve"/>
			<point x="554" y="522" type="line"/>
			<point x="488" y="514" type="line"/>
			<point x="473" y="453"/>
			<point x="463" y="400"/>
			<point x="433" y="298" type="curve"/>
			<point x="432" y="298" type="line"/>
			<point x="417" y="498"/>
			<point x="331" y="527"/>
			<point x="257" y="527" type="curve" smooth="yes"/>
			<point x="115" y="527"/>
			<point x="54" y="378"/>
			<point x="54" y="236" type="curve" smooth="yes"/>
			<point x="54" y="105"/>
			<point x="100" y="-14"/>
		</contour>
		<contour>
			<point x="243" y="46" type="curve" smooth="yes"/>
			<point x="182" y="46"/>
			<point x="149" y="95"/>
			<point x="149" y="247" type="curve" smooth="yes"/>
			<point x="149" y="359"/>
			<point x="167" y="510"/>
			<point x="263" y="510" type="curve" smooth="yes"/>
			<point x="328" y="510"/>
			<point x="369" y="450"/>
			<point x="379" y="264" type="curve" smooth="yes"/>
			<point x="383" y="193" type="line"/>
			<point x="332" y="65"/>
			<point x="287" y="46"/>
		</contour>
	</outline>
	<anchor name="bottom" x="223" y="-30"/>
	<anchor name="top" x="252" y="551"/>
</glyph>
<glyph name="epsilon" format="2">
	<unicode hex="03B5"/>
	<advance width="523"/>
	<outline>
		<contour>
			<point x="266" y="-14" type="curve" smooth="yes"/>
			<point x="337" y="-14"/>
			<point x="415" y="21"/>
			<point x="469" y="90" type="curve"/>
			<point x="459" y="101" type="line"/>
			<point x="404" y="45"/>
			<point x="357" y="12"/>
			<point x="280" y="12" type="curve" smooth="yes"/>
			<point x="186" y="12"/>
			<point x="144" y="65"/>
			<point x="144" y="136" type="curve" smooth="yes"/>
			<point x="144" y="205"/>
			<point x="188" y="238"/>
			<point x="229" y="251" type="curve"/>
			<point x="250" y="230"/>
			<point x="276" y="211"/>
			<point x="296" y="211" type="curve" smooth="yes"/>
			<point x="328" y="211"/>
			<point x="354" y="237"/>
			<point x="354" y="269" type="curve" smooth="yes"/>
			<point x="354" y="298"/>
			<point x="330" y="317"/>
			<point x="303" y="317" type="curve" smooth="yes"/>
			<point x="277" y="317"/>
			<point x="249" y="296"/>
			<point x="230" y="276" type="curve"/>
			<point x="193" y="287"/>
			<point x="164" y="327"/>
			<point x="164" y="387" type="curve" smooth="yes"/>
			<point x="164" y="459"/>
			<point x="209" y="511"/>
			<point x="300" y="511" type="curve" smooth="yes"/>
			<point x="367" y="511"/>
			<point x="407" y="485"/>
			<point x="407" y="446" type="curve" smooth="yes"/>
			<point x="407" y="421"/>
			<point x="398" y="410"/>
			<point x="375" y="379" type="curve"/>
			<point x="385" y="362"/>
			<point x="402" y="344"/>
			<point x="432" y="344" type="curve" smooth="yes"/>
			<point x="466" y="344"/>
			<point x="488" y="370"/>
			<point x="488" y="409" type="curve" smooth="yes"/>
			<point x="488" y="487"/>
			<point x="413" y="527"/>
			<point x="292" y="527" type="curve" smooth="yes"/>
			<point x="167" y="527"/>
			<point x="74" y="464"/>
			<point x="74" y="376" type="curve" smooth="yes"/>
			<point x="74" y="319"/>
			<point x="101" y="284"/>
			<point x="175" y="262" type="curve"/>
			<point x="175" y="260" type="line"/>
			<point x="92" y="240"/>
			<point x="49" y="191"/>
			<point x="49" y="130" type="curve" smooth="yes"/>
			<point x="49" y="39"/>
			<point x="120" y="-14"/>
		</contour>
	</outline>
	<anchor name="top" x="299" y="551"/>
</glyph>
<glyph name="eta" format="2">
	<unicode hex="03B7"/>
	<advance width="558"/>
	<outline>
		<contour>
			<point x="446" y="-230" type="line"/>
			<point x="457" y="-225" type="line"/>
			<point x="486" y="-51"/>
			<point x="523" y="230"/>
			<point x="523" y="378" type="curve" smooth="yes"/>
			<point x="523" y="474"/>
			<point x="497" y="527"/>
			<point x="414" y="527" type="curve" smooth="yes"/>
			<point x="312" y="527"/>
			<point x="250" y="424"/>
			<point x="194" y="245" type="curve"/>
			<point x="192" y="246" type="line"/>
			<point x="212" y="339"/>
			<point x="224" y="409"/>
			<point x="224" y="454" type="curve" smooth="yes"/>
			<point x="224" y="514"/>
			<point x="180" y="527"/>
			<point x="149" y="527" type="curve" smooth="yes"/>
			<point x="112" y="527"/>
			<point x="66" y="508"/>
			<point x="28" y="478" type="curve"/>
			<point x="36" y="467" type="line"/>
			<point x="60" y="487"/>
			<point x="84" y="496"/>
			<point x="107" y="496" type="curve" smooth="yes"/>
			<point x="144" y="496"/>
			<point x="158" y="457"/>
			<point x="161" y="370" type="curve" smooth="yes"/>
			<point x="162" y="328"/>
			<point x="164" y="249"/>
			<point x="158" y="197" type="curve"/>
			<point x="126" y="137"/>
			<point x="111" y="85"/>
			<point x="111" y="0" type="curve"/>
			<point x="114" y="-8"/>
			<point x="133" y="-12"/>
			<point x="143" y="-12" type="curve" smooth="yes"/>
			<point x="214" y="-12"/>
			<point x="199" y="82"/>
			<point x="198" y="157" type="curve"/>
			<point x="205" y="248"/>
			<point x="303" y="481"/>
			<point x="390" y="481" type="curve" smooth="yes"/>
			<point x="437" y="481"/>
			<point x="439" y="444"/>
			<point x="439" y="367" type="curve" smooth="yes"/>
			<point x="439" y="239"/>
			<point x="396" y="-75"/>
			<point x="360" y="-211" type="curve"/>
		</contour>
	</outline>
	<anchor name="bottom" x="142" y="-30"/>
	<anchor name="top" x="299" y="551"/>
</glyph>
<glyph name="theta" format="2">
	<unicode hex="03B8"/>
	<advance width="618"/>
	<outline>
		<contour>
			<point x="309" y="-14" type="curve" smooth="yes"/>
			<point x="447" y="-14"/>
			<point x="566" y="107"/>
			<point x="566" y="469" type="curve" smooth="yes"/>
			<point x="566" y="667"/>
			<point x="493" y="782"/>
			<point x="337" y="782" type="curve" smooth="yes"/>
			<point x="214" y="782"/>
			<point x="154" y="698"/>
			<point x="154" y="596" type="curve" smooth="yes"/>
			<point x="154" y="461"/>
			<point x="238" y="376"/>
			<point x="478" y="347" type="curve"/>
			<point x="470" y="196"/>
			<point x="405" y="5"/>
			<point x="309" y="5" type="curve" smooth="yes"/>
			<point x="252" y="5"/>
			<point x="234" y="44"/>
			<point x="234" y="95" type="curve" smooth="yes"/>
			<point x="234" y="156"/>
			<point x="251" y="230"/>
			<point x="251" y="282" type="curve" smooth="yes"/>
			<point x="251" y="318"/>
			<point x="227" y="349"/>
			<point x="178" y="349" type="curve" smooth="yes"/>
			<point x="132" y="349"/>
			<point x="92" y="332"/>
			<point x="60" y="316" type="curve"/>
			<point x="66" y="302" type="line"/>
			<point x="97" y="315"/>
			<point x="115" y="320"/>
			<point x="134" y="321" type="curve" smooth="yes"/>
			<point x="154" y="322"/>
			<point x="165" y="310"/>
			<point x="165" y="288" type="curve" smooth="yes"/>
			<point x="165" y="243"/>
			<point x="148" y="170"/>
			<point x="148" y="108" type="curve" smooth="yes"/>
			<point x="148" y="41"/>
			<point x="201" y="-14"/>
		</contour>
		<contour>
			<point x="479" y="373" type="curve"/>
			<point x="283" y="402"/>
			<point x="242" y="520"/>
			<point x="242" y="627" type="curve" smooth="yes"/>
			<point x="242" y="715"/>
			<point x="279" y="764"/>
			<point x="343" y="764" type="curve" smooth="yes"/>
			<point x="433" y="764"/>
			<point x="482" y="662"/>
			<point x="482" y="456" type="curve" smooth="yes"/>
			<point x="482" y="433"/>
			<point x="481" y="400"/>
		</contour>
	</outline>
</glyph>
<glyph name="iota" format="2">
	<unicode hex="03B9"/>
	<advance width="291"/>
	<outline>
		<contour>
			<point x="135" y="-14" type="curve" smooth="yes"/>
			<point x="177" y="-14"/>
			<point x="216" y="7"/>
			<point x="250" y="35" type="curve"/>
			<point x="242" y="49" type="line"/>
			<point x="208" y="26"/>
			<point x="186" y="23"/>
			<point x="164" y="23" type="curve" smooth="yes"/>
			<point x="110" y="23"/>
			<point x="99" y="56"/>
			<point x="99" y="84" type="curve" smooth="yes"/>
			<point x="99" y="153"/>
			<point x="136" y="380"/>
			<point x="158" y="516" type="curve"/>
			<point x="147" y="521" type="line"/>
			<point x="54" y="513" type="line"/>
			<point x="45" y="315"/>
			<point x="34" y="140"/>
			<point x="34" y="99" type="curve" smooth="yes"/>
			<point x="34" y="45"/>
			<point x="49" y="-14"/>
		</contour>
	</outline>
	<anchor name="top" x="109" y="551"/>
</glyph>
<glyph name="mu" format="2">
	<unicode hex="03BC"/>
	<advance width="562"/>
	<outline>
		<contour>
			<point x="59" y="-230" type="line"/>
			<point x="147" y="-211" type="line"/>
			<point x="137" y="-167"/>
			<point x="124" y="-78"/>
			<point x="124" y="23" type="curve"/>
			<point x="125" y="23" type="line"/>
			<point x="139" y="10"/>
			<point x="173" y="-13"/>
			<point x="213" y="-13" type="curve" smooth="yes"/>
			<point x="253" y="-13"/>
			<point x="315" y="4"/>
			<point x="338" y="115" type="curve"/>
			<point x="339" y="115" type="line"/>
			<point x="339" y="24"/>
			<point x="384" y="-14"/>
			<point x="431" y="-14" type="curve" smooth="yes"/>
			<point x="473" y="-14"/>
			<point x="521" y="8"/>
			<point x="539" y="19" type="curve"/>
			<point x="533" y="32" type="line"/>
			<point x="515" y="24"/>
			<point x="489" y="14"/>
			<point x="470" y="14" type="curve" smooth="yes"/>
			<point x="427" y="14"/>
			<point x="415" y="87"/>
			<point x="415" y="129" type="curve" smooth="yes"/>
			<point x="415" y="202"/>
			<point x="440" y="429"/>
			<point x="458" y="516" type="curve"/>
			<point x="447" y="521" type="line"/>
			<point x="359" y="513" type="line"/>
			<point x="335" y="185" type="line" smooth="yes"/>
			<point x="331" y="100"/>
			<point x="284" y="33"/>
			<point x="196" y="33" type="curve" smooth="yes"/>
			<point x="170" y="33"/>
			<point x="142" y="41"/>
			<point x="125" y="57" type="curve"/>
			<point x="125" y="125"/>
			<point x="134" y="294"/>
			<point x="165" y="516" type="curve"/>
			<point x="154" y="521" type="line"/>
			<point x="66" y="513" type="line"/>
			<point x="50" y="311"/>
			<point x="40" y="81"/>
			<point x="40" y="-78" type="curve" smooth="yes"/>
			<point x="40" y="-127"/>
			<point x="40" y="-172"/>
			<point x="48" y="-225" type="curve"/>
		</contour>
	</outline>
</glyph>
<glyph name="rho" format="2">
	<unicode hex="03C1"/>
	<advance width="502"/>
	<outline>
		<contour>
			<point x="40" y="-230" type="line"/>
			<point x="127" y="-211" type="line"/>
			<point x="113" y="-140"/>
			<point x="105" y="-41"/>
			<point x="105" y="23" type="curve"/>
			<point x="106" y="23" type="line"/>
			<point x="134" y="1"/>
			<point x="168" y="-14"/>
			<point x="212" y="-14" type="curve" smooth="yes"/>
			<point x="349" y="-14"/>
			<point x="455" y="112"/>
			<point x="455" y="295" type="curve" smooth="yes"/>
			<point x="455" y="451"/>
			<point x="366" y="527"/>
			<point x="265" y="527" type="curve" smooth="yes"/>
			<point x="80" y="527"/>
			<point x="26" y="319"/>
			<point x="21" y="9" type="curve" smooth="yes"/>
			<point x="20" y="-92"/>
			<point x="23" y="-185"/>
			<point x="29" y="-225" type="curve"/>
		</contour>
		<contour>
			<point x="208" y="4" type="curve" smooth="yes"/>
			<point x="169" y="4"/>
			<point x="135" y="19"/>
			<point x="106" y="50" type="curve"/>
			<point x="117" y="357"/>
			<point x="154" y="509"/>
			<point x="262" y="509" type="curve" smooth="yes"/>
			<point x="328" y="509"/>
			<point x="365" y="452"/>
			<point x="365" y="292" type="curve" smooth="yes"/>
			<point x="365" y="124"/>
			<point x="305" y="4"/>
		</contour>
	</outline>
	<anchor name="top" x="261" y="551"/>
</glyph>
<glyph name="sigmafinal" format="2">
	<unicode hex="03C2"/>
	<advance width="479"/>
	<outline>
		<contour>
			<point x="281" y="-231" type="line"/>
			<point x="322" y="-189"/>
			<point x="377" y="-126"/>
			<point x="377" y="-67" type="curve" smooth="yes"/>
			<point x="377" y="-4"/>
			<point x="354" y="19"/>
			<point x="257" y="66" type="curve" smooth="yes"/>
			<point x="163" y="112"/>
			<point x="140" y="185"/>
			<point x="139" y="272" type="curve" smooth="yes"/>
			<point x="138" y="396"/>
			<point x="189" y="509"/>
			<point x="294" y="509" type="curve" smooth="yes"/>
			<point x="335" y="509"/>
			<point x="368" y="480"/>
			<point x="368" y="444" type="curve" smooth="yes"/>
			<point x="368" y="433"/>
			<point x="365" y="420"/>
			<point x="356" y="408" type="curve" smooth="yes"/>
			<point x="336" y="379" type="line"/>
			<point x="345" y="361"/>
			<point x="367" y="344"/>
			<point x="393" y="344" type="curve" smooth="yes"/>
			<point x="431" y="344"/>
			<point x="449" y="377"/>
			<point x="449" y="411" type="curve" smooth="yes"/>
			<point x="449" y="489"/>
			<point x="374" y="527"/>
			<point x="298" y="527" type="curve" smooth="yes"/>
			<point x="148" y="527"/>
			<point x="48" y="398"/>
			<point x="48" y="239" type="curve" smooth="yes"/>
			<point x="48" y="169"/>
			<point x="61" y="64"/>
			<point x="211" y="-12" type="curve" smooth="yes"/>
			<point x="298" y="-56"/>
			<point x="313" y="-71"/>
			<point x="313" y="-112" type="curve" smooth="yes"/>
			<point x="313" y="-147"/>
			<point x="302" y="-178"/>
			<point x="269" y="-222" type="curve"/>
		</contour>
	</outline>
</glyph>
<glyph name="sigma" format="2">
	<unicode hex="03C3"/>
	<advance width="618"/>
	<outline>
		<contour>
			<point x="258" y="-14" type="curve" smooth="yes"/>
			<point x="403" y="-14"/>
			<point x="485" y="116"/>
			<point x="485" y="256" type="curve" smooth="yes"/>
			<point x="485" y="328"/>
			<point x="443" y="415"/>
			<point x="394" y="448" type="curve"/>
			<point x="394" y="450" type="line"/>
			<point x="446" y="438"/>
			<point x="473" y="419"/>
			<point x="523" y="419" type="curve" smooth="yes"/>
			<point x="560" y="419"/>
			<point x="586" y="441"/>
			<point x="586" y="480" type="curve" smooth="yes"/>
			<point x="586" y="495"/>
			<point x="579" y="511"/>
			<point x="559" y="526" type="curve"/>
			<point x="454" y="489" type="line"/>
			<point x="405" y="497"/>
			<point x="354" y="513"/>
			<point x="300" y="513" type="curve" smooth="yes"/>
			<point x="137" y="513"/>
			<point x="48" y="392"/>
			<point x="48" y="239" type="curve" smooth="yes"/>
			<point x="48" y="48"/>
			<point x="161" y="-14"/>
		</contour>
		<contour>
			<point x="265" y="5" type="curve" smooth="yes"/>
			<point x="199" y="5"/>
			<point x="142" y="58"/>
			<point x="142" y="210" type="curve" smooth="yes"/>
			<point x="142" y="358"/>
			<point x="200" y="462"/>
			<point x="301" y="462" type="curve" smooth="yes"/>
			<point x="328" y="462"/>
			<point x="343" y="459"/>
			<point x="369" y="452" type="curve"/>
			<point x="388" y="415"/>
			<point x="391" y="316"/>
			<point x="391" y="249" type="curve" smooth="yes"/>
			<point x="391" y="83"/>
			<point x="338" y="5"/>
		</contour>
	</outline>
</glyph>
<glyph name="tau" format="2">
	<unicode hex="03C4"/>
	<advance width="507"/>
	<outline>
		<contour>
			<point x="285" y="-14" type="curve" smooth="yes"/>
			<point x="348" y="-14"/>
			<point x="399" y="14"/>
			<point x="434" y="62" type="curve"/>
			<point x="422" y="73" type="line"/>
			<point x="389" y="33"/>
			<point x="350" y="13"/>
			<point x="313" y="13" type="curve" smooth="yes"/>
			<point x="260" y="13"/>
			<point x="243" y="46"/>
			<point x="243" y="103" type="curve" smooth="yes"/>
			<point x="243" y="207"/>
			<point x="247" y="316"/>
			<point x="260" y="451" type="curve"/>
			<point x="324" y="443"/>
			<point x="382" y="433"/>
			<point x="422" y="433" type="curve" smooth="yes"/>
			<point x="458" y="433"/>
			<point x="485" y="455"/>
			<point x="485" y="493" type="curve" smooth="yes"/>
			<point x="485" y="515"/>
			<point x="472" y="529"/>
			<point x="458" y="540" type="curve"/>
			<point x="347" y="502" type="line"/>
			<point x="112" y="528" type="line" smooth="yes"/>
			<point x="51" y="535"/>
			<point x="15" y="510"/>
			<point x="15" y="464" type="curve" smooth="yes"/>
			<point x="15" y="423"/>
			<point x="45" y="401"/>
			<point x="90" y="407" type="curve"/>
			<point x="95" y="421" type="line" smooth="yes"/>
			<point x="108" y="457"/>
			<point x="120" y="460"/>
			<point x="139" y="460" type="curve" smooth="yes"/>
			<point x="170" y="460"/>
			<point x="202" y="458"/>
			<point x="234" y="454" type="curve"/>
			<point x="181" y="242"/>
			<point x="158" y="136"/>
			<point x="158" y="96" type="curve" smooth="yes"/>
			<point x="158" y="50"/>
			<point x="178" y="-14"/>
		</contour>
	</outline>
</glyph>
<glyph name="phi" format="2">
	<unicode hex="03C6"/>
	<advance width="725"/>
	<outline>
		<contour>
			<point x="265" y="-230" type="line"/>
			<point x="299" y="-223" type="line"/>
			<point x="343" y="-10" type="line"/>
			<point x="556" y="7"/>
			<point x="679" y="178"/>
			<point x="679" y="327" type="curve" smooth="yes"/>
			<point x="679" y="447"/>
			<point x="616" y="527"/>
			<point x="504" y="527" type="curve" smooth="yes"/>
			<point x="425" y="527"/>
			<point x="360" y="488"/>
			<point x="340" y="354" type="curve" smooth="yes"/>
			<point x="288" y="6" type="line"/>
			<point x="191" y="17"/>
			<point x="142" y="112"/>
			<point x="142" y="225" type="curve" smooth="yes"/>
			<point x="142" y="390"/>
			<point x="219" y="477"/>
			<point x="280" y="505" type="curve"/>
			<point x="267" y="526" type="line"/>
			<point x="165" y="501"/>
			<point x="47" y="400"/>
			<point x="47" y="222" type="curve" smooth="yes"/>
			<point x="47" y="80"/>
			<point x="125" y="-4"/>
			<point x="285" y="-11" type="curve"/>
			<point x="254" y="-225" type="line"/>
		</contour>
		<contour>
			<point x="347" y="7" type="curve"/>
			<point x="435" y="441" type="line" smooth="yes"/>
			<point x="446" y="493"/>
			<point x="472" y="509"/>
			<point x="502" y="509" type="curve" smooth="yes"/>
			<point x="552" y="509"/>
			<point x="585" y="459"/>
			<point x="585" y="347" type="curve" smooth="yes"/>
			<point x="585" y="210"/>
			<point x="499" y="25"/>
		</contour>
	</outline>
</glyph>
<glyph name="psi" format="2">
	<unicode hex="03C8"/>
	<advance width="734"/>
	<outline>
		<contour>
			<point x="271" y="-230" type="line"/>
			<point x="348" y="-215" type="line"/>
			<point x="378" y="-13" type="line"/>
			<point x="608" y="12"/>
			<point x="680" y="221"/>
			<point x="680" y="384" type="curve" smooth="yes"/>
			<point x="680" y="483"/>
			<point x="646" y="527"/>
			<point x="593" y="527" type="curve" smooth="yes"/>
			<point x="552" y="527"/>
			<point x="533" y="496"/>
			<point x="535" y="452" type="curve"/>
			<point x="582" y="441" type="line" smooth="yes"/>
			<point x="630" y="430"/>
			<point x="652" y="416"/>
			<point x="652" y="360" type="curve" smooth="yes"/>
			<point x="652" y="215"/>
			<point x="563" y="54"/>
			<point x="385" y="32" type="curve"/>
			<point x="489" y="730" type="line"/>
			<point x="458" y="730" type="line"/>
			<point x="313" y="31" type="line"/>
			<point x="207" y="41"/>
			<point x="182" y="94"/>
			<point x="182" y="145" type="curve" smooth="yes"/>
			<point x="182" y="202"/>
			<point x="228" y="423"/>
			<point x="228" y="452" type="curve" smooth="yes"/>
			<point x="228" y="498"/>
			<point x="198" y="527"/>
			<point x="147" y="527" type="curve" smooth="yes"/>
			<point x="91" y="527"/>
			<point x="40" y="489"/>
			<point x="28" y="478" type="curve"/>
			<point x="36" y="467" type="line"/>
			<point x="64" y="488"/>
			<point x="85" y="496"/>
			<point x="105" y="496" type="curve" smooth="yes"/>
			<point x="129" y="496"/>
			<point x="142" y="483"/>
			<point x="142" y="469" type="curve" smooth="yes"/>
			<point x="142" y="400"/>
			<point x="97" y="210"/>
			<point x="97" y="140" type="curve" smooth="yes"/>
			<point x="97" y="42"/>
			<point x="162" y="-10"/>
			<point x="303" y="-15" type="curve"/>
			<point x="260" y="-225" type="line"/>
		</contour>
	</outline>
</glyph>
<glyph name="omega" format="2">
	<unicode hex="03C9"/>
	<advance width="733"/>
	<outline>
		<contour>
			<point x="200" y="-14" type="curve" smooth="yes"/>
			<point x="289" y="-14"/>
			<point x="336" y="62"/>
			<point x="355" y="126" type="curve"/>
			<point x="358" y="126" type="line"/>
			<point x="375" y="45"/>
			<point x="410" y="-14"/>
			<point x="501" y="-14" type="curve" smooth="yes"/>
			<point x="573" y="-14"/>
			<point x="680" y="45"/>
			<point x="680" y="258" type="curve" smooth="yes"/>
			<point x="680" y="367"/>
			<point x="641" y="462"/>
			<point x="597" y="522" type="curve"/>
			<point x="586" y="527" type="line"/>
			<point x="501" y="504" type="line"/>
			<point x="552" y="437"/>
			<point x="589" y="327"/>
			<point x="589" y="243" type="curve" smooth="yes"/>
			<point x="589" y="85"/>
			<point x="539" y="32"/>
			<point x="483" y="32" type="curve" smooth="yes"/>
			<point x="424" y="32"/>
			<point x="399" y="73"/>
			<point x="383" y="157" type="curve"/>
			<point x="412" y="208"/>
			<point x="421" y="241"/>
			<point x="421" y="264" type="curve" smooth="yes"/>
			<point x="421" y="311"/>
			<point x="397" y="326"/>
			<point x="369" y="326" type="curve" smooth="yes"/>
			<point x="340" y="326"/>
			<point x="312" y="308"/>
			<point x="312" y="256" type="curve" smooth="yes"/>
			<point x="312" y="235"/>
			<point x="315" y="212"/>
			<point x="331" y="157" type="curve"/>
			<point x="314" y="105"/>
			<point x="288" y="32"/>
			<point x="217" y="32" type="curve" smooth="yes"/>
			<point x="167" y="32"/>
			<point x="139" y="77"/>
			<point x="139" y="178" type="curve" smooth="yes"/>
			<point x="139" y="353"/>
			<point x="206" y="454"/>
			<point x="271" y="520" type="curve"/>
			<point x="263" y="527" type="line"/>
			<point x="167" y="487"/>
			<point x="50" y="377"/>
			<point x="50" y="170" type="curve" smooth="yes"/>
			<point x="50" y="61"/>
			<point x="105" y="-14"/>
		</contour>
	</outline>
	<anchor name="bottom" x="358" y="-30"/>
	<anchor name="top" x="386" y="551"/>
</glyph>
<glyph name="KoppaArchaic" format="2">
	<unicode hex="03D8"/>
	<advance width="714"/>
	<outline>
		<contour>
			<point x="292" y="-213" type="line"/>
			<point x="378" y="-204" type="line"/>
			<point x="380" y="-137"/>
			<point x="384" y="-57"/>
			<point x="387" y="-13" type="curve"/>
			<point x="563" y="2"/>
			<point x="678" y="151"/>
			<point x="678" y="397" type="curve" smooth="yes"/>
			<point x="678" y="622"/>
			<point x="567" y="745"/>
			<point x="390" y="745" type="curve" smooth="yes"/>
			<point x="190" y="745"/>
			<point x="63" y="601"/>
			<point x="63" y="343" type="curve" smooth="yes"/>
			<point x="63" y="133"/>
			<point x="160" y="8"/>
			<point x="314" y="-11" type="curve"/>
			<point x="309" y="-69"/>
			<point x="295" y="-143"/>
			<point x="285" y="-208" type="curve"/>
		</contour>
		<contour>
			<point x="388" y="5" type="curve"/>
			<point x="393" y="58"/>
			<point x="409" y="165"/>
			<point x="418" y="211" type="curve"/>
			<point x="412" y="216" type="line"/>
			<point x="325" y="207" type="line"/>
			<point x="321" y="153"/>
			<point x="318" y="54"/>
			<point x="316" y="11" type="curve"/>
			<point x="217" y="38"/>
			<point x="158" y="149"/>
			<point x="158" y="364" type="curve" smooth="yes"/>
			<point x="158" y="622"/>
			<point x="239" y="728"/>
			<point x="376" y="728" type="curve" smooth="yes"/>
			<point x="506" y="728"/>
			<point x="580" y="628"/>
			<point x="580" y="385" type="curve" smooth="yes"/>
			<point x="580" y="125"/>
			<point x="511" y="14"/>
		</contour>
	</outline>
</glyph>
<glyph name="Stigma" format="2">
	<unicode hex="03DA"/>
	<advance width="611"/>
	<outline>
		<contour>
			<point x="421" y="-209" type="line"/>
			<point x="477" y="-155"/>
			<point x="509" y="-103"/>
			<point x="509" y="-37" type="curve" smooth="yes"/>
			<point x="509" y="33"/>
			<point x="474" y="88"/>
			<point x="339" y="119" type="curve" smooth="yes"/>
			<point x="221" y="147"/>
			<point x="161" y="226"/>
			<point x="159" y="372" type="curve" smooth="yes"/>
			<point x="159" y="614"/>
			<point x="246" y="722"/>
			<point x="378" y="722" type="curve" smooth="yes"/>
			<point x="446" y="722"/>
			<point x="503" y="694"/>
			<point x="503" y="643" type="curve" smooth="yes"/>
			<point x="503" y="631"/>
			<point x="500" y="618"/>
			<point x="493" y="604" type="curve" smooth="yes"/>
			<point x="475" y="566" type="line"/>
			<point x="494" y="550"/>
			<point x="523" y="540"/>
			<point x="545" y="540" type="curve" smooth="yes"/>
			<point x="574" y="540"/>
			<point x="598" y="565"/>
			<point x="598" y="600" type="curve" smooth="yes"/>
			<point x="598" y="688"/>
			<point x="493" y="745"/>
			<point x="380" y="745" type="curve" smooth="yes"/>
			<point x="173" y="745"/>
			<point x="64" y="574"/>
			<point x="64" y="357" type="curve" smooth="yes"/>
			<point x="64" y="164"/>
			<point x="151" y="69"/>
			<point x="306" y="28" type="curve" smooth="yes"/>
			<point x="429" y="-5"/>
			<point x="458" y="-41"/>
			<point x="458" y="-88" type="curve" smooth="yes"/>
			<point x="458" y="-132"/>
			<point x="442" y="-170"/>
			<point x="414" y="-201" type="curve"/>
		</contour>
	</outline>
</glyph>
<glyph name="digamma" format="2">
	<unicode hex="03DD"/>
	<advance width="315"/>
	<outline>
		<contour>
			<point x="50" y="0" type="line"/>
			<point x="125" y="0" type="line"/>
			<point x="149" y="488" type="line"/>
			<point x="290" y="488" type="line"/>
			<point x="291" y="513" type="line"/>
			<point x="149" y="513" type="line"/>
			<point x="154" y="610" type="line" smooth="yes"/>
			<point x="159" y="705"/>
			<point x="189" y="765"/>
			<point x="259" y="765" type="curve" smooth="yes"/>
			<point x="318" y="765"/>
			<point x="343" y="724"/>
			<point x="310" y="673" type="curve" smooth="yes"/>
			<point x="292" y="644" type="line"/>
			<point x="304" y="628"/>
			<point x="324" y="613"/>
			<point x="345" y="613" type="curve" smooth="yes"/>
			<point x="380" y="613"/>
			<point x="403" y="641"/>
			<point x="403" y="676" type="curve" smooth="yes"/>
			<point x="403" y="733"/>
			<point x="352" y="782"/>
			<point x="265" y="782" type="curve" smooth="yes"/>
			<point x="137" y="782"/>
			<point x="73" y="683"/>
			<point x="65" y="559" type="curve" smooth="yes"/>
			<point x="62" y="514" type="line"/>
			<point x="-19" y="506" type="line"/>
			<point x="-22" y="488" type="line"/>
			<point x="62" y="488" type="line"/>
			<point x="39" y="5" type="line"/>
		</contour>
	</outline>
</glyph>
<glyph name="koppa" format="2">
	<unicode hex="03DF"/>
	<advance width="455"/>
	<outline>
		<contour>
			<point x="212" y="-59" type="curve" smooth="yes"/>
			<point x="261" y="-59"/>
			<point x="291" y="-35"/>
			<point x="311" y="-11" type="curve"/>
			<point x="306" y="-4" type="line"/>
			<point x="289" y="-14"/>
			<point x="273" y="-18"/>
			<point x="260" y="-18" type="curve" smooth="yes"/>
			<point x="232" y="-18"/>
			<point x="220" y="-4"/>
			<point x="220" y="19" type="curve" smooth="yes"/>
			<point x="220" y="44"/>
			<point x="220" y="58"/>
			<point x="293" y="132" type="curve" smooth="yes"/>
			<point x="420" y="263" type="line"/>
			<point x="421" y="274" type="line"/>
			<point x="144" y="274" type="line"/>
			<point x="253" y="378" type="line" smooth="yes"/>
			<point x="318" y="438"/>
			<point x="335" y="471"/>
			<point x="335" y="504" type="curve" smooth="yes"/>
			<point x="335" y="544"/>
			<point x="307" y="568"/>
			<point x="264" y="568" type="curve" smooth="yes"/>
			<point x="215" y="568"/>
			<point x="185" y="544"/>
			<point x="165" y="520" type="curve"/>
			<point x="170" y="513" type="line"/>
			<point x="187" y="523"/>
			<point x="203" y="527"/>
			<point x="216" y="527" type="curve" smooth="yes"/>
			<point x="244" y="527"/>
			<point x="256" y="513"/>
			<point x="256" y="490" type="curve" smooth="yes"/>
			<point x="256" y="465"/>
			<point x="253" y="453"/>
			<point x="183" y="377" type="curve" smooth="yes"/>
			<point x="45" y="226" type="line"/>
			<point x="44" y="215" type="line"/>
			<point x="321" y="215" type="line"/>
			<point x="223" y="131" type="line" smooth="yes"/>
			<point x="156" y="74"/>
			<point x="141" y="38"/>
			<point x="141" y="5" type="curve" smooth="yes"/>
			<point x="141" y="-35"/>
			<point x="169" y="-59"/>
		</contour>
	</outline>
</glyph>
<glyph name="Sampi" format="2">
	<unicode hex="03E0"/>
	<advance width="814"/>
	<outline>
		<contour>
			<point x="265" y="-181" type="line"/>
			<point x="284" y="-169" type="line"/>
			<point x="261" y="-121" type="line" smooth="yes"/>
			<point x="257" y="-108"/>
			<point x="260" y="-100"/>
			<point x="277" y="-87" type="curve" smooth="yes"/>
			<point x="653" y="188" type="line"/>
			<point x="664" y="139"/>
			<point x="667" y="88"/>
			<point x="667" y="39" type="curve" smooth="yes"/>
			<point x="667" y="-23"/>
			<point x="661" y="-90"/>
			<point x="653" y="-170" type="curve"/>
			<point x="730" y="-172" type="line"/>
			<point x="739" y="-105"/>
			<point x="746" y="-25"/>
			<point x="746" y="38" type="curve" smooth="yes"/>
			<point x="746" y="366"/>
			<point x="576" y="528"/>
			<point x="212" y="532" type="curve"/>
			<point x="209" y="509" type="line"/>
			<point x="340" y="497"/>
			<point x="434" y="464"/>
			<point x="503" y="418" type="curve"/>
			<point x="129" y="142" type="line" smooth="yes"/>
			<point x="107" y="126"/>
			<point x="102" y="127"/>
			<point x="86" y="147" type="curve" smooth="yes"/>
			<point x="62" y="175" type="line"/>
			<point x="45" y="165" type="line"/>
			<point x="152" y="-1" type="line"/>
			<point x="170" y="11" type="line"/>
			<point x="148" y="59" type="line" smooth="yes"/>
			<point x="144" y="71"/>
			<point x="146" y="81"/>
			<point x="164" y="93" type="curve" smooth="yes"/>
			<point x="552" y="377" type="line"/>
			<point x="590" y="340"/>
			<point x="616" y="297"/>
			<point x="634" y="251" type="curve"/>
			<point x="243" y="-38" type="line" smooth="yes"/>
			<point x="221" y="-53"/>
			<point x="216" y="-53"/>
			<point x="199" y="-33" type="curve" smooth="yes"/>
			<point x="176" y="-5" type="line"/>
			<point x="159" y="-15" type="line"/>
		</contour>
	</outline>
</glyph>
<glyph name="Lje-cy" format="2">
	<unicode hex="0409"/>
	<advance width="942"/>
	<outline>
		<contour>
			<point x="510" y="707" type="line"/>
			<point x="483" y="30" type="line"/>
			<point x="399" y="18" type="line"/>
			<point x="397" y="0" type="line"/>
			<point x="619" y="0" type="line" smooth="yes"/>
			<point x="814" y="0"/>
			<point x="920" y="89"/>
			<point x="920" y="231" type="curve" smooth="yes"/>
			<point x="920" y="345"/>
			<point x="824" y="409"/>
			<point x="702" y="409" type="curve" smooth="yes"/>
			<point x="666" y="409"/>
			<point x="643" y="405"/>
			<point x="614" y="400" type="curve"/>
			<point x="613" y="378" type="line"/>
			<point x="637" y="382"/>
			<point x="653" y="384"/>
			<point x="681" y="384" type="curve" smooth="yes"/>
			<point x="764" y="384"/>
			<point x="824" y="337"/>
			<point x="824" y="226" type="curve" smooth="yes"/>
			<point x="824" y="94"/>
			<point x="760" y="20"/>
			<point x="628" y="20" type="curve" smooth="yes"/>
			<point x="569" y="20" type="line"/>
			<point x="596" y="698" type="line"/>
			<point x="685" y="713" type="line"/>
			<point x="687" y="730" type="line"/>
			<point x="188" y="730" type="line"/>
			<point x="186" y="713" type="line"/>
			<point x="268" y="698" type="line"/>
			<point x="257" y="493"/>
			<point x="225" y="158"/>
			<point x="131" y="56" type="curve"/>
			<point x="79" y="129" type="line"/>
			<point x="37" y="118"/>
			<point x="10" y="92"/>
			<point x="10" y="55" type="curve" smooth="yes"/>
			<point x="10" y="16"/>
			<point x="40" y="-9"/>
			<point x="79" y="-9" type="curve" smooth="yes"/>
			<point x="226" y="-9"/>
			<point x="280" y="410"/>
			<point x="295" y="707" type="curve"/>
		</contour>
	</outline>
</glyph>
<glyph name="Zhe-cy" format="2">
	<unicode hex="0416"/>
	<advance width="1012"/>
	<outline>
		<contour>
			<point x="477" y="375" type="curve"/>
			<point x="463" y="30" type="line"/>
			<point x="379" y="18" type="line"/>
			<point x="376" y="0" type="line"/>
			<point x="642" y="0" type="line"/>
			<point x="644" y="18" type="line"/>
			<point x="551" y="30" type="line"/>
			<point x="564" y="375" type="line"/>
			<point x="594" y="375"/>
			<point x="613" y="374"/>
			<point x="636" y="365" type="curve" smooth="yes"/>
			<point x="688" y="345"/>
			<point x="714" y="295"/>
			<point x="746" y="190" type="curve" smooth="yes"/>
			<point x="754" y="164"/>
			<point x="761" y="141"/>
			<point x="768" y="121" type="curve" smooth="yes"/>
			<point x="807" y="9"/>
			<point x="846" y="-14"/>
			<point x="908" y="-14" type="curve" smooth="yes"/>
			<point x="948" y="-14"/>
			<point x="988" y="5"/>
			<point x="1015" y="31" type="curve"/>
			<point x="1006" y="44" type="line"/>
			<point x="986" y="32"/>
			<point x="968" y="26"/>
			<point x="952" y="26" type="curve" smooth="yes"/>
			<point x="913" y="26"/>
			<point x="889" y="41"/>
			<point x="851" y="150" type="curve" smooth="yes"/>
			<point x="844" y="169"/>
			<point x="837" y="189"/>
			<point x="830" y="208" type="curve" smooth="yes"/>
			<point x="787" y="327"/>
			<point x="726" y="379"/>
			<point x="626" y="388" type="curve"/>
			<point x="626" y="391" type="line"/>
			<point x="691" y="408"/>
			<point x="734" y="442"/>
			<point x="793" y="562" type="curve" smooth="yes"/>
			<point x="823" y="623"/>
			<point x="842" y="661"/>
			<point x="857" y="661" type="curve" smooth="yes"/>
			<point x="868" y="661"/>
			<point x="873" y="656"/>
			<point x="883" y="644" type="curve"/>
			<point x="912" y="612" type="line"/>
			<point x="938" y="626"/>
			<point x="962" y="655"/>
			<point x="962" y="689" type="curve" smooth="yes"/>
			<point x="962" y="718"/>
			<point x="936" y="744"/>
			<point x="908" y="744" type="curve" smooth="yes"/>
			<point x="854" y="744"/>
			<point x="818" y="673"/>
			<point x="778" y="587" type="curve" smooth="yes"/>
			<point x="734" y="492"/>
			<point x="688" y="439"/>
			<point x="644" y="416" type="curve" smooth="yes"/>
			<point x="619" y="403"/>
			<point x="591" y="399"/>
			<point x="565" y="399" type="curve"/>
			<point x="577" y="698" type="line"/>
			<point x="666" y="713" type="line"/>
			<point x="668" y="730" type="line"/>
			<point x="410" y="730" type="line"/>
			<point x="408" y="713" type="line"/>
			<point x="490" y="698" type="line"/>
			<point x="478" y="399" type="line"/>
			<point x="452" y="399"/>
			<point x="431" y="402"/>
			<point x="409" y="413" type="curve" smooth="yes"/>
			<point x="378" y="429"/>
			<point x="332" y="459"/>
			<point x="283" y="587" type="curve" smooth="yes"/>
			<point x="250" y="673"/>
			<point x="221" y="744"/>
			<point x="167" y="744" type="curve" smooth="yes"/>
			<point x="139" y="744"/>
			<point x="111" y="718"/>
			<point x="108" y="689" type="curve" smooth="yes"/>
			<point x="104" y="655"/>
			<point x="127" y="626"/>
			<point x="152" y="612" type="curve"/>
			<point x="183" y="644" type="line" smooth="yes"/>
			<point x="195" y="656"/>
			<point x="200" y="661"/>
			<point x="211" y="661" type="curve" smooth="yes"/>
			<point x="226" y="661"/>
			<point x="242" y="623"/>
			<point x="266" y="562" type="curve" smooth="yes"/>
			<point x="314" y="441"/>
			<point x="353" y="414"/>
			<point x="418" y="391" type="curve"/>
			<point x="418" y="388" type="line"/>
			<point x="317" y="379"/>
			<point x="250" y="326"/>
			<point x="196" y="207" type="curve" smooth="yes"/>
			<point x="186" y="185"/>
			<point x="178" y="166"/>
			<point x="170" y="149" type="curve" smooth="yes"/>
			<point x="120" y="44"/>
			<point x="99" y="26"/>
			<point x="60" y="26" type="curve" smooth="yes"/>
			<point x="44" y="26"/>
			<point x="27" y="32"/>
			<point x="8" y="44" type="curve"/>
			<point x="-2" y="31" type="line"/>
			<point x="23" y="5"/>
			<point x="61" y="-14"/>
			<point x="101" y="-14" type="curve" smooth="yes"/>
			<point x="196" y="-14"/>
			<point x="233" y="67"/>
			<point x="285" y="190" type="curve" smooth="yes"/>
			<point x="344" y="329"/>
			<point x="375" y="351"/>
			<point x="410" y="365" type="curve" smooth="yes"/>
			<point x="431" y="373"/>
			<point x="451" y="375"/>
		</contour>
	</outline>
	<guideline x="1024" y="865" angle="180"/>
</glyph>
<glyph name="U-cy" format="2">
	<unicode hex="0423"/>
	<advance width="638"/>
	<outline>
		<contour>
			<point x="380" y="234" type="line"/>
			<point x="188" y="699" type="line"/>
			<point x="275" y="711" type="line"/>
			<point x="278" y="730" type="line"/>
			<point x="22" y="730" type="line"/>
			<point x="19" y="711" type="line"/>
			<point x="96" y="700" type="line"/>
			<point x="333" y="136" type="line"/>
			<point x="305" y="74"/>
			<point x="273" y="39"/>
			<point x="236" y="39" type="curve" smooth="yes"/>
			<point x="224" y="39"/>
			<point x="214" y="41"/>
			<point x="205" y="45" type="curve"/>
			<point x="179" y="131" type="line"/>
			<point x="128" y="134"/>
			<point x="95" y="106"/>
			<point x="95" y="63" type="curve" smooth="yes"/>
			<point x="95" y="18"/>
			<point x="135" y="-12"/>
			<point x="193" y="-12" type="curve" smooth="yes"/>
			<point x="278" y="-12"/>
			<point x="323" y="41"/>
			<point x="381" y="170" type="curve" smooth="yes"/>
			<point x="466" y="357"/>
			<point x="542" y="529"/>
			<point x="617" y="700" type="curve"/>
			<point x="695" y="711" type="line"/>
			<point x="698" y="730" type="line"/>
			<point x="495" y="730" type="line"/>
			<point x="492" y="711" type="line"/>
			<point x="588" y="700" type="line"/>
			<point x="520" y="542"/>
			<point x="453" y="389"/>
			<point x="383" y="234" type="curve"/>
		</contour>
	</outline>
	<anchor name="top" x="388" y="730"/>
</glyph>
<glyph name="Tse-cy" format="2">
	<unicode hex="0426"/>
	<advance width="777"/>
	<outline>
		<contour>
			<point x="230" y="23" type="line"/>
			<point x="257" y="698" type="line"/>
			<point x="346" y="713" type="line"/>
			<point x="348" y="730" type="line"/>
			<point x="90" y="730" type="line"/>
			<point x="88" y="713" type="line"/>
			<point x="170" y="698" type="line"/>
			<point x="143" y="30" type="line"/>
			<point x="59" y="18" type="line"/>
			<point x="57" y="0" type="line"/>
			<point x="635" y="0" type="line" smooth="yes"/>
			<point x="700" y="0"/>
			<point x="712" y="-27"/>
			<point x="703" y="-165" type="curve"/>
			<point x="725" y="-167" type="line"/>
			<point x="750" y="23" type="line"/>
			<point x="632" y="23" type="line"/>
			<point x="658" y="698" type="line"/>
			<point x="747" y="713" type="line"/>
			<point x="749" y="730" type="line"/>
			<point x="492" y="730" type="line"/>
			<point x="490" y="713" type="line"/>
			<point x="572" y="698" type="line"/>
			<point x="544" y="23" type="line"/>
		</contour>
	</outline>
</glyph>
<glyph name="Shcha-cy" format="2">
	<unicode hex="0429"/>
	<advance width="1126"/>
	<outline>
		<contour>
			<point x="230" y="23" type="line"/>
			<point x="257" y="698" type="line"/>
			<point x="346" y="713" type="line"/>
			<point x="348" y="730" type="line"/>
			<point x="90" y="730" type="line"/>
			<point x="88" y="713" type="line"/>
			<point x="170" y="698" type="line"/>
			<point x="143" y="30" type="line"/>
			<point x="59" y="18" type="line"/>
			<point x="57" y="0" type="line"/>
			<point x="981" y="0" type="line" smooth="yes"/>
			<point x="1034" y="0"/>
			<point x="1058" y="-21"/>
			<point x="1055" y="-99" type="curve" smooth="yes"/>
			<point x="1052" y="-164" type="line"/>
			<point x="1074" y="-166" type="line"/>
			<point x="1099" y="23" type="line"/>
			<point x="981" y="23" type="line"/>
			<point x="1008" y="698" type="line"/>
			<point x="1097" y="713" type="line"/>
			<point x="1099" y="730" type="line"/>
			<point x="842" y="730" type="line"/>
			<point x="840" y="713" type="line"/>
			<point x="922" y="698" type="line"/>
			<point x="894" y="23" type="line"/>
			<point x="606" y="23" type="line"/>
			<point x="632" y="698" type="line"/>
			<point x="721" y="713" type="line"/>
			<point x="723" y="730" type="line"/>
			<point x="466" y="730" type="line"/>
			<point x="464" y="713" type="line"/>
			<point x="546" y="698" type="line"/>
			<point x="518" y="23" type="line"/>
		</contour>
	</outline>
	<guideline x="1074" y="-166" angle="0"/>
</glyph>
<glyph name="Yeru-cy" format="2">
	<unicode hex="042B"/>
	<advance width="902"/>
	<outline>
		<contour>
			<point x="167" y="698" type="line"/>
			<point x="141" y="30" type="line"/>
			<point x="57" y="18" type="line"/>
			<point x="55" y="0" type="line"/>
			<point x="282" y="0" type="line" smooth="yes"/>
			<point x="477" y="0"/>
			<point x="574" y="89"/>
			<point x="574" y="234" type="curve" smooth="yes"/>
			<point x="574" y="345"/>
			<point x="485" y="409"/>
			<point x="363" y="409" type="curve" smooth="yes"/>
			<point x="329" y="409"/>
			<point x="301" y="405"/>
			<point x="272" y="400" type="curve"/>
			<point x="271" y="378" type="line"/>
			<point x="295" y="382"/>
			<point x="316" y="384"/>
			<point x="342" y="384" type="curve" smooth="yes"/>
			<point x="428" y="384"/>
			<point x="478" y="334"/>
			<point x="478" y="226" type="curve" smooth="yes"/>
			<point x="478" y="94"/>
			<point x="423" y="20"/>
			<point x="281" y="20" type="curve" smooth="yes"/>
			<point x="227" y="20" type="line"/>
			<point x="254" y="695" type="line"/>
			<point x="343" y="713" type="line"/>
			<point x="345" y="730" type="line"/>
			<point x="87" y="730" type="line"/>
			<point x="85" y="713" type="line"/>
		</contour>
		<contour>
			<point x="708" y="698" type="line"/>
			<point x="681" y="30" type="line"/>
			<point x="597" y="18" type="line"/>
			<point x="594" y="0" type="line"/>
			<point x="860" y="0" type="line"/>
			<point x="862" y="18" type="line"/>
			<point x="769" y="30" type="line"/>
			<point x="795" y="698" type="line"/>
			<point x="884" y="713" type="line"/>
			<point x="886" y="730" type="line"/>
			<point x="628" y="730" type="line"/>
			<point x="626" y="713" type="line"/>
		</contour>
	</outline>
	<anchor name="top" x="495" y="730"/>
</glyph>
<glyph name="Softsign-cy" format="2">
	<unicode hex="042C"/>
	<advance width="608"/>
	<outline>
		<contour>
			<point x="170" y="698" type="line"/>
			<point x="144" y="30" type="line"/>
			<point x="60" y="18" type="line"/>
			<point x="58" y="0" type="line"/>
			<point x="285" y="0" type="line" smooth="yes"/>
			<point x="480" y="0"/>
			<point x="586" y="89"/>
			<point x="586" y="231" type="curve" smooth="yes"/>
			<point x="586" y="345"/>
			<point x="491" y="409"/>
			<point x="366" y="409" type="curve" smooth="yes"/>
			<point x="332" y="409"/>
			<point x="304" y="405"/>
			<point x="275" y="400" type="curve"/>
			<point x="274" y="378" type="line"/>
			<point x="298" y="382"/>
			<point x="319" y="384"/>
			<point x="345" y="384" type="curve" smooth="yes"/>
			<point x="431" y="384"/>
			<point x="490" y="337"/>
			<point x="490" y="226" type="curve" smooth="yes"/>
			<point x="490" y="94"/>
			<point x="426" y="20"/>
			<point x="294" y="20" type="curve" smooth="yes"/>
			<point x="230" y="20" type="line"/>
			<point x="257" y="695" type="line"/>
			<point x="346" y="713" type="line"/>
			<point x="348" y="730" type="line"/>
			<point x="90" y="730" type="line"/>
			<point x="88" y="713" type="line"/>
		</contour>
	</outline>
	<guideline x="321" y="410" angle="0"/>
</glyph>
<glyph name="Ereversed-cy" format="2">
	<unicode hex="042D"/>
	<advance width="619"/>
	<outline>
		<contour>
			<point x="486" y="380" type="curve"/>
			<point x="152" y="380" type="line"/>
			<point x="152" y="357" type="line"/>
			<point x="486" y="357" type="line"/>
			<point x="486" y="126"/>
			<point x="398" y="9"/>
			<point x="266" y="9" type="curve" smooth="yes"/>
			<point x="183" y="9"/>
			<point x="124" y="51"/>
			<point x="160" y="127" type="curve" smooth="yes"/>
			<point x="178" y="165" type="line"/>
			<point x="159" y="181"/>
			<point x="130" y="191"/>
			<point x="108" y="191" type="curve" smooth="yes"/>
			<point x="79" y="191"/>
			<point x="55" y="166"/>
			<point x="55" y="131" type="curve" smooth="yes"/>
			<point x="55" y="43"/>
			<point x="151" y="-14"/>
			<point x="264" y="-14" type="curve" smooth="yes"/>
			<point x="458" y="-14"/>
			<point x="580" y="135"/>
			<point x="580" y="390" type="curve" smooth="yes"/>
			<point x="580" y="612"/>
			<point x="482" y="745"/>
			<point x="317" y="745" type="curve" smooth="yes"/>
			<point x="219" y="745"/>
			<point x="142" y="701"/>
			<point x="78" y="603" type="curve"/>
			<point x="91" y="592" type="line"/>
			<point x="151" y="676"/>
			<point x="209" y="706"/>
			<point x="290" y="706" type="curve" smooth="yes"/>
			<point x="412" y="706"/>
			<point x="486" y="606"/>
		</contour>
	</outline>
	<anchor name="top" x="308" y="730"/>
</glyph>
<glyph name="be-cy" format="2">
	<unicode hex="0431"/>
	<advance width="515"/>
	<outline>
		<contour>
			<point x="233" y="-14" type="curve" smooth="yes"/>
			<point x="374" y="-14"/>
			<point x="473" y="120"/>
			<point x="473" y="326" type="curve" smooth="yes"/>
			<point x="473" y="440"/>
			<point x="422" y="527"/>
			<point x="325" y="527" type="curve" smooth="yes"/>
			<point x="234" y="527"/>
			<point x="175" y="462"/>
			<point x="145" y="317" type="curve" smooth="yes"/>
			<point x="129" y="241" type="line"/>
			<point x="122" y="241" type="line"/>
			<point x="120" y="350"/>
			<point x="119" y="534"/>
			<point x="174" y="589" type="curve" smooth="yes"/>
			<point x="198" y="613"/>
			<point x="271" y="615"/>
			<point x="395" y="627" type="curve" smooth="yes"/>
			<point x="448" y="632"/>
			<point x="473" y="667"/>
			<point x="484" y="768" type="curve"/>
			<point x="470" y="772" type="line"/>
			<point x="461" y="723"/>
			<point x="453" y="717"/>
			<point x="424" y="712" type="curve" smooth="yes"/>
			<point x="263" y="685"/>
			<point x="245" y="681"/>
			<point x="195" y="643" type="curve" smooth="yes"/>
			<point x="122" y="588"/>
			<point x="49" y="443"/>
			<point x="49" y="251" type="curve" smooth="yes"/>
			<point x="49" y="177"/>
			<point x="72" y="-14"/>
		</contour>
		<contour>
			<point x="293" y="473" type="curve" smooth="yes"/>
			<point x="353" y="473"/>
			<point x="386" y="410"/>
			<point x="386" y="306" type="curve" smooth="yes"/>
			<point x="386" y="113"/>
			<point x="320" y="4"/>
			<point x="243" y="4" type="curve" smooth="yes"/>
			<point x="174" y="4"/>
			<point x="144" y="92"/>
			<point x="145" y="202" type="curve"/>
			<point x="180" y="400"/>
			<point x="234" y="473"/>
		</contour>
	</outline>
</glyph>
<glyph name="ge-cy" format="2">
	<unicode hex="0433"/>
	<advance width="416"/>
	<outline>
		<contour>
			<point x="59" y="451" type="curve"/>
			<point x="70" y="437" type="line"/>
			<point x="104" y="476"/>
			<point x="156" y="498"/>
			<point x="200" y="498" type="curve" smooth="yes"/>
			<point x="246" y="498"/>
			<point x="270" y="468"/>
			<point x="270" y="426" type="curve" smooth="yes"/>
			<point x="270" y="362"/>
			<point x="238" y="320"/>
			<point x="169" y="265" type="curve" smooth="yes"/>
			<point x="79" y="194"/>
			<point x="34" y="155"/>
			<point x="34" y="94" type="curve" smooth="yes"/>
			<point x="34" y="38"/>
			<point x="77" y="-14"/>
			<point x="159" y="-14" type="curve" smooth="yes"/>
			<point x="235" y="-14"/>
			<point x="303" y="21"/>
			<point x="359" y="63" type="curve"/>
			<point x="353" y="79" type="line"/>
			<point x="293" y="38"/>
			<point x="259" y="18"/>
			<point x="209" y="18" type="curve" smooth="yes"/>
			<point x="157" y="18"/>
			<point x="127" y="50"/>
			<point x="127" y="102" type="curve" smooth="yes"/>
			<point x="127" y="164"/>
			<point x="167" y="211"/>
			<point x="229" y="261" type="curve" smooth="yes"/>
			<point x="280" y="302"/>
			<point x="362" y="368"/>
			<point x="362" y="440" type="curve" smooth="yes"/>
			<point x="362" y="491"/>
			<point x="315" y="527"/>
			<point x="248" y="527" type="curve" smooth="yes"/>
			<point x="178" y="527"/>
			<point x="112" y="505"/>
		</contour>
	</outline>
	<anchor name="top" x="214" y="550"/>
</glyph>
<glyph name="de-cy" format="2">
	<unicode hex="0434"/>
	<advance width="510"/>
	<outline>
		<contour>
			<point x="126" y="724" type="curve"/>
			<point x="135" y="710" type="line"/>
			<point x="180" y="739"/>
			<point x="230" y="756"/>
			<point x="265" y="756" type="curve" smooth="yes"/>
			<point x="353" y="756"/>
			<point x="388" y="684"/>
			<point x="388" y="548" type="curve" smooth="yes"/>
			<point x="388" y="534"/>
			<point x="388" y="508"/>
			<point x="388" y="493" type="curve"/>
			<point x="362" y="509"/>
			<point x="314" y="526"/>
			<point x="277" y="526" type="curve" smooth="yes"/>
			<point x="136" y="526"/>
			<point x="47" y="393"/>
			<point x="47" y="217" type="curve" smooth="yes"/>
			<point x="47" y="66"/>
			<point x="115" y="-14"/>
			<point x="221" y="-14" type="curve" smooth="yes"/>
			<point x="385" y="-14"/>
			<point x="475" y="198"/>
			<point x="475" y="481" type="curve" smooth="yes"/>
			<point x="475" y="679"/>
			<point x="416" y="782"/>
			<point x="286" y="782" type="curve" smooth="yes"/>
			<point x="233" y="782"/>
			<point x="170" y="754"/>
		</contour>
		<contour>
			<point x="233" y="7" type="curve" smooth="yes"/>
			<point x="183" y="7"/>
			<point x="137" y="55"/>
			<point x="137" y="221" type="curve" smooth="yes"/>
			<point x="137" y="396"/>
			<point x="192" y="502"/>
			<point x="286" y="502" type="curve" smooth="yes"/>
			<point x="322" y="502"/>
			<point x="352" y="493"/>
			<point x="387" y="474" type="curve"/>
			<point x="387" y="408"/>
			<point x="378" y="329"/>
			<point x="368" y="266" type="curve" smooth="yes"/>
			<point x="337" y="66"/>
			<point x="295" y="7"/>
		</contour>
	</outline>
	<guideline x="402" y="782" angle="0"/>
</glyph>
<glyph name="zhe-cy" format="2">
	<unicode hex="0436"/>
	<advance width="756"/>
	<outline>
		<contour>
			<point x="390" y="145" type="line"/>
			<point x="429" y="508" type="line"/>
			<point x="346" y="508" type="line"/>
			<point x="332" y="353" type="line"/>
			<point x="263" y="294" type="line"/>
			<point x="254" y="316"/>
			<point x="246" y="338"/>
			<point x="237" y="360" type="curve" smooth="yes"/>
			<point x="191" y="474"/>
			<point x="156" y="528"/>
			<point x="110" y="528" type="curve" smooth="yes"/>
			<point x="53" y="528"/>
			<point x="27" y="475"/>
			<point x="10" y="451" type="curve"/>
			<point x="19" y="441" type="line"/>
			<point x="28" y="455"/>
			<point x="51" y="485"/>
			<point x="68" y="485" type="curve" smooth="yes"/>
			<point x="88" y="485"/>
			<point x="120" y="447"/>
			<point x="176" y="318" type="curve" smooth="yes"/>
			<point x="188" y="290"/>
			<point x="196" y="270"/>
			<point x="205" y="244" type="curve"/>
			<point x="96" y="150"/>
			<point x="41" y="93"/>
			<point x="41" y="46" type="curve" smooth="yes"/>
			<point x="41" y="10"/>
			<point x="63" y="-14"/>
			<point x="101" y="-14" type="curve" smooth="yes"/>
			<point x="131" y="-14"/>
			<point x="154" y="4"/>
			<point x="165" y="41" type="curve"/>
			<point x="129" y="66" type="line" smooth="yes"/>
			<point x="114" y="76"/>
			<point x="110" y="85"/>
			<point x="110" y="100" type="curve" smooth="yes"/>
			<point x="110" y="129"/>
			<point x="179" y="193"/>
			<point x="330" y="321" type="curve"/>
			<point x="308" y="0" type="line"/>
			<point x="391" y="0" type="line"/>
			<point x="398" y="93" type="line"/>
			<point x="421" y="150"/>
			<point x="446" y="199"/>
			<point x="471" y="248" type="curve"/>
			<point x="482" y="231"/>
			<point x="499" y="204"/>
			<point x="520" y="160" type="curve" smooth="yes"/>
			<point x="586" y="22"/>
			<point x="610" y="-14"/>
			<point x="656" y="-14" type="curve" smooth="yes"/>
			<point x="713" y="-14"/>
			<point x="739" y="39"/>
			<point x="756" y="63" type="curve"/>
			<point x="747" y="73" type="line"/>
			<point x="738" y="59"/>
			<point x="715" y="29"/>
			<point x="698" y="29" type="curve" smooth="yes"/>
			<point x="678" y="29"/>
			<point x="663" y="45"/>
			<point x="581" y="203" type="curve" smooth="yes"/>
			<point x="555" y="253"/>
			<point x="539" y="283"/>
			<point x="511" y="328" type="curve"/>
			<point x="518" y="341"/>
			<point x="534" y="374"/>
			<point x="550" y="400" type="curve" smooth="yes"/>
			<point x="585" y="457"/>
			<point x="632" y="468"/>
			<point x="660" y="437" type="curve" smooth="yes"/>
			<point x="680" y="414" type="line"/>
			<point x="700" y="431"/>
			<point x="717" y="447"/>
			<point x="717" y="475" type="curve" smooth="yes"/>
			<point x="717" y="505"/>
			<point x="695" y="527"/>
			<point x="656" y="527" type="curve" smooth="yes"/>
			<point x="607" y="527"/>
			<point x="565" y="481"/>
			<point x="520" y="398" type="curve" smooth="yes"/>
			<point x="469" y="304"/>
			<point x="434" y="225"/>
			<point x="394" y="145" type="curve"/>
		</contour>
	</outline>
	<guideline x="486" y="508" angle="0"/>
</glyph>
<glyph name="en-cy" format="2">
	<unicode hex="043D"/>
	<advance width="577"/>
	<outline>
		<contour>
			<point x="386" y="256" type="line"/>
			<point x="370" y="69" type="line" smooth="yes"/>
			<point x="365" y="14"/>
			<point x="389" y="-14"/>
			<point x="442" y="-14" type="curve" smooth="yes"/>
			<point x="483" y="-14"/>
			<point x="532" y="14"/>
			<point x="555" y="35" type="curve"/>
			<point x="547" y="46" type="line"/>
			<point x="528" y="31"/>
			<point x="504" y="17"/>
			<point x="480" y="17" type="curve" smooth="yes"/>
			<point x="458" y="17"/>
			<point x="453" y="30"/>
			<point x="455" y="60" type="curve" smooth="yes"/>
			<point x="490" y="508" type="line"/>
			<point x="408" y="508" type="line"/>
			<point x="388" y="279" type="line"/>
			<point x="190" y="279" type="line"/>
			<point x="194" y="328"/>
			<point x="198" y="376"/>
			<point x="200" y="427" type="curve" smooth="yes"/>
			<point x="203" y="492"/>
			<point x="187" y="527"/>
			<point x="130" y="527" type="curve" smooth="yes"/>
			<point x="90" y="527"/>
			<point x="43" y="506"/>
			<point x="22" y="494" type="curve"/>
			<point x="28" y="481" type="line"/>
			<point x="56" y="493"/>
			<point x="77" y="499"/>
			<point x="90" y="499" type="curve" smooth="yes"/>
			<point x="110" y="499"/>
			<point x="122" y="488"/>
			<point x="120" y="459" type="curve" smooth="yes"/>
			<point x="88" y="0" type="line"/>
			<point x="170" y="0" type="line"/>
			<point x="188" y="256" type="line"/>
		</contour>
	</outline>
</glyph>
<glyph name="ef-cy" format="2">
	<unicode hex="0444"/>
	<advance width="814"/>
	<outline>
		<contour>
			<point x="443" y="359" type="line"/>
			<point x="464" y="757" type="line"/>
			<point x="457" y="766" type="line"/>
			<point x="288" y="766" type="line"/>
			<point x="285" y="749" type="line"/>
			<point x="380" y="731" type="line"/>
			<point x="371" y="499" type="line"/>
			<point x="346" y="516"/>
			<point x="319" y="526"/>
			<point x="281" y="526" type="curve" smooth="yes"/>
			<point x="140" y="526"/>
			<point x="46" y="389"/>
			<point x="46" y="206" type="curve" smooth="yes"/>
			<point x="46" y="87"/>
			<point x="100" y="-14"/>
			<point x="206" y="-14" type="curve" smooth="yes"/>
			<point x="293" y="-14"/>
			<point x="328" y="45"/>
			<point x="357" y="131" type="curve"/>
			<point x="363" y="130" type="line"/>
			<point x="342" y="-219" type="line"/>
			<point x="349" y="-228" type="line"/>
			<point x="514" y="-224" type="line"/>
			<point x="517" y="-207" type="line"/>
			<point x="424" y="-189" type="line"/>
			<point x="436" y="13" type="line"/>
			<point x="460" y="-1"/>
			<point x="496" y="-14"/>
			<point x="530" y="-14" type="curve" smooth="yes"/>
			<point x="670" y="-14"/>
			<point x="768" y="120"/>
			<point x="768" y="307" type="curve" smooth="yes"/>
			<point x="768" y="440"/>
			<point x="708" y="527"/>
			<point x="610" y="527" type="curve" smooth="yes"/>
			<point x="529" y="527"/>
			<point x="487" y="469"/>
			<point x="449" y="358" type="curve"/>
		</contour>
		<contour>
			<point x="237" y="19" type="curve" smooth="yes"/>
			<point x="167" y="19"/>
			<point x="136" y="100"/>
			<point x="136" y="211" type="curve" smooth="yes"/>
			<point x="136" y="396"/>
			<point x="198" y="505"/>
			<point x="297" y="505" type="curve" smooth="yes"/>
			<point x="324" y="505"/>
			<point x="348" y="495"/>
			<point x="372" y="476" type="curve"/>
			<point x="358" y="202" type="line"/>
			<point x="335" y="92"/>
			<point x="297" y="19"/>
		</contour>
		<contour>
			<point x="585" y="492" type="curve" smooth="yes"/>
			<point x="648" y="492"/>
			<point x="678" y="421"/>
			<point x="678" y="307" type="curve" smooth="yes"/>
			<point x="678" y="116"/>
			<point x="615" y="7"/>
			<point x="521" y="7" type="curve" smooth="yes"/>
			<point x="487" y="7"/>
			<point x="461" y="18"/>
			<point x="434" y="34" type="curve"/>
			<point x="453" y="279" type="line"/>
			<point x="478" y="419"/>
			<point x="528" y="492"/>
		</contour>
	</outline>
</glyph>
<glyph name="sha-cy" format="2">
	<unicode hex="0448"/>
	<advance width="877"/>
	<outline>
		<contour>
			<point x="24" y="494" type="curve"/>
			<point x="30" y="481" type="line"/>
			<point x="58" y="493"/>
			<point x="79" y="499"/>
			<point x="92" y="499" type="curve" smooth="yes"/>
			<point x="112" y="499"/>
			<point x="119" y="486"/>
			<point x="117" y="459" type="curve" smooth="yes"/>
			<point x="91" y="159" type="line" smooth="yes"/>
			<point x="81" y="43"/>
			<point x="110" y="-14"/>
			<point x="192" y="-14" type="curve" smooth="yes"/>
			<point x="267" y="-14"/>
			<point x="299" y="33"/>
			<point x="334" y="140" type="curve" smooth="yes"/>
			<point x="407" y="362" type="line"/>
			<point x="411" y="361" type="line"/>
			<point x="403" y="291"/>
			<point x="395" y="220"/>
			<point x="389" y="150" type="curve" smooth="yes"/>
			<point x="380" y="42"/>
			<point x="401" y="-14"/>
			<point x="477" y="-14" type="curve" smooth="yes"/>
			<point x="555" y="-14"/>
			<point x="583" y="33"/>
			<point x="619" y="140" type="curve" smooth="yes"/>
			<point x="693" y="362" type="line"/>
			<point x="697" y="361" type="line"/>
			<point x="669" y="69" type="line" smooth="yes"/>
			<point x="664" y="14"/>
			<point x="689" y="-14"/>
			<point x="742" y="-14" type="curve" smooth="yes"/>
			<point x="783" y="-14"/>
			<point x="832" y="14"/>
			<point x="855" y="35" type="curve"/>
			<point x="847" y="46" type="line"/>
			<point x="828" y="31"/>
			<point x="804" y="17"/>
			<point x="780" y="17" type="curve" smooth="yes"/>
			<point x="760" y="17"/>
			<point x="753" y="28"/>
			<point x="754" y="54" type="curve" smooth="yes"/>
			<point x="770" y="513" type="line"/>
			<point x="718" y="513" type="line"/>
			<point x="600" y="151" type="line" smooth="yes"/>
			<point x="571" y="63"/>
			<point x="555" y="32"/>
			<point x="508" y="32" type="curve" smooth="yes"/>
			<point x="465" y="32"/>
			<point x="461" y="62"/>
			<point x="464" y="127" type="curve" smooth="yes"/>
			<point x="484" y="513" type="line"/>
			<point x="432" y="513" type="line"/>
			<point x="314" y="153" type="line" smooth="yes"/>
			<point x="280" y="48"/>
			<point x="251" y="32"/>
			<point x="219" y="32" type="curve" smooth="yes"/>
			<point x="186" y="32"/>
			<point x="169" y="54"/>
			<point x="175" y="125" type="curve" smooth="yes"/>
			<point x="202" y="444" type="line" smooth="yes"/>
			<point x="206" y="492"/>
			<point x="188" y="527"/>
			<point x="131" y="527" type="curve" smooth="yes"/>
			<point x="91" y="527"/>
			<point x="45" y="506"/>
		</contour>
	</outline>
</glyph>
<glyph name="shcha-cy" format="2">
	<unicode hex="0449"/>
	<advance width="895"/>
	<outline>
		<contour>
			<point x="24" y="494" type="curve"/>
			<point x="30" y="481" type="line"/>
			<point x="58" y="493"/>
			<point x="79" y="499"/>
			<point x="92" y="499" type="curve" smooth="yes"/>
			<point x="112" y="499"/>
			<point x="119" y="486"/>
			<point x="117" y="459" type="curve" smooth="yes"/>
			<point x="91" y="159" type="line" smooth="yes"/>
			<point x="81" y="43"/>
			<point x="110" y="-14"/>
			<point x="192" y="-14" type="curve" smooth="yes"/>
			<point x="267" y="-14"/>
			<point x="299" y="33"/>
			<point x="334" y="140" type="curve" smooth="yes"/>
			<point x="407" y="362" type="line"/>
			<point x="411" y="361" type="line"/>
			<point x="403" y="291"/>
			<point x="395" y="220"/>
			<point x="389" y="150" type="curve" smooth="yes"/>
			<point x="380" y="42"/>
			<point x="401" y="-14"/>
			<point x="477" y="-14" type="curve" smooth="yes"/>
			<point x="555" y="-14"/>
			<point x="583" y="33"/>
			<point x="619" y="140" type="curve" smooth="yes"/>
			<point x="693" y="362" type="line"/>
			<point x="697" y="361" type="line"/>
			<point x="681" y="179"/>
			<point x="669" y="84"/>
			<point x="669" y="69" type="curve" smooth="yes"/>
			<point x="669" y="14"/>
			<point x="689" y="-14"/>
			<point x="739" y="-14" type="curve" smooth="yes"/>
			<point x="771" y="-14"/>
			<point x="790" y="-4"/>
			<point x="810" y="12" type="curve"/>
			<point x="814" y="11" type="line"/>
			<point x="806" y="-56"/>
			<point x="789" y="-115"/>
			<point x="752" y="-186" type="curve"/>
			<point x="761" y="-194" type="line"/>
			<point x="837" y="-107"/>
			<point x="865" y="-35"/>
			<point x="885" y="68" type="curve"/>
			<point x="843" y="80" type="line"/>
			<point x="829" y="48"/>
			<point x="812" y="20"/>
			<point x="783" y="20" type="curve" smooth="yes"/>
			<point x="763" y="20"/>
			<point x="753" y="28"/>
			<point x="754" y="54" type="curve" smooth="yes"/>
			<point x="770" y="513" type="line"/>
			<point x="718" y="513" type="line"/>
			<point x="600" y="151" type="line" smooth="yes"/>
			<point x="571" y="63"/>
			<point x="555" y="32"/>
			<point x="508" y="32" type="curve" smooth="yes"/>
			<point x="465" y="32"/>
			<point x="461" y="62"/>
			<point x="464" y="127" type="curve" smooth="yes"/>
			<point x="484" y="513" type="line"/>
			<point x="432" y="513" type="line"/>
			<point x="314" y="153" type="line" smooth="yes"/>
			<point x="280" y="48"/>
			<point x="251" y="32"/>
			<point x="219" y="32" type="curve" smooth="yes"/>
			<point x="186" y="32"/>
			<point x="169" y="54"/>
			<point x="175" y="125" type="curve" smooth="yes"/>
			<point x="202" y="444" type="line" smooth="yes"/>
			<point x="206" y="492"/>
			<point x="188" y="527"/>
			<point x="131" y="527" type="curve" smooth="yes"/>
			<point x="91" y="527"/>
			<point x="45" y="506"/>
		</contour>
	</outline>
</glyph>
<glyph name="hardsign-cy" format="2">
	<unicode hex="044A"/>
	<advance width="496"/>
	<outline>
		<contour>
			<point x="228" y="284" type="curve"/>
			<point x="258" y="354"/>
			<point x="301" y="424"/>
			<point x="370" y="488" type="curve"/>
			<point x="361" y="521" type="line"/>
			<point x="331" y="513"/>
			<point x="293" y="507"/>
			<point x="249" y="507" type="curve" smooth="yes"/>
			<point x="169" y="507"/>
			<point x="126" y="521"/>
			<point x="93" y="521" type="curve" smooth="yes"/>
			<point x="55" y="521"/>
			<point x="35" y="458"/>
			<point x="27" y="312" type="curve"/>
			<point x="42" y="311" type="line"/>
			<point x="49" y="388"/>
			<point x="65" y="439"/>
			<point x="115" y="444" type="curve" smooth="yes"/>
			<point x="188" y="452"/>
			<point x="253" y="461"/>
			<point x="322" y="486" type="curve"/>
			<point x="325" y="480" type="line"/>
			<point x="201" y="393"/>
			<point x="107" y="268"/>
			<point x="107" y="131" type="curve" smooth="yes"/>
			<point x="107" y="36"/>
			<point x="168" y="-14"/>
			<point x="251" y="-14" type="curve" smooth="yes"/>
			<point x="388" y="-14"/>
			<point x="467" y="101"/>
			<point x="467" y="194" type="curve" smooth="yes"/>
			<point x="467" y="272"/>
			<point x="418" y="313"/>
			<point x="343" y="313" type="curve" smooth="yes"/>
			<point x="296" y="313"/>
			<point x="261" y="300"/>
		</contour>
		<contour>
			<point x="222" y="263" type="curve"/>
			<point x="255" y="279"/>
			<point x="281" y="284"/>
			<point x="306" y="284" type="curve" smooth="yes"/>
			<point x="360" y="284"/>
			<point x="380" y="245"/>
			<point x="380" y="191" type="curve" smooth="yes"/>
			<point x="380" y="82"/>
			<point x="333" y="8"/>
			<point x="266" y="8" type="curve" smooth="yes"/>
			<point x="215" y="8"/>
			<point x="193" y="49"/>
			<point x="193" y="109" type="curve" smooth="yes"/>
			<point x="193" y="162"/>
			<point x="202" y="217"/>
		</contour>
	</outline>
	<anchor name="top" x="214" y="550"/>
</glyph>
